<svg width="279" height="272" viewBox="0 0 279 272" fill="none" xmlns="http://www.w3.org/2000/svg">
<g filter="url(#filter0_d_3914_3934)">
<path d="M102.474 16C102.655 21.5574 102.841 27.1147 103.022 32.6721C103.202 38.1956 103.394 43.7191 103.563 49.2426C103.829 57.8072 104.099 66.3717 104.331 74.9363C104.466 79.8674 104.539 84.7985 104.613 89.7296C104.765 100.015 104.934 110.3 105.03 120.586C105.109 129.229 105.154 137.873 105.098 146.511C105.053 153.541 104.951 160.576 104.669 167.6C104.359 175.319 103.806 183.031 103.366 190.744C103.349 191.015 103.366 191.285 103.366 191.692C105.222 191.426 106.999 191.127 108.794 190.924C115.637 190.151 122.475 189.311 129.33 188.69C139.853 187.737 150.415 187.302 160.982 187.347C170.771 187.387 180.565 187.528 190.354 187.849C198.005 188.098 205.661 188.549 213.289 189.164C221.092 189.796 228.878 190.67 236.658 191.579C243.739 192.408 250.797 193.429 257.866 194.366C258.244 194.417 258.622 194.507 259 194.58V198.575C256.123 198.203 253.251 197.825 250.374 197.452C244.134 196.64 237.905 195.72 231.648 195.049C223.546 194.18 215.433 193.424 207.308 192.786C201.52 192.329 195.72 192.041 189.914 191.867C181.067 191.601 172.215 191.381 163.363 191.37C152.378 191.359 141.404 191.793 130.447 192.668C121.482 193.379 112.557 194.366 103.682 195.816C103.016 195.923 102.768 196.126 102.666 196.826C101.876 202.242 100.697 207.563 98.0117 212.409C95.3825 217.16 91.6419 220.579 86.1522 221.589C80.6851 222.587 75.5283 221.696 71.0091 218.328C65.1866 213.989 65.1189 206.225 70.7834 201.689C74.383 198.806 78.6032 197.204 82.9814 196.076C87.8843 194.812 92.838 193.757 97.7973 192.741C98.8918 192.515 99.2191 192.081 99.2755 191.082C99.6253 185.288 100.184 179.499 100.347 173.699C100.68 161.704 100.872 149.704 100.996 137.703C101.087 128.919 101.024 120.134 100.94 111.35C100.861 103.129 100.709 94.9089 100.522 86.6885C100.28 75.8446 100.003 65.0064 99.6817 54.1681C99.377 43.9617 98.999 33.7554 98.6379 23.5433C98.5477 21.027 98.3897 18.5163 98.2656 16C99.6648 16 101.07 16 102.469 16L102.474 16ZM98.6041 196.809C98.2938 196.809 98.1922 196.792 98.1019 196.809C92.7985 198.05 87.4611 199.173 82.2028 200.578C78.9643 201.447 75.8499 202.773 73.2208 204.979C69.7791 207.862 69.8356 212.144 73.3336 214.965C79.4777 219.924 89.0127 218.519 93.4473 212.003C95.422 209.097 96.5955 205.853 97.408 202.474C97.8537 200.623 98.1979 198.744 98.6041 196.809Z" fill="white"/>
<path d="M76.9896 134.341C76.9557 139.599 76.0643 144.649 73.2828 149.213C69.3729 155.633 63.4545 159.103 56.1706 160.062C47.6061 161.191 39.4083 159.696 31.9383 155.25C25.9578 151.69 21.7883 146.606 20.406 139.61C19.4864 134.961 20.2086 130.408 21.7714 125.996C25.4951 115.474 32.5871 108.094 43.1941 104.703C53.5189 101.403 64.1428 104.461 70.885 114.199C74.6256 119.604 76.5721 125.595 76.8824 132.146C76.9162 132.879 76.9501 133.613 76.984 134.346L76.9896 134.341ZM72.4478 133.297C72.4591 127.835 71.2178 122.707 68.425 117.979C62.1794 107.406 49.8403 104.218 39.3067 110.537C32.164 114.825 27.5544 120.997 25.5515 129.15C22.9957 139.543 27.8253 147.769 35.1937 152.305C40.6269 155.65 46.6639 156.858 52.9942 156.316C60.0298 155.712 65.5363 152.423 69.2431 146.364C71.6861 142.369 72.4534 137.918 72.4534 133.297H72.4478Z" fill="white"/>
<path d="M147.571 247.631C146.877 247.541 146.183 247.484 145.501 247.354C143.25 246.914 141.788 245.605 141.337 243.326C140.705 240.138 140.22 236.917 139.526 233.746C138.2 227.67 136.761 221.621 135.385 215.556C135.187 214.67 135.052 213.768 134.967 212.865C134.679 209.767 136.101 207.155 139.046 206.162C141.303 205.401 143.712 204.904 146.093 204.695C155.842 203.832 165.603 204.295 175.358 204.65C178.602 204.769 181.863 205.011 185.062 205.53C189.593 206.269 191.212 209.079 189.971 213.531C189.13 216.555 187.488 219.167 185.548 221.565C177.203 231.895 167.189 240.155 155.075 245.735C152.717 246.824 150.217 247.512 147.583 247.625L147.571 247.631ZM163.239 207.934C163.239 208.002 163.239 208.075 163.239 208.143C158.827 208.143 154.415 208.002 150.014 208.193C147.064 208.323 144.101 208.774 141.202 209.356C139.029 209.79 138.318 211.093 138.792 213.266C139.802 217.869 140.993 222.439 141.974 227.049C143.035 232.036 143.96 237.058 144.897 242.074C145.106 243.202 145.704 243.721 146.798 243.755C147.216 243.766 147.633 243.794 148.051 243.766C150.827 243.557 153.354 242.519 155.78 241.272C165.366 236.353 173.558 229.661 180.667 221.61C182.777 219.218 184.718 216.679 185.909 213.683C186.253 212.825 186.383 211.872 186.524 210.952C186.642 210.191 186.247 209.649 185.486 209.497C183.945 209.198 182.405 208.786 180.848 208.707C174.98 208.391 169.107 208.188 163.233 207.939L163.239 207.934Z" fill="white"/>
<path d="M156.079 132.84C163.335 132.97 170.325 134.16 176.548 138.104C182.145 141.653 184.814 146.86 184.481 153.529C183.99 163.38 178.483 169.716 169.716 173.028C157.636 177.592 144.902 173.818 136.761 163.397C133.652 159.419 131.999 154.753 131.728 149.715C131.457 144.564 133.568 140.473 137.85 137.562C141.641 134.984 145.923 133.759 150.42 133.24C152.293 133.026 154.189 132.97 156.068 132.84H156.079ZM158.223 170.737C164.288 170.698 168.824 169.659 172.841 166.844C178.461 162.906 181.005 157.546 179.95 150.731C179.166 145.642 175.922 142.335 171.425 140.158C165.146 137.122 158.494 136.507 151.673 137.308C147.842 137.76 144.237 138.956 141.066 141.235C138.64 142.979 136.941 145.252 136.507 148.254C135.779 153.241 137.218 157.766 140.265 161.614C145.117 167.747 151.667 170.641 158.229 170.731L158.223 170.737Z" fill="white"/>
</g>
<defs>
<filter id="filter0_d_3914_3934" x="0" y="0" width="279" height="271.631" filterUnits="userSpaceOnUse" color-interpolation-filters="sRGB">
<feFlood flood-opacity="0" result="BackgroundImageFix"/>
<feColorMatrix in="SourceAlpha" type="matrix" values="0 0 0 0 0 0 0 0 0 0 0 0 0 0 0 0 0 0 127 0" result="hardAlpha"/>
<feOffset dy="4"/>
<feGaussianBlur stdDeviation="10"/>
<feComposite in2="hardAlpha" operator="out"/>
<feColorMatrix type="matrix" values="0 0 0 0 0 0 0 0 0 0 0 0 0 0 0 0 0 0 0.3 0"/>
<feBlend mode="normal" in2="BackgroundImageFix" result="effect1_dropShadow_3914_3934"/>
<feBlend mode="normal" in="SourceGraphic" in2="effect1_dropShadow_3914_3934" result="shape"/>
</filter>
</defs>
</svg>
