<svg width="387" height="12" viewBox="0 0 387 12" fill="none" xmlns="http://www.w3.org/2000/svg">
<path d="M2.91198 9.02949C1.10373 9.02949 0 7.65569 0 5.74177C0 3.80436 1.1507 2.44231 2.8885 2.44231C4.25055 2.44231 5.26035 3.24075 5.42474 4.45017H4.41494C4.27404 3.86307 3.7574 3.33469 2.91198 3.33469C1.77302 3.33469 1.0098 4.27404 1.0098 5.70654C1.0098 7.18602 1.74954 8.12537 2.91198 8.12537C3.66346 8.12537 4.23881 7.72614 4.41494 7.02163H5.42474C5.26035 8.16059 4.33275 9.02949 2.91198 9.02949ZM9.27607 9.02949C7.53827 9.02949 6.36409 7.72614 6.36409 5.74177C6.36409 3.7574 7.53827 2.44231 9.27607 2.44231C11.0021 2.44231 12.1646 3.7574 12.1646 5.74177C12.1646 7.72614 11.0021 9.02949 9.27607 9.02949ZM9.27607 8.13711C10.5559 8.13711 11.1548 7.00989 11.1548 5.74177C11.1548 4.47365 10.5559 3.33469 9.27607 3.33469C7.97272 3.33469 7.37389 4.47365 7.37389 5.74177C7.37389 7.00989 7.97272 8.13711 9.27607 8.13711ZM13.4914 11.2957V2.5245H14.466V3.5343H14.5834C14.7947 3.19379 15.194 2.44231 16.4269 2.44231C18.0238 2.44231 19.1392 3.71043 19.1392 5.73003C19.1392 7.74963 18.0238 9.02949 16.4386 9.02949C15.2175 9.02949 14.7947 8.27801 14.5834 7.92576H14.5012V11.2957H13.4914ZM14.4777 5.70654C14.4777 7.13905 15.1235 8.12537 16.2977 8.12537C17.5071 8.12537 18.1294 7.0686 18.1294 5.70654C18.1294 4.37971 17.5189 3.34643 16.2977 3.34643C15.1 3.34643 14.4777 4.29752 14.4777 5.70654ZM20.8653 11.2957C20.6422 11.2957 20.4308 11.2839 20.3017 11.2722V10.3681C20.4074 10.3798 20.6422 10.3915 20.7948 10.3915C21.2058 10.3915 21.5463 10.3563 21.8868 9.42871L22.0747 8.9473L19.7146 2.5245H20.8183L22.5561 7.58524H22.6266L24.3644 2.5245H25.4681L22.7675 9.8162C22.3917 10.8143 21.7694 11.2957 20.8653 11.2957ZM26.5836 8.90033V2.5245H27.5581V3.49907H27.6286C27.8634 2.85327 28.521 2.41882 29.2725 2.41882C29.4251 2.41882 29.6834 2.43057 29.8008 2.44231V3.46385C29.7304 3.44037 29.4486 3.3934 29.1903 3.3934C28.2744 3.3934 27.5934 4.02746 27.5934 4.88461V8.90033H26.5836ZM30.7872 8.90033V2.5245H31.797V8.90033H30.7872ZM31.2921 1.46773C30.9046 1.46773 30.5875 1.17419 30.5875 0.798447C30.5875 0.422707 30.9046 0.12916 31.2921 0.12916C31.6795 0.12916 32.0083 0.422707 32.0083 0.798447C32.0083 1.17419 31.6795 1.46773 31.2921 1.46773ZM35.9888 11.4248C34.4506 11.4248 33.4056 10.7555 33.2882 9.56962H34.3449C34.4858 10.2154 35.0847 10.5442 35.9888 10.5442C37.0808 10.5442 37.7501 10.0745 37.7501 9.01775V7.72614H37.6679C37.4565 8.0784 37.0456 8.8064 35.8127 8.8064C34.2628 8.8064 33.1003 7.63221 33.1003 5.62435C33.1003 3.66346 34.2275 2.44231 35.8244 2.44231C37.0573 2.44231 37.4565 3.19379 37.6914 3.5343H37.7736V2.5245H38.7599V9.07646C38.7599 10.7203 37.5387 11.4248 35.9888 11.4248ZM35.9536 7.90227C37.116 7.90227 37.7736 7.0686 37.7736 5.65958C37.7736 4.29752 37.1395 3.34643 35.9536 3.34643C34.7324 3.34643 34.1218 4.37971 34.1218 5.65958C34.1218 6.98641 34.7442 7.90227 35.9536 7.90227ZM41.3783 5.07248V8.90033H40.3685V0.399223H41.3783V3.52256H41.4605C41.7541 2.86501 42.3294 2.44231 43.3392 2.44231C44.6426 2.44231 45.5115 3.21727 45.5115 4.84939V8.90033H44.5017V4.91984C44.5017 3.92178 43.9498 3.34643 43.0339 3.34643C42.0828 3.34643 41.3783 3.96875 41.3783 5.07248ZM49.9147 2.5245V3.36991H48.5761V7.0686C48.5761 7.89053 48.9753 8.01969 49.4098 8.01969C49.5976 8.01969 49.8559 8.00795 50.0086 7.99621V8.93556C49.8559 8.95904 49.5976 8.98252 49.3041 8.98252C48.4587 8.98252 47.5545 8.45414 47.5545 7.32692V3.36991H46.5917V2.5245H47.5545V0.998058H48.5761V2.5245H49.9147ZM58.4392 7.78485C57.2651 7.78485 56.4079 6.83376 56.4079 5.30732C56.4079 3.79262 57.2768 2.84153 58.451 2.84153C59.2964 2.84153 59.6487 3.38166 59.7896 3.65172H59.8483V2.93547H60.7406V6.36409C60.7524 6.82202 60.952 7.04512 61.3277 7.04512C62.0557 7.04512 62.5372 6.1997 62.5489 4.97855C62.5606 2.75934 60.952 1.31509 58.7093 1.31509C56.3844 1.32683 54.8815 3.12334 54.8815 5.30732C54.8815 7.69092 56.1848 9.33478 58.6623 9.3113C59.4843 9.29955 60.0244 9.25259 60.7406 9.05297V9.85142C60.1301 10.0158 59.4373 10.1215 58.6623 10.1215C55.7973 10.1215 54.036 8.28975 54.036 5.30732C54.0243 2.53624 55.9735 0.5049 58.7093 0.5049C61.5156 0.5049 63.406 2.41882 63.3943 4.94332C63.3943 6.76331 62.455 7.83182 61.269 7.83182C60.5293 7.83182 59.9716 7.41499 59.9305 6.86899H59.8483C59.7074 7.12731 59.3551 7.78485 58.4392 7.78485ZM58.5919 6.9277C59.4256 6.9277 59.8483 6.27015 59.86 5.29558C59.8483 4.34449 59.4373 3.69869 58.5919 3.69869C57.77 3.69869 57.3238 4.4032 57.3238 5.29558C57.3238 6.21144 57.7817 6.9277 58.5919 6.9277ZM67.9619 8.90033V0.399223H69.0187V4.60281H69.1243L72.9052 0.399223H74.2908L70.733 4.23881L74.2908 8.90033H72.9992L70.0754 4.96681L69.0187 6.16448V8.90033H67.9619ZM77.4376 9.02949C75.6998 9.02949 74.5256 7.72614 74.5256 5.74177C74.5256 3.7574 75.6998 2.44231 77.4376 2.44231C79.1636 2.44231 80.3261 3.7574 80.3261 5.74177C80.3261 7.72614 79.1636 9.02949 77.4376 9.02949ZM77.4376 8.13711C78.7174 8.13711 79.3163 7.00989 79.3163 5.74177C79.3163 4.47365 78.7174 3.33469 77.4376 3.33469C76.1342 3.33469 75.5354 4.47365 75.5354 5.74177C75.5354 7.00989 76.1342 8.13711 77.4376 8.13711ZM81.6529 8.90033V2.5245H82.6275V3.49907H82.6979C82.9328 2.85327 83.5903 2.41882 84.3418 2.41882C84.4944 2.41882 84.7528 2.43057 84.8702 2.44231V3.46385C84.7997 3.44037 84.5179 3.3934 84.2596 3.3934C83.3437 3.3934 82.6627 4.02746 82.6627 4.88461V8.90033H81.6529ZM88.3223 9.02949C86.4788 9.02949 85.3398 7.72614 85.3398 5.76525C85.3398 3.80436 86.4905 2.44231 88.2283 2.44231C89.5669 2.44231 90.9759 3.26424 90.9759 5.62435V6.04706H86.3496C86.3966 7.39737 87.1833 8.13711 88.3223 8.13711C89.0855 8.13711 89.5669 7.80834 89.8018 7.40911H90.882C90.5767 8.37195 89.6374 9.02949 88.3223 9.02949ZM86.3614 5.1899H89.9544C89.9544 4.12139 89.2734 3.33469 88.2283 3.33469C87.1246 3.33469 86.4201 4.20359 86.3614 5.1899ZM91.9857 7.09208C91.9857 5.62435 93.2773 5.29558 94.3811 5.21339C94.7862 5.18403 95.8195 5.13119 96.1071 5.11945V4.60281C96.1071 3.79262 95.6257 3.32295 94.6629 3.32295C93.8527 3.32295 93.3713 3.69869 93.2304 4.1801H92.1736C92.3028 3.15856 93.3008 2.44231 94.7099 2.44231C95.5435 2.44231 97.1052 2.68889 97.1052 4.69674V8.90033H96.1071V8.03143H96.0602C95.8488 8.46588 95.2617 9.05297 94.158 9.05297C92.9486 9.05297 91.9857 8.33672 91.9857 7.09208ZM92.9955 7.13905C92.9955 7.80834 93.5591 8.14885 94.3341 8.14885C95.4731 8.14885 96.1071 7.38563 96.1071 6.58718V5.94138L94.4985 6.0588C93.5826 6.11751 92.9955 6.44628 92.9955 7.13905ZM107.438 0.399223H108.495V6.02357C108.495 7.77311 107.191 9.05297 105.184 9.05297C103.176 9.05297 101.872 7.77311 101.872 6.02357V0.399223H102.929V5.94138C102.929 7.17428 103.786 8.06666 105.184 8.06666C106.593 8.06666 107.438 7.17428 107.438 5.94138V0.399223ZM111.254 5.07248V8.90033H110.244V2.5245H111.219V3.52256H111.301C111.606 2.87676 112.193 2.44231 113.168 2.44231C114.46 2.44231 115.317 3.22901 115.317 4.84939V8.90033H114.307V4.91984C114.307 3.93352 113.767 3.34643 112.863 3.34643C111.935 3.34643 111.254 3.96875 111.254 5.07248ZM116.937 8.90033V2.5245H117.947V8.90033H116.937ZM117.442 1.46773C117.055 1.46773 116.738 1.17419 116.738 0.798447C116.738 0.422707 117.055 0.12916 117.442 0.12916C117.83 0.12916 118.158 0.422707 118.158 0.798447C118.158 1.17419 117.83 1.46773 117.442 1.46773ZM124.804 2.5245L122.444 8.90033H121.399L119.051 2.5245H120.154L121.892 7.58524H121.963L123.701 2.5245H124.804ZM128.362 9.02949C126.519 9.02949 125.38 7.72614 125.38 5.76525C125.38 3.80436 126.53 2.44231 128.268 2.44231C129.607 2.44231 131.016 3.26424 131.016 5.62435V6.04706H126.389C126.436 7.39737 127.223 8.13711 128.362 8.13711C129.125 8.13711 129.607 7.80834 129.842 7.40911H130.922C130.616 8.37195 129.677 9.02949 128.362 9.02949ZM126.401 5.1899H129.994C129.994 4.12139 129.313 3.33469 128.268 3.33469C127.164 3.33469 126.46 4.20359 126.401 5.1899ZM132.331 8.90033V2.5245H133.305V3.49907H133.376C133.611 2.85327 134.268 2.41882 135.02 2.41882C135.172 2.41882 135.431 2.43057 135.548 2.44231V3.46385C135.478 3.44037 135.196 3.3934 134.937 3.3934C134.022 3.3934 133.341 4.02746 133.341 4.88461V8.90033H132.331ZM140.08 4.1801C139.94 3.65172 139.54 3.29946 138.789 3.29946C138.002 3.29946 137.438 3.72217 137.438 4.2623C137.438 4.685 137.779 4.97855 138.53 5.15468L139.482 5.38951C140.621 5.65958 141.184 6.22319 141.184 7.11557C141.184 8.2193 140.28 9.02949 138.683 9.02949C137.251 9.02949 136.393 8.39543 136.229 7.23299H137.286C137.403 7.85531 137.861 8.14885 138.66 8.14885C139.564 8.14885 140.139 7.77311 140.139 7.17428C140.139 6.72809 139.822 6.4228 139.094 6.25841L138.131 6.03532C137.016 5.777 136.429 5.16642 136.429 4.321C136.429 3.22901 137.38 2.44231 138.789 2.44231C140.104 2.44231 140.938 3.14682 141.067 4.1801H140.08ZM142.499 8.90033V2.5245H143.509V8.90033H142.499ZM143.004 1.46773C142.617 1.46773 142.3 1.17419 142.3 0.798447C142.3 0.422707 142.617 0.12916 143.004 0.12916C143.392 0.12916 143.72 0.422707 143.72 0.798447C143.72 1.17419 143.392 1.46773 143.004 1.46773ZM147.9 2.5245V3.36991H146.562V7.0686C146.562 7.89053 146.961 8.01969 147.396 8.01969C147.583 8.01969 147.842 8.00795 147.994 7.99621V8.93556C147.842 8.95904 147.583 8.98252 147.29 8.98252C146.444 8.98252 145.54 8.45414 145.54 7.32692V3.36991H144.578V2.5245H145.54V0.998058H146.562V2.5245H147.9ZM149.85 11.2957C149.627 11.2957 149.415 11.2839 149.286 11.2722V10.3681C149.392 10.3798 149.627 10.3915 149.779 10.3915C150.19 10.3915 150.531 10.3563 150.871 9.42871L151.059 8.9473L148.699 2.5245H149.803L151.54 7.58524H151.611L153.349 2.5245H154.452L151.752 9.8162C151.376 10.8143 150.754 11.2957 149.85 11.2957ZM164.515 3.07637C164.269 1.90218 163.259 1.26812 162.143 1.26812C160.605 1.26812 159.408 2.45405 159.408 4.64978C159.408 6.84551 160.605 8.03143 162.143 8.03143C163.259 8.03143 164.257 7.39737 164.515 6.23493H165.572C165.267 7.97272 163.869 9.01775 162.143 9.01775C159.959 9.01775 158.386 7.33866 158.386 4.64978C158.386 1.96089 159.959 0.281805 162.143 0.281805C163.858 0.281805 165.255 1.31509 165.572 3.07637H164.515ZM169.529 9.02949C167.791 9.02949 166.617 7.72614 166.617 5.74177C166.617 3.7574 167.791 2.44231 169.529 2.44231C171.255 2.44231 172.417 3.7574 172.417 5.74177C172.417 7.72614 171.255 9.02949 169.529 9.02949ZM169.529 8.13711C170.809 8.13711 171.408 7.00989 171.408 5.74177C171.408 4.47365 170.809 3.33469 169.529 3.33469C168.226 3.33469 167.627 4.47365 167.627 5.74177C167.627 7.00989 168.226 8.13711 169.529 8.13711ZM174.754 0.399223V8.90033H173.744V0.399223H174.754ZM177.373 0.399223V8.90033H176.363V0.399223H177.373ZM181.658 9.02949C179.815 9.02949 178.676 7.72614 178.676 5.76525C178.676 3.80436 179.827 2.44231 181.564 2.44231C182.903 2.44231 184.312 3.26424 184.312 5.62435V6.04706H179.686C179.733 7.39737 180.519 8.13711 181.658 8.13711C182.422 8.13711 182.903 7.80834 183.138 7.40911H184.218C183.913 8.37195 182.973 9.02949 181.658 9.02949ZM179.697 5.1899H183.29C183.29 4.12139 182.609 3.33469 181.564 3.33469C180.461 3.33469 179.756 4.20359 179.697 5.1899ZM188.21 11.4248C186.672 11.4248 185.627 10.7555 185.51 9.56962H186.566C186.707 10.2154 187.306 10.5442 188.21 10.5442C189.302 10.5442 189.972 10.0745 189.972 9.01775V7.72614H189.889C189.678 8.0784 189.267 8.8064 188.034 8.8064C186.484 8.8064 185.322 7.63221 185.322 5.62435C185.322 3.66346 186.449 2.44231 188.046 2.44231C189.279 2.44231 189.678 3.19379 189.913 3.5343H189.995V2.5245H190.981V9.07646C190.981 10.7203 189.76 11.4248 188.21 11.4248ZM188.175 7.90227C189.338 7.90227 189.995 7.0686 189.995 5.65958C189.995 4.29752 189.361 3.34643 188.175 3.34643C186.954 3.34643 186.343 4.37971 186.343 5.65958C186.343 6.98641 186.966 7.90227 188.175 7.90227ZM195.267 9.02949C193.424 9.02949 192.285 7.72614 192.285 5.76525C192.285 3.80436 193.435 2.44231 195.173 2.44231C196.512 2.44231 197.921 3.26424 197.921 5.62435V6.04706H193.295C193.341 7.39737 194.128 8.13711 195.267 8.13711C196.03 8.13711 196.512 7.80834 196.747 7.40911H197.827C197.522 8.37195 196.582 9.02949 195.267 9.02949ZM193.306 5.1899H196.899C196.899 4.12139 196.218 3.33469 195.173 3.33469C194.069 3.33469 193.365 4.20359 193.306 5.1899ZM204.86 9.02949C203.122 9.02949 201.948 7.72614 201.948 5.74177C201.948 3.7574 203.122 2.44231 204.86 2.44231C206.586 2.44231 207.749 3.7574 207.749 5.74177C207.749 7.72614 206.586 9.02949 204.86 9.02949ZM204.86 8.13711C206.14 8.13711 206.739 7.00989 206.739 5.74177C206.739 4.47365 206.14 3.33469 204.86 3.33469C203.557 3.33469 202.958 4.47365 202.958 5.74177C202.958 7.00989 203.557 8.13711 204.86 8.13711ZM211.929 2.5245V3.36991H210.52V8.90033H209.498V3.36991H208.477V2.5245H209.498V1.6556C209.498 0.622319 210.191 0 211.318 0C211.565 0 211.858 0.0352256 212.07 0.0704512V0.974574C211.858 0.939349 211.671 0.927607 211.541 0.927607C210.837 0.927607 210.52 1.22115 210.52 1.8787V2.5245H211.929ZM217.33 0.399223V8.90033H216.273V0.399223H217.33ZM220.089 5.07248V8.90033H219.08V2.5245H220.054V3.52256H220.136C220.442 2.87676 221.029 2.44231 222.003 2.44231C223.295 2.44231 224.152 3.22901 224.152 4.84939V8.90033H223.142V4.91984C223.142 3.93352 222.602 3.34643 221.698 3.34643C220.77 3.34643 220.089 3.96875 220.089 5.07248ZM228.626 2.5245V3.36991H227.217V8.90033H226.195V3.36991H225.174V2.5245H226.195V1.6556C226.195 0.622319 226.888 0 228.015 0C228.262 0 228.555 0.0352256 228.767 0.0704512V0.974574C228.555 0.939349 228.367 0.927607 228.238 0.927607C227.534 0.927607 227.217 1.22115 227.217 1.8787V2.5245H228.626ZM232.16 9.02949C230.422 9.02949 229.248 7.72614 229.248 5.74177C229.248 3.7574 230.422 2.44231 232.16 2.44231C233.886 2.44231 235.049 3.7574 235.049 5.74177C235.049 7.72614 233.886 9.02949 232.16 9.02949ZM232.16 8.13711C233.44 8.13711 234.039 7.00989 234.039 5.74177C234.039 4.47365 233.44 3.33469 232.16 3.33469C230.857 3.33469 230.258 4.47365 230.258 5.74177C230.258 7.00989 230.857 8.13711 232.16 8.13711ZM236.375 8.90033V2.5245H237.35V3.49907H237.42C237.655 2.85327 238.313 2.41882 239.064 2.41882C239.217 2.41882 239.475 2.43057 239.593 2.44231V3.46385C239.522 3.44037 239.24 3.3934 238.982 3.3934C238.066 3.3934 237.385 4.02746 237.385 4.88461V8.90033H236.375ZM240.579 8.90033V2.5245H241.554V3.52256H241.636C241.906 2.84153 242.516 2.44231 243.35 2.44231C244.184 2.44231 244.747 2.84153 245.053 3.52256H245.123C245.452 2.86501 246.121 2.44231 247.037 2.44231C248.176 2.44231 248.986 3.13508 248.986 4.63804V8.90033H247.976V4.64978C247.976 3.71043 247.378 3.34643 246.685 3.34643C245.792 3.34643 245.287 3.94527 245.287 4.75545V8.90033H244.266V4.5441C244.266 3.82785 243.749 3.34643 243.021 3.34643C242.258 3.34643 241.589 3.99223 241.589 4.91984V8.90033H240.579ZM250.301 7.09208C250.301 5.62435 251.593 5.29558 252.697 5.21339C253.102 5.18403 254.135 5.13119 254.423 5.11945V4.60281C254.423 3.79262 253.941 3.32295 252.978 3.32295C252.168 3.32295 251.687 3.69869 251.546 4.1801H250.489C250.618 3.15856 251.616 2.44231 253.025 2.44231C253.859 2.44231 255.421 2.68889 255.421 4.69674V8.90033H254.423V8.03143H254.376C254.164 8.46588 253.577 9.05297 252.473 9.05297C251.264 9.05297 250.301 8.33672 250.301 7.09208ZM251.311 7.13905C251.311 7.80834 251.875 8.14885 252.65 8.14885C253.789 8.14885 254.423 7.38563 254.423 6.58718V5.94138L252.814 6.0588C251.898 6.11751 251.311 6.44628 251.311 7.13905ZM259.824 2.5245V3.36991H258.485V7.0686C258.485 7.89053 258.885 8.01969 259.319 8.01969C259.507 8.01969 259.765 8.00795 259.918 7.99621V8.93556C259.765 8.95904 259.507 8.98252 259.213 8.98252C258.368 8.98252 257.464 8.45414 257.464 7.32692V3.36991H256.501V2.5245H257.464V0.998058H258.485V2.5245H259.824ZM261.127 8.90033V2.5245H262.137V8.90033H261.127ZM261.632 1.46773C261.245 1.46773 260.928 1.17419 260.928 0.798447C260.928 0.422707 261.245 0.12916 261.632 0.12916C262.02 0.12916 262.348 0.422707 262.348 0.798447C262.348 1.17419 262.02 1.46773 261.632 1.46773ZM266.352 9.02949C264.544 9.02949 263.44 7.65569 263.44 5.74177C263.44 3.80436 264.591 2.44231 266.329 2.44231C267.691 2.44231 268.701 3.24075 268.865 4.45017H267.855C267.714 3.86307 267.198 3.33469 266.352 3.33469C265.213 3.33469 264.45 4.27404 264.45 5.70654C264.45 7.18602 265.19 8.12537 266.352 8.12537C267.104 8.12537 267.679 7.72614 267.855 7.02163H268.865C268.701 8.16059 267.773 9.02949 266.352 9.02949ZM273.656 4.1801C273.515 3.65172 273.116 3.29946 272.364 3.29946C271.578 3.29946 271.014 3.72217 271.014 4.2623C271.014 4.685 271.354 4.97855 272.106 5.15468L273.057 5.38951C274.196 5.65958 274.76 6.22319 274.76 7.11557C274.76 8.2193 273.855 9.02949 272.259 9.02949C270.826 9.02949 269.969 8.39543 269.804 7.23299H270.861C270.979 7.85531 271.437 8.14885 272.235 8.14885C273.139 8.14885 273.715 7.77311 273.715 7.17428C273.715 6.72809 273.397 6.4228 272.669 6.25841L271.707 6.03532C270.591 5.777 270.004 5.16642 270.004 4.321C270.004 3.22901 270.955 2.44231 272.364 2.44231C273.679 2.44231 274.513 3.14682 274.642 4.1801H273.656ZM276.791 8.97078C276.38 8.97078 276.028 8.63027 276.039 8.20756C276.028 7.7966 276.38 7.45608 276.791 7.45608C277.202 7.45608 277.542 7.7966 277.542 8.20756C277.542 8.63027 277.202 8.97078 276.791 8.97078ZM282.627 8.90033H281.523L284.634 0.399223H285.75L288.862 8.90033H287.746L286.901 6.50499H283.484L282.627 8.90033ZM283.801 5.57738H286.572L285.222 1.77302H285.151L283.801 5.57738ZM290.893 0.399223V8.90033H289.883V0.399223H290.893ZM293.511 0.399223V8.90033H292.502V0.399223H293.511ZM298.267 8.90033V0.399223H301.155C303.151 0.399223 304.055 1.50296 304.055 3.01766C304.055 4.13901 303.551 5.02552 302.47 5.40126L304.384 8.90033H303.151L301.378 5.58913L301.167 5.60087H299.324V8.90033H298.267ZM299.324 4.63804H301.12C302.47 4.63804 303.01 4.02746 303.01 3.01766C303.01 1.99612 302.47 1.33857 301.108 1.33857H299.324V4.63804ZM305.453 8.90033V2.5245H306.463V8.90033H305.453ZM305.958 1.46773C305.57 1.46773 305.253 1.17419 305.253 0.798447C305.253 0.422707 305.57 0.12916 305.958 0.12916C306.345 0.12916 306.674 0.422707 306.674 0.798447C306.674 1.17419 306.345 1.46773 305.958 1.46773ZM310.654 11.4248C309.116 11.4248 308.071 10.7555 307.954 9.56962H309.011C309.151 10.2154 309.75 10.5442 310.654 10.5442C311.746 10.5442 312.416 10.0745 312.416 9.01775V7.72614H312.334C312.122 8.0784 311.711 8.8064 310.478 8.8064C308.928 8.8064 307.766 7.63221 307.766 5.62435C307.766 3.66346 308.893 2.44231 310.49 2.44231C311.723 2.44231 312.122 3.19379 312.357 3.5343H312.439V2.5245H313.425V9.07646C313.425 10.7203 312.204 11.4248 310.654 11.4248ZM310.619 7.90227C311.782 7.90227 312.439 7.0686 312.439 5.65958C312.439 4.29752 311.805 3.34643 310.619 3.34643C309.398 3.34643 308.787 4.37971 308.787 5.65958C308.787 6.98641 309.41 7.90227 310.619 7.90227ZM316.044 5.07248V8.90033H315.034V0.399223H316.044V3.52256H316.126C316.42 2.86501 316.995 2.44231 318.005 2.44231C319.308 2.44231 320.177 3.21727 320.177 4.84939V8.90033H319.167V4.91984C319.167 3.92178 318.615 3.34643 317.7 3.34643C316.748 3.34643 316.044 3.96875 316.044 5.07248ZM324.58 2.5245V3.36991H323.242V7.0686C323.242 7.89053 323.641 8.01969 324.075 8.01969C324.263 8.01969 324.522 8.00795 324.674 7.99621V8.93556C324.522 8.95904 324.263 8.98252 323.97 8.98252C323.124 8.98252 322.22 8.45414 322.22 7.32692V3.36991H321.257V2.5245H322.22V0.998058H323.242V2.5245H324.58ZM329.312 4.1801C329.171 3.65172 328.772 3.29946 328.021 3.29946C327.234 3.29946 326.67 3.72217 326.67 4.2623C326.67 4.685 327.011 4.97855 327.762 5.15468L328.713 5.38951C329.852 5.65958 330.416 6.22319 330.416 7.11557C330.416 8.2193 329.512 9.02949 327.915 9.02949C326.482 9.02949 325.625 8.39543 325.461 7.23299H326.518C326.635 7.85531 327.093 8.14885 327.891 8.14885C328.796 8.14885 329.371 7.77311 329.371 7.17428C329.371 6.72809 329.054 6.4228 328.326 6.25841L327.363 6.03532C326.248 5.777 325.661 5.16642 325.661 4.321C325.661 3.22901 326.612 2.44231 328.021 2.44231C329.336 2.44231 330.169 3.14682 330.299 4.1801H329.312ZM334.878 8.90033V0.399223H337.766C339.762 0.399223 340.667 1.50296 340.667 3.01766C340.667 4.13901 340.162 5.02552 339.081 5.40126L340.995 8.90033H339.762L337.989 5.58913L337.778 5.60087H335.935V8.90033H334.878ZM335.935 4.63804H337.731C339.081 4.63804 339.622 4.02746 339.622 3.01766C339.622 1.99612 339.081 1.33857 337.719 1.33857H335.935V4.63804ZM344.671 9.02949C342.827 9.02949 341.688 7.72614 341.688 5.76525C341.688 3.80436 342.839 2.44231 344.577 2.44231C345.915 2.44231 347.324 3.26424 347.324 5.62435V6.04706H342.698C342.745 7.39737 343.532 8.13711 344.671 8.13711C345.434 8.13711 345.915 7.80834 346.15 7.40911H347.23C346.925 8.37195 345.986 9.02949 344.671 9.02949ZM342.71 5.1899H346.303C346.303 4.12139 345.622 3.33469 344.577 3.33469C343.473 3.33469 342.768 4.20359 342.71 5.1899ZM352.185 4.1801C352.044 3.65172 351.645 3.29946 350.894 3.29946C350.107 3.29946 349.543 3.72217 349.543 4.2623C349.543 4.685 349.884 4.97855 350.635 5.15468L351.587 5.38951C352.726 5.65958 353.289 6.22319 353.289 7.11557C353.289 8.2193 352.385 9.02949 350.788 9.02949C349.356 9.02949 348.498 8.39543 348.334 7.23299H349.391C349.508 7.85531 349.966 8.14885 350.765 8.14885C351.669 8.14885 352.244 7.77311 352.244 7.17428C352.244 6.72809 351.927 6.4228 351.199 6.25841L350.236 6.03532C349.121 5.777 348.534 5.16642 348.534 4.321C348.534 3.22901 349.485 2.44231 350.894 2.44231C352.209 2.44231 353.043 3.14682 353.172 4.1801H352.185ZM357.281 9.02949C355.438 9.02949 354.299 7.72614 354.299 5.76525C354.299 3.80436 355.45 2.44231 357.187 2.44231C358.526 2.44231 359.935 3.26424 359.935 5.62435V6.04706H355.309C355.356 7.39737 356.142 8.13711 357.281 8.13711C358.045 8.13711 358.526 7.80834 358.761 7.40911H359.841C359.536 8.37195 358.596 9.02949 357.281 9.02949ZM355.32 5.1899H358.913C358.913 4.12139 358.232 3.33469 357.187 3.33469C356.084 3.33469 355.379 4.20359 355.32 5.1899ZM361.25 8.90033V2.5245H362.225V3.49907H362.295C362.53 2.85327 363.188 2.41882 363.939 2.41882C364.092 2.41882 364.35 2.43057 364.467 2.44231V3.46385C364.397 3.44037 364.115 3.3934 363.857 3.3934C362.941 3.3934 362.26 4.02746 362.26 4.88461V8.90033H361.25ZM370.902 2.5245L368.542 8.90033H367.497L365.148 2.5245H366.252L367.99 7.58524H368.06L369.798 2.5245H370.902ZM374.46 9.02949C372.616 9.02949 371.477 7.72614 371.477 5.76525C371.477 3.80436 372.628 2.44231 374.366 2.44231C375.704 2.44231 377.113 3.26424 377.113 5.62435V6.04706H372.487C372.534 7.39737 373.321 8.13711 374.46 8.13711C375.223 8.13711 375.704 7.80834 375.939 7.40911H377.019C376.714 8.37195 375.775 9.02949 374.46 9.02949ZM372.499 5.1899H376.092C376.092 4.12139 375.411 3.33469 374.366 3.33469C373.262 3.33469 372.558 4.20359 372.499 5.1899ZM380.836 9.02949C379.25 9.02949 378.123 7.74963 378.123 5.73003C378.123 3.71043 379.25 2.44231 380.847 2.44231C382.08 2.44231 382.479 3.19379 382.691 3.5343H382.761V0.399223H383.783V8.90033H382.796V7.92576H382.691C382.468 8.27801 382.057 9.02949 380.836 9.02949ZM380.976 8.12537C382.139 8.12537 382.796 7.13905 382.796 5.70654C382.796 4.29752 382.162 3.34643 380.976 3.34643C379.755 3.34643 379.145 4.37971 379.145 5.70654C379.145 7.0686 379.767 8.12537 380.976 8.12537ZM386.249 8.97078C385.838 8.97078 385.485 8.63027 385.497 8.20756C385.485 7.7966 385.838 7.45608 386.249 7.45608C386.659 7.45608 387 7.7966 387 8.20756C387 8.63027 386.659 8.97078 386.249 8.97078Z" fill="white"/>
</svg>
