<svg width="17" height="17" viewBox="0 0 17 17" fill="none" xmlns="http://www.w3.org/2000/svg">
<path d="M15.4199 8.86784C15.395 8.8429 15.3686 8.81935 15.3437 8.79303C15.2563 8.70437 15.1676 8.61432 15.0802 8.53536C15.0525 8.51181 15.0248 8.49103 14.9984 8.46748C14.9027 8.38298 14.807 8.29986 14.71 8.22505C14.7017 8.21951 14.6947 8.21258 14.6878 8.20704C14.6781 8.19873 14.6684 8.1918 14.6587 8.18487C14.6504 8.17933 14.6434 8.17379 14.6351 8.16825C14.5311 8.08929 14.4271 8.01725 14.3203 7.94798C14.2968 7.93413 14.2746 7.91474 14.251 7.8995H14.2482C14.2482 7.8995 14.2385 7.89257 14.2344 7.8898C14.1234 7.81915 14.0097 7.75681 13.8946 7.69586C13.8655 7.68062 13.8378 7.66261 13.8087 7.64737C13.6908 7.58642 13.5688 7.53377 13.4468 7.48252C13.4107 7.46728 13.376 7.45065 13.3386 7.43542C13.2152 7.38554 13.0862 7.3426 12.9573 7.29965C12.9254 7.28996 12.8963 7.27749 12.8644 7.26779C12.8616 7.26779 12.8588 7.26641 12.856 7.26502C12.8505 7.26364 12.845 7.26225 12.8394 7.26087C12.7077 7.22069 12.5704 7.18467 12.4317 7.15142C12.4012 7.1445 12.3735 7.13619 12.3416 7.12787C12.3374 7.12787 12.3319 7.1251 12.3277 7.12372C12.3208 7.12233 12.3139 7.12095 12.3083 7.11956C12.1697 7.08632 12.0227 7.05861 11.8757 7.03229C11.8369 7.02675 11.8022 7.01705 11.7634 7.01012C11.7592 7.01012 11.7537 7.01012 11.7495 7.00874C11.597 6.98242 11.4431 6.96164 11.2891 6.94224C11.2462 6.93808 11.2046 6.93116 11.163 6.92562C10.9993 6.90622 10.8357 6.8896 10.6721 6.87436C10.636 6.87159 10.6 6.86743 10.5639 6.86466C10.3906 6.84804 10.2159 6.83419 10.0425 6.81895C10.0134 6.81756 9.98431 6.81479 9.95657 6.81202C9.76938 6.7954 9.58357 6.77877 9.39637 6.76076C9.33813 6.06118 9.28821 5.30479 9.20779 4.55117C9.0608 3.16585 8.59073 1.93015 7.51747 0.977044C6.98777 0.506035 6.40677 0.141695 5.69265 0.0502637C5.14908 -0.0190024 4.62909 -0.0162316 4.13267 0.0558051C4.12297 0.0558051 4.11465 0.0571905 4.10494 0.0585758C4.02174 0.0710437 3.93993 0.0862822 3.85812 0.102906C3.84009 0.107062 3.82068 0.109833 3.80265 0.112603C3.72777 0.127842 3.65428 0.147237 3.5794 0.166631C3.55444 0.173558 3.52948 0.177713 3.50591 0.18464C3.43797 0.204034 3.37002 0.224814 3.30208 0.246979C3.27296 0.256677 3.24384 0.264989 3.21472 0.274686C3.15093 0.296851 3.08992 0.320401 3.02752 0.345337C2.99563 0.357805 2.96235 0.368888 2.93046 0.382741C2.87222 0.407677 2.81398 0.433998 2.75574 0.460319C2.72107 0.476943 2.68641 0.492181 2.65174 0.508805C2.59766 0.535126 2.54358 0.564218 2.4895 0.59331C2.45345 0.612704 2.41601 0.632099 2.37996 0.652879C2.32865 0.681971 2.27873 0.712448 2.22881 0.742925C2.18999 0.766475 2.15255 0.78864 2.11511 0.813576C2.06796 0.844053 2.02082 0.877301 1.97367 0.910549C1.93485 0.938255 1.89463 0.964576 1.85581 0.993668C1.81144 1.02692 1.76706 1.06155 1.72269 1.0948C1.68248 1.12666 1.64226 1.15714 1.60205 1.19038C1.56045 1.22502 1.51885 1.26104 1.47725 1.29705C1.43704 1.33169 1.39544 1.36771 1.35523 1.40511C1.31502 1.44113 1.27619 1.47853 1.23736 1.51732C1.21102 1.54226 1.18329 1.56719 1.15833 1.59351C1.12921 1.6226 1.10147 1.65031 1.07235 1.68079C1.06819 1.68633 1.06403 1.69187 1.05849 1.69603C0.97529 1.7833 0.897637 1.87058 0.824145 1.96201C0.767293 2.03127 0.717374 2.10331 0.666068 2.17535C0.649428 2.1989 0.631402 2.22106 0.616149 2.24461C0.55375 2.33605 0.498284 2.43025 0.445592 2.52583C0.445592 2.52722 0.444205 2.5286 0.442819 2.52999C0.101705 3.14369 -0.0522125 3.83081 0.015733 4.58165C0.218183 6.80648 1.36771 8.38575 3.38111 9.33885C4.24499 9.7489 5.16295 9.97056 6.12528 10.0578C6.25146 11.04 6.56346 11.9626 6.95865 12.8576C7.54243 14.1819 8.30231 15.3816 9.51978 16.2225C10.8496 17.1424 12.2293 17.2892 13.6547 16.4303C13.6672 16.422 13.6797 16.4137 13.6936 16.4054C13.8225 16.3264 13.9515 16.2447 14.0777 16.1588C14.1262 16.1269 14.1734 16.0923 14.2205 16.059C14.3148 15.9926 14.4077 15.9261 14.4992 15.8568C14.5477 15.8194 14.5963 15.782 14.6448 15.7446C14.7391 15.6698 14.832 15.5936 14.9235 15.516C14.9624 15.4828 15.0012 15.4509 15.0386 15.4176C15.1648 15.3068 15.2882 15.1918 15.4061 15.0741C15.4089 15.0713 15.413 15.0672 15.4172 15.0644C15.5031 14.9785 15.5863 14.8898 15.6682 14.7998C15.6917 14.7735 15.7153 14.7471 15.7389 14.7208C15.8013 14.6502 15.8623 14.5781 15.9219 14.5047C15.9469 14.4742 15.9718 14.4438 15.9954 14.4133C16.0675 14.3205 16.1382 14.2277 16.2034 14.1321C16.2076 14.1265 16.2117 14.121 16.2159 14.1154C16.27 14.0365 16.3199 13.9603 16.3656 13.8855C16.3726 13.873 16.3809 13.8619 16.3878 13.8495C16.4322 13.776 16.4724 13.7026 16.5098 13.632C16.514 13.625 16.5168 13.6181 16.5196 13.6112C16.5528 13.5447 16.582 13.4796 16.6083 13.4145C16.6125 13.4034 16.618 13.3937 16.6222 13.3826C16.6499 13.3147 16.6721 13.2455 16.6929 13.1762C16.697 13.1637 16.6998 13.1513 16.704 13.1388C16.7234 13.0709 16.74 13.0016 16.7525 12.931C16.7525 12.9282 16.7525 12.9254 16.7539 12.9227C16.7539 12.9185 16.7553 12.9158 16.7567 12.913C16.7678 12.8534 16.7747 12.7925 16.7816 12.7287C16.7816 12.7287 16.7816 12.7204 16.7816 12.7163C16.7886 12.6539 16.7927 12.5888 16.7955 12.5223C16.7955 12.5002 16.7983 12.4794 16.7997 12.4558C16.801 12.3921 16.801 12.3242 16.7997 12.255C16.7997 12.2356 16.7997 12.2175 16.7997 12.1968C16.7997 12.1704 16.7997 12.1455 16.7997 12.1178C16.7997 12.0929 16.7941 12.0679 16.7927 12.043C16.7927 12.0264 16.7886 12.0097 16.7872 11.9931C16.7789 11.8615 16.765 11.7299 16.7456 11.5969C16.7456 11.5914 16.7456 11.5872 16.7442 11.5817C16.7373 11.5346 16.7275 11.4861 16.7192 11.4376C16.7192 11.4293 16.7165 11.4224 16.7151 11.4154C16.6929 11.2922 16.6652 11.1702 16.6333 11.0483C16.6305 11.04 16.6291 11.0303 16.6277 11.022C16.6166 10.9818 16.6069 10.9389 16.5944 10.8973C16.5944 10.8973 16.5903 10.8863 16.5889 10.8807C16.5584 10.7782 16.5223 10.6771 16.4863 10.5773C16.4793 10.5579 16.4738 10.5372 16.4655 10.5178C16.4502 10.4762 16.4364 10.4333 16.4197 10.3917C16.3726 10.2739 16.3185 10.159 16.263 10.0467C16.263 10.0467 16.2561 10.0329 16.2533 10.026C16.2422 10.0038 16.2311 9.98302 16.22 9.96224C16.2159 9.95393 16.2103 9.94562 16.2048 9.93592C16.1465 9.8251 16.0869 9.71566 16.0217 9.61176C16.0009 9.5799 15.9774 9.54942 15.9552 9.51756C15.9399 9.494 15.9233 9.47461 15.908 9.45244C15.8554 9.37625 15.8027 9.30006 15.7472 9.22941C15.7444 9.22525 15.7416 9.2211 15.7389 9.21832C15.7167 9.19062 15.6917 9.16568 15.6695 9.13798C15.6127 9.0701 15.5586 9.00083 15.499 8.93849C15.474 8.91217 15.4477 8.89 15.4227 8.86368L15.4199 8.86784ZM3.65151 2.36652C3.65151 2.36652 3.6529 2.36652 3.65567 2.36375C3.68756 2.33882 3.72084 2.31388 3.75412 2.29033C3.88724 2.20305 4.12851 2.09223 4.33235 2.24877C4.76637 2.68238 5.05618 3.19772 5.21703 3.77955C5.36817 4.3226 5.45414 4.88365 5.54982 5.43917C5.6247 5.86862 5.67046 6.30361 5.72731 6.73721C5.73425 6.79124 5.73425 6.84527 5.73841 6.92146C5.21564 6.85497 4.75805 6.66656 4.33928 6.38396C3.7153 5.96143 3.22997 5.41977 2.97621 4.69941C2.93878 4.59135 2.90966 4.48468 2.88886 4.37801C2.8847 4.36 2.8847 4.34199 2.88192 4.32398C2.86667 4.23809 2.85696 4.1522 2.8528 4.06631C2.85142 4.03584 2.8528 4.00536 2.8528 3.97488C2.8528 3.90284 2.85419 3.83219 2.86251 3.76154C2.86667 3.72691 2.87222 3.69228 2.87776 3.65764C2.88747 3.59253 2.89995 3.52881 2.91659 3.46647C2.9263 3.43045 2.93739 3.39443 2.94848 3.3598C2.96789 3.30023 2.99008 3.24205 3.01504 3.18386C3.03029 3.14784 3.04693 3.11321 3.06357 3.07858C3.09131 3.02317 3.1232 2.96914 3.15786 2.9165C3.17866 2.88325 3.19946 2.84861 3.22304 2.81675C3.26048 2.76411 3.30208 2.71562 3.34506 2.66575C3.37141 2.63527 3.39498 2.6048 3.4241 2.57571C3.49343 2.50505 3.56692 2.43579 3.64735 2.37206L3.65012 2.36929L3.65151 2.36652ZM14.2039 12.9102C14.2011 12.9809 14.1942 13.0501 14.1817 13.1166C14.1789 13.1319 14.1775 13.1471 14.1734 13.1623C14.1595 13.2302 14.1387 13.2939 14.1151 13.3563C14.1096 13.3715 14.104 13.3868 14.0971 13.4006C14.0707 13.4616 14.0416 13.5211 14.007 13.5765C14 13.589 13.9917 13.6001 13.9848 13.6126C13.9487 13.6694 13.9085 13.7234 13.8641 13.7746C13.8586 13.7816 13.8517 13.7871 13.8461 13.794C13.8101 13.8342 13.7698 13.873 13.7296 13.909C13.7074 13.9284 13.6866 13.9478 13.6631 13.9672C13.6256 13.9977 13.5882 14.0254 13.548 14.0531C13.5272 14.067 13.5064 14.0822 13.4856 14.096C13.4384 14.1265 13.3885 14.1528 13.3386 14.1792C13.3233 14.1861 13.3095 14.1958 13.2942 14.2027C13.2277 14.2346 13.1583 14.2637 13.089 14.2872C13.0391 14.3038 12.9642 14.2858 12.9157 14.2567C12.2709 13.8827 11.7426 13.3757 11.2572 12.816C10.6263 12.0887 10.1743 11.2561 9.81098 10.3709C9.75551 10.2352 9.73194 10.0869 9.68618 9.91237C11.1297 9.86804 12.4276 10.1687 13.4606 11.209C13.9141 11.6662 14.215 12.2162 14.2039 12.8894C14.2039 12.8964 14.2039 12.9019 14.2039 12.9088V12.9102ZM9.03723 7.77898C9.05387 8.05743 9.0719 8.33449 9.08854 8.61294C9.14677 9.55773 9.35061 10.4665 9.79018 11.3115C10.2797 12.2522 10.8842 13.1069 11.6732 13.8259C12.153 14.2623 12.6688 14.6377 13.2734 14.8829C13.7005 15.0561 14.1401 15.1406 14.6018 15.1046C14.6476 15.1004 14.6947 15.1018 14.7765 15.099C14.269 15.5562 13.7518 15.9344 13.1805 16.2322C12.0421 16.8279 10.948 16.6617 9.90249 16.0022C8.83894 15.3318 8.15532 14.3329 7.58819 13.2413C6.88793 11.8906 6.52463 10.4485 6.37765 8.94265C6.37765 8.93572 6.37626 8.92879 6.37488 8.92187C6.37488 8.91771 6.37488 8.91217 6.37349 8.90801C6.29029 8.04634 6.17936 7.18744 6.06427 6.32993C5.96166 5.568 5.85488 4.80469 5.71067 4.0483C5.55676 3.23928 5.18375 2.52722 4.60552 1.93707C4.01758 1.33723 3.31594 1.00059 2.44236 1.11281C3.04832 0.737383 3.70698 0.517117 4.40723 0.429842C5.17543 0.334255 5.93392 0.385512 6.60506 0.805265C7.63117 1.44805 8.30231 2.36652 8.60598 3.54405C8.82369 4.38494 8.88054 5.24799 8.93462 6.10966C8.96928 6.66379 9.00256 7.21792 9.03723 7.77343V7.78036V7.77898Z" fill="white"/>
</svg>
