<svg width="50" height="67" viewBox="0 0 50 67" fill="none" xmlns="http://www.w3.org/2000/svg">
<path d="M0.000284372 0V35.8244C-0.0091411 37.1804 0.161863 49.2913 8.96795 56.6604L9.05682 56.7371C9.34093 56.9887 16.1098 62.956 24.726 66.693L24.9993 66.8114L25.2727 66.693C33.5442 63.1013 40.1582 57.4245 40.9055 56.7694L40.9876 56.6994C49.826 49.3021 50.0091 37.1952 49.9997 35.8419V0H0.000284372ZM24.2884 64.9859C16.3481 61.3256 10.235 55.9475 9.96166 55.7053L9.85798 55.6152C1.52586 48.6429 1.36428 37.1239 1.37236 35.8284V1.37077H24.2884V64.9859ZM25.6618 1.37077H37.8503L25.6618 13.5477V1.37077ZM25.6618 29.5476L48.6277 6.60366V19.8607L25.6618 42.8061V29.5476ZM48.629 35.8459C48.6371 37.136 48.4647 48.6524 40.1124 55.6434L39.9831 55.7564C39.3005 56.3537 33.3005 61.4951 25.6632 65.0088V58.1213L48.6303 35.176V35.8459H48.629Z" fill="white"/>
<path d="M19.7777 12.783C19.7535 12.7588 19.7279 12.7359 19.7037 12.7103C19.6188 12.6242 19.5327 12.5368 19.4478 12.4601C19.4209 12.4373 19.394 12.4171 19.3684 12.3942C19.2755 12.3121 19.1826 12.2314 19.0883 12.1588C19.0802 12.1534 19.0735 12.1467 19.0668 12.1413C19.0574 12.1332 19.0479 12.1265 19.0385 12.1198C19.0304 12.1144 19.0237 12.109 19.0156 12.1036C18.9146 12.027 18.8136 11.957 18.71 11.8897C18.6871 11.8763 18.6655 11.8575 18.6426 11.8427H18.6399C18.6399 11.8427 18.6305 11.8359 18.6265 11.8332C18.5188 11.7646 18.4083 11.7041 18.2966 11.6449C18.2683 11.6301 18.2414 11.6126 18.2131 11.5978C18.0987 11.5386 17.9802 11.4875 17.8617 11.4378C17.8267 11.423 17.793 11.4068 17.7566 11.392C17.6368 11.3436 17.5116 11.3019 17.3864 11.2602C17.3554 11.2508 17.3271 11.2387 17.2961 11.2292C17.2934 11.2292 17.2908 11.2279 17.2881 11.2266C17.2827 11.2252 17.2773 11.2239 17.2719 11.2225C17.144 11.1835 17.0107 11.1485 16.876 11.1163C16.8464 11.1095 16.8195 11.1015 16.7885 11.0934C16.7845 11.0934 16.7791 11.0907 16.775 11.0893C16.7683 11.088 16.7616 11.0867 16.7562 11.0853C16.6215 11.053 16.4788 11.0261 16.3361 11.0006C16.2984 10.9952 16.2647 10.9858 16.227 10.979C16.223 10.979 16.2176 10.979 16.2136 10.9777C16.0654 10.9521 15.916 10.932 15.7665 10.9131C15.7248 10.9091 15.6844 10.9024 15.644 10.897C15.4851 10.8781 15.3262 10.862 15.1673 10.8472C15.1323 10.8445 15.0973 10.8405 15.0623 10.8378C14.894 10.8216 14.7243 10.8082 14.556 10.7934C14.5277 10.7921 14.4995 10.7894 14.4725 10.7867C14.2908 10.7705 14.1103 10.7544 13.9286 10.7369C13.872 10.0576 13.8235 9.32308 13.7454 8.59128C13.6027 7.24607 13.1462 6.04614 12.1041 5.12063C11.5897 4.66326 11.0255 4.30947 10.3321 4.22068C9.80424 4.15342 9.2993 4.15611 8.81725 4.22606C8.80783 4.22606 8.79975 4.22741 8.79032 4.22875C8.70953 4.24086 8.63009 4.25566 8.55065 4.2718C8.53314 4.27584 8.51429 4.27853 8.49679 4.28122C8.42408 4.29602 8.35271 4.31485 8.28 4.33368C8.25577 4.34041 8.23153 4.34444 8.20864 4.35117C8.14266 4.37 8.07668 4.39018 8.0107 4.4117C7.98243 4.42112 7.95415 4.42919 7.92587 4.43861C7.86393 4.46013 7.80469 4.483 7.7441 4.50721C7.71313 4.51932 7.68081 4.53008 7.64984 4.54353C7.59329 4.56775 7.53674 4.59331 7.48018 4.61887C7.44652 4.63501 7.41286 4.64981 7.3792 4.66595C7.32668 4.69151 7.27417 4.71976 7.22166 4.74801C7.18665 4.76684 7.15029 4.78567 7.11528 4.80585C7.06546 4.8341 7.01699 4.8637 6.96851 4.89329C6.93081 4.91616 6.89446 4.93768 6.8581 4.9619C6.81232 4.99149 6.76654 5.02378 6.72076 5.05606C6.68306 5.08297 6.64401 5.10852 6.60631 5.13677C6.56322 5.16906 6.52013 5.20269 6.47704 5.23497C6.438 5.26591 6.39895 5.29551 6.3599 5.32779C6.3195 5.36143 6.27911 5.3964 6.23871 5.43138C6.19967 5.46501 6.15927 5.49998 6.12022 5.5363C6.08117 5.57128 6.04347 5.6076 6.00577 5.64527C5.98019 5.66948 5.95326 5.69369 5.92902 5.71925C5.90074 5.7475 5.87381 5.77441 5.84554 5.804C5.8415 5.80938 5.83746 5.81476 5.83207 5.8188C5.75128 5.90355 5.67588 5.98829 5.60451 6.07708C5.54931 6.14434 5.50083 6.21429 5.45101 6.28424C5.43486 6.30711 5.41735 6.32863 5.40254 6.3515C5.34195 6.44029 5.28809 6.53176 5.23692 6.62458C5.23692 6.62593 5.23557 6.62727 5.23423 6.62862C4.90299 7.22455 4.75353 7.89177 4.81951 8.62088C5.0161 10.7813 6.13234 12.3148 8.08745 13.2403C8.92632 13.6385 9.8177 13.8538 10.7522 13.9385C10.8747 14.8923 11.1777 15.7882 11.5614 16.6572C12.1283 17.9432 12.8662 19.1082 14.0484 19.9247C15.3397 20.8179 16.6794 20.9605 18.0636 20.1265C18.0758 20.1184 18.0879 20.1104 18.1013 20.1023C18.2266 20.0256 18.3518 19.9462 18.4743 19.8628C18.5215 19.8319 18.5672 19.7983 18.613 19.766C18.7046 19.7014 18.7948 19.6368 18.8837 19.5696C18.9308 19.5333 18.9779 19.4969 19.025 19.4606C19.1166 19.388 19.2068 19.314 19.2957 19.2387C19.3334 19.2064 19.3711 19.1754 19.4074 19.1431C19.53 19.0355 19.6498 18.9239 19.7643 18.8095C19.767 18.8068 19.771 18.8028 19.775 18.8001C19.8585 18.7167 19.9393 18.6306 20.0188 18.5432C20.0416 18.5176 20.0645 18.4921 20.0874 18.4665C20.148 18.3979 20.2073 18.3279 20.2652 18.2566C20.2894 18.2271 20.3136 18.1975 20.3365 18.1679C20.4065 18.0777 20.4752 17.9876 20.5385 17.8948C20.5425 17.8894 20.5466 17.884 20.5506 17.8786C20.6031 17.802 20.6516 17.728 20.696 17.6553C20.7028 17.6432 20.7109 17.6325 20.7176 17.6204C20.7607 17.5491 20.7997 17.4778 20.8361 17.4092C20.8401 17.4024 20.8428 17.3957 20.8455 17.389C20.8778 17.3244 20.9061 17.2612 20.9317 17.198C20.9357 17.1872 20.9411 17.1778 20.9451 17.167C20.9721 17.1011 20.9936 17.0338 21.0138 16.9666C21.0179 16.9545 21.0205 16.9424 21.0246 16.9303C21.0434 16.8644 21.0596 16.7971 21.0717 16.7285C21.0717 16.7258 21.0717 16.7231 21.0731 16.7204C21.0731 16.7164 21.0744 16.7137 21.0758 16.711C21.0865 16.6532 21.0933 16.594 21.1 16.5321C21.1 16.5321 21.1 16.524 21.1 16.52C21.1067 16.4594 21.1108 16.3962 21.1135 16.3316C21.1135 16.3101 21.1162 16.2899 21.1175 16.2671C21.1188 16.2052 21.1188 16.1393 21.1175 16.072C21.1175 16.0532 21.1175 16.0357 21.1175 16.0155C21.1175 15.99 21.1175 15.9657 21.1175 15.9388C21.1175 15.9146 21.1121 15.8904 21.1108 15.8662C21.1108 15.8501 21.1067 15.8339 21.1054 15.8178C21.0973 15.69 21.0838 15.5622 21.065 15.433C21.065 15.4277 21.065 15.4236 21.0636 15.4182C21.0569 15.3725 21.0475 15.3254 21.0394 15.2783C21.0394 15.2703 21.0367 15.2635 21.0354 15.2568C21.0138 15.1371 20.9869 15.0187 20.9559 14.9003C20.9532 14.8923 20.9519 14.8828 20.9505 14.8748C20.9398 14.8358 20.9303 14.7941 20.9182 14.7537C20.9182 14.7537 20.9142 14.7429 20.9128 14.7376C20.8832 14.638 20.8482 14.5398 20.8132 14.443C20.8065 14.4241 20.8011 14.404 20.793 14.3851C20.7782 14.3448 20.7647 14.3031 20.7486 14.2627C20.7028 14.1484 20.6503 14.0367 20.5964 13.9277C20.5964 13.9277 20.5897 13.9143 20.587 13.9076C20.5762 13.886 20.5654 13.8659 20.5547 13.8457C20.5506 13.8376 20.5452 13.8295 20.5398 13.8201C20.4833 13.7125 20.4254 13.6062 20.3621 13.5054C20.3419 13.4744 20.319 13.4448 20.2975 13.4139C20.2827 13.391 20.2665 13.3722 20.2517 13.3507C20.2005 13.2767 20.1494 13.2027 20.0955 13.1341C20.0928 13.13 20.0901 13.126 20.0874 13.1233C20.0659 13.0964 20.0416 13.0722 20.0201 13.0453C19.9649 12.9794 19.9124 12.9121 19.8545 12.8516C19.8302 12.826 19.8047 12.8045 19.7804 12.7789L19.7777 12.783ZM8.35002 6.46988C8.35002 6.46988 8.35137 6.46988 8.35406 6.46719C8.38503 6.44298 8.41734 6.41876 8.44966 6.39589C8.57892 6.31115 8.81321 6.20353 9.01115 6.35554C9.4326 6.77659 9.71402 7.27701 9.87021 7.842C10.017 8.36932 10.1005 8.91413 10.1934 9.45357C10.2661 9.87058 10.3105 10.293 10.3657 10.714C10.3725 10.7665 10.3725 10.819 10.3765 10.8929C9.86887 10.8284 9.42452 10.6454 9.01788 10.371C8.41196 9.96071 7.94069 9.43473 7.69428 8.73522C7.65792 8.6303 7.62964 8.52671 7.60945 8.42313C7.60541 8.40564 7.60541 8.38816 7.60271 8.37067C7.5879 8.28727 7.57848 8.20386 7.57444 8.12046C7.57309 8.09086 7.57444 8.06127 7.57444 8.03167C7.57444 7.96172 7.57578 7.89312 7.58386 7.82451C7.5879 7.79088 7.59329 7.75725 7.59868 7.72362C7.6081 7.6604 7.62022 7.59852 7.63638 7.53798C7.6458 7.50301 7.65657 7.46803 7.66735 7.4344C7.6862 7.37656 7.70774 7.32006 7.73198 7.26356C7.74679 7.22858 7.76295 7.19495 7.77911 7.16132C7.80604 7.10751 7.83701 7.05505 7.87067 7.00393C7.89086 6.97165 7.91106 6.93802 7.93395 6.90708C7.97031 6.85596 8.0107 6.80888 8.05244 6.76045C8.07803 6.73085 8.10092 6.70126 8.12919 6.67301C8.19652 6.6044 8.26788 6.53714 8.34598 6.47526L8.34867 6.47257L8.35002 6.46988ZM18.5969 16.7083C18.5942 16.7769 18.5874 16.8442 18.5753 16.9087C18.5726 16.9235 18.5713 16.9383 18.5672 16.9531C18.5538 17.019 18.5336 17.0809 18.5107 17.1415C18.5053 17.1563 18.4999 17.1711 18.4932 17.1845C18.4676 17.2437 18.4393 17.3015 18.4057 17.3554C18.3989 17.3675 18.3908 17.3782 18.3841 17.3903C18.3491 17.4455 18.3101 17.4979 18.267 17.5477C18.2616 17.5544 18.2548 17.5598 18.2495 17.5666C18.2145 17.6056 18.1754 17.6432 18.1364 17.6782C18.1148 17.697 18.0946 17.7159 18.0717 17.7347C18.0354 17.7643 17.999 17.7912 17.96 17.8181C17.9398 17.8316 17.9196 17.8464 17.8994 17.8598C17.8536 17.8894 17.8051 17.915 17.7566 17.9405C17.7418 17.9472 17.7284 17.9567 17.7136 17.9634C17.6489 17.9943 17.5816 18.0226 17.5143 18.0454C17.4658 18.0616 17.3931 18.0441 17.346 18.0159C16.7198 17.6526 16.2068 17.1603 15.7356 16.6168C15.1229 15.9106 14.6839 15.1021 14.3312 14.2425C14.2773 14.1107 14.2544 13.9668 14.21 13.7973C15.6117 13.7542 16.872 14.0461 17.8751 15.0564C18.3154 15.5003 18.6076 16.0344 18.5969 16.6881C18.5969 16.6949 18.5969 16.7002 18.5969 16.707V16.7083ZM13.5798 11.7256C13.596 11.996 13.6135 12.2651 13.6296 12.5355C13.6862 13.4529 13.8841 14.3353 14.311 15.1559C14.7863 16.0693 15.3733 16.8993 16.1395 17.5975C16.6054 18.0212 17.1063 18.3858 17.6934 18.6239C18.1081 18.792 18.5349 18.8741 18.9833 18.8391C19.0277 18.8351 19.0735 18.8364 19.153 18.8337C18.6601 19.2777 18.1579 19.6449 17.6031 19.9341C16.4977 20.5126 15.4353 20.3511 14.42 19.7108C13.3873 19.0597 12.7234 18.0898 12.1727 17.0298C11.4927 15.7182 11.14 14.3179 10.9972 12.8556C10.9972 12.8489 10.9959 12.8422 10.9945 12.8354C10.9945 12.8314 10.9945 12.826 10.9932 12.822C10.9124 11.9853 10.8047 11.1512 10.6929 10.3185C10.5933 9.57867 10.4896 8.83746 10.3496 8.10297C10.2001 7.31737 9.8379 6.62593 9.27641 6.05286C8.70549 5.47039 8.02417 5.1435 7.17588 5.25246C7.76429 4.88791 8.40388 4.67402 9.08386 4.58927C9.82982 4.49645 10.5664 4.54623 11.2181 4.95383C12.2145 5.578 12.8662 6.46988 13.1611 7.61331C13.3725 8.42986 13.4277 9.26793 13.4802 10.1046C13.5138 10.6427 13.5461 11.1808 13.5798 11.7203V11.727V11.7256Z" fill="white"/>
<path d="M9.94437 5.47084C9.88647 5.54348 9.82319 5.60267 9.75317 5.64841C9.71008 5.67666 9.66969 5.69549 9.62929 5.70356C9.5889 5.71163 9.54985 5.71298 9.5135 5.70625C9.47579 5.69953 9.44213 5.68473 9.41116 5.66051C9.37615 5.63227 9.35192 5.59863 9.33845 5.55828C9.32499 5.51792 9.3196 5.47218 9.32499 5.42241C9.32903 5.38609 9.34114 5.34304 9.36134 5.29327C9.38962 5.22736 9.42732 5.16413 9.4731 5.10629C9.53639 5.02826 9.60506 4.96504 9.67911 4.91661C9.74105 4.87625 9.80165 4.85742 9.86224 4.85742C9.92283 4.85742 9.97265 4.87491 10.0144 4.90719C10.0561 4.94082 10.0844 4.98656 10.0979 5.04441C10.1113 5.10225 10.1073 5.16144 10.0858 5.22332C10.0561 5.30807 10.0104 5.39013 9.94707 5.46949L9.94437 5.47084ZM9.78145 5.33901C9.88244 5.21256 9.94033 5.13857 9.95649 5.11705C9.99285 5.06458 10.0104 5.02423 10.0104 4.99598C10.0104 4.97715 10.0009 4.95966 9.98073 4.94486C9.96592 4.93275 9.94976 4.92737 9.9336 4.92872C9.91071 4.93006 9.88378 4.94486 9.85416 4.97311C9.82454 5.00136 9.73432 5.10898 9.58486 5.29596C9.50272 5.3982 9.45156 5.46949 9.43136 5.50985C9.41655 5.53945 9.41116 5.56231 9.41385 5.57846C9.41655 5.5946 9.42732 5.6094 9.44348 5.62285C9.46098 5.63765 9.47849 5.64168 9.49734 5.63765C9.52831 5.62957 9.56197 5.60536 9.59698 5.56635L9.78279 5.33901H9.78145Z" fill="white"/>
<path d="M10.6796 5.56086L10.1074 6.0559C10.0643 6.09356 10.0387 6.11912 10.0306 6.13258C10.0225 6.14603 10.0185 6.16352 10.0225 6.181C10.0252 6.19984 10.0387 6.2227 10.0616 6.24826L10.075 6.26441L10.0562 6.28055L9.73708 5.9133L9.75593 5.89716L9.77208 5.916C9.79767 5.94559 9.82056 5.96442 9.83806 5.97115C9.85557 5.97788 9.87307 5.97788 9.88923 5.97115C9.90539 5.96577 9.93501 5.9429 9.97945 5.90523L10.3417 5.5918C10.374 5.56355 10.3928 5.54472 10.3982 5.5353C10.4036 5.52588 10.4049 5.51378 10.4036 5.50032C10.4022 5.48687 10.3969 5.47477 10.3874 5.464C10.3726 5.44652 10.3484 5.43037 10.3161 5.41423L10.3268 5.38867L10.6675 5.54337L10.6823 5.56086H10.6796Z" fill="white"/>
<path d="M10.8331 6.65309C10.7536 6.70017 10.6729 6.7338 10.5921 6.75264C10.5422 6.76474 10.4965 6.76744 10.4561 6.76071C10.4157 6.75398 10.3793 6.74188 10.3457 6.72304C10.3133 6.70421 10.2864 6.67731 10.2662 6.64368C10.2433 6.60601 10.2325 6.56565 10.2339 6.52261C10.2339 6.47956 10.246 6.43651 10.2689 6.39078C10.2851 6.35714 10.312 6.32217 10.3483 6.28181C10.3982 6.22935 10.4547 6.18361 10.518 6.14595C10.6042 6.09483 10.6904 6.05851 10.7779 6.03967C10.8492 6.02353 10.9139 6.02622 10.9691 6.04775C11.0256 6.06927 11.0674 6.1029 11.0943 6.14729C11.1226 6.19303 11.132 6.24549 11.1239 6.30468C11.1158 6.36387 11.0916 6.41768 11.0499 6.4688C10.9933 6.53875 10.9206 6.59928 10.8344 6.65175L10.8331 6.65309ZM10.7267 6.47283C10.8654 6.38943 10.9462 6.33966 10.9677 6.32486C11.0202 6.28854 11.0512 6.2576 11.0606 6.23069C11.0674 6.21321 11.0647 6.19437 11.0512 6.17151C11.0418 6.15536 11.0283 6.1446 11.0135 6.14057C10.9906 6.13384 10.961 6.13922 10.9233 6.15536C10.8856 6.17151 10.7644 6.24011 10.5571 6.36387C10.4453 6.43113 10.3712 6.4809 10.3376 6.5105C10.3133 6.53337 10.2999 6.5522 10.2972 6.56834C10.2945 6.58449 10.2972 6.60197 10.3093 6.61946C10.3214 6.63829 10.3362 6.64906 10.3537 6.65175C10.386 6.65444 10.4251 6.64368 10.4722 6.61946L10.7254 6.47149L10.7267 6.47283Z" fill="white"/>
<path d="M11.1186 7.33097C11.0324 7.36594 10.9476 7.38612 10.8641 7.3915C10.8129 7.39554 10.7672 7.3915 10.7281 7.3794C10.6891 7.36729 10.6554 7.34846 10.6258 7.32424C10.5962 7.30003 10.5746 7.27043 10.5598 7.23411C10.5436 7.19241 10.5383 7.15071 10.5463 7.10901C10.5544 7.06731 10.5719 7.0256 10.6015 6.9839C10.6231 6.95431 10.654 6.92202 10.6958 6.88974C10.7523 6.84535 10.8156 6.81037 10.8843 6.78212C10.9772 6.74446 11.0688 6.72293 11.1563 6.71755C11.229 6.71352 11.2923 6.72562 11.3448 6.75522C11.3973 6.78481 11.4323 6.82517 11.4525 6.8736C11.4727 6.92337 11.4741 6.97718 11.4579 7.03368C11.4417 7.09018 11.4081 7.14129 11.3596 7.18434C11.2923 7.24487 11.2115 7.2933 11.1186 7.33097ZM11.0418 7.13591C11.1926 7.07538 11.2788 7.03906 11.3031 7.02695C11.3596 6.9987 11.396 6.97314 11.4094 6.94893C11.4189 6.93279 11.4189 6.91261 11.4094 6.88974C11.4027 6.87091 11.3906 6.8588 11.3771 6.85342C11.3556 6.844 11.326 6.844 11.2869 6.85342C11.2479 6.86283 11.1159 6.91261 10.8924 7.00274C10.7712 7.05116 10.6918 7.08883 10.6527 7.11439C10.6258 7.13322 10.6083 7.14936 10.6042 7.16551C10.5988 7.18165 10.6002 7.19914 10.6083 7.21797C10.6163 7.23949 10.6298 7.2516 10.6473 7.25698C10.6783 7.26505 10.7187 7.26102 10.7685 7.24353L11.0418 7.13591Z" fill="white"/>
<path d="M11.3044 8.03641C11.2155 8.05928 11.128 8.06735 11.0445 8.06197C10.9933 8.05928 10.9489 8.04852 10.9125 8.03103C10.8762 8.01354 10.8439 7.99067 10.8183 7.96242C10.7927 7.93417 10.7739 7.90189 10.7644 7.86422C10.7537 7.82118 10.755 7.77947 10.7685 7.73912C10.7819 7.69876 10.8048 7.65975 10.8398 7.62208C10.8654 7.59518 10.9004 7.56828 10.9462 7.54137C11.0095 7.50505 11.0755 7.47815 11.1482 7.46066C11.2451 7.43645 11.338 7.42703 11.4269 7.43375C11.4996 7.43914 11.5602 7.46066 11.6073 7.49698C11.6545 7.5333 11.6854 7.57769 11.6976 7.62881C11.711 7.68127 11.7056 7.73374 11.6814 7.78755C11.6572 7.84135 11.6181 7.88709 11.5629 7.92341C11.4875 7.97319 11.4013 8.01085 11.303 8.03641H11.3044ZM11.2546 7.83194C11.4121 7.79293 11.5023 7.76871 11.5279 7.76064C11.5885 7.74046 11.6275 7.72029 11.6437 7.69742C11.6545 7.68262 11.6572 7.66379 11.6518 7.63823C11.6464 7.61939 11.6383 7.60594 11.6248 7.59787C11.6046 7.58576 11.575 7.58173 11.5346 7.58576C11.4942 7.5898 11.3569 7.62074 11.1239 7.67993C10.9974 7.71221 10.9125 7.73777 10.8721 7.75795C10.8425 7.77275 10.8237 7.78755 10.8169 7.80234C10.8089 7.81714 10.8089 7.83463 10.8129 7.85481C10.8183 7.87633 10.8291 7.89113 10.8466 7.8992C10.8762 7.91131 10.9166 7.91265 10.9691 7.90189L11.2546 7.83328V7.83194Z" fill="white"/>
<path d="M11.4067 8.75602C11.3151 8.76813 11.2276 8.76678 11.1455 8.75198C11.0943 8.74257 11.0526 8.72777 11.0176 8.70625C10.9825 8.68472 10.9543 8.65782 10.9314 8.62822C10.9085 8.59728 10.895 8.56365 10.8896 8.52464C10.8842 8.48025 10.8896 8.43855 10.9071 8.40088C10.9246 8.36187 10.9529 8.3269 10.9906 8.29327C11.0189 8.26905 11.0566 8.24618 11.1064 8.22466C11.1724 8.19641 11.2424 8.17758 11.3165 8.16682C11.4161 8.15336 11.509 8.15605 11.5965 8.1722C11.6679 8.18565 11.7258 8.2139 11.7689 8.2556C11.812 8.2973 11.8362 8.34438 11.8443 8.39685C11.851 8.45066 11.8403 8.50177 11.8093 8.55289C11.7797 8.60401 11.7352 8.64437 11.676 8.67396C11.5952 8.71566 11.505 8.74257 11.4053 8.75602H11.4067ZM11.3798 8.54751C11.54 8.52599 11.6342 8.51254 11.6598 8.50716C11.7218 8.4937 11.7622 8.47756 11.7824 8.45738C11.7958 8.44393 11.7999 8.4251 11.7972 8.39954C11.7945 8.38071 11.7877 8.36591 11.7743 8.35515C11.7568 8.34035 11.7272 8.33362 11.6868 8.33228C11.6464 8.33228 11.5063 8.34707 11.268 8.37936C11.1387 8.39685 11.0512 8.41299 11.0081 8.42779C10.9772 8.43855 10.957 8.45066 10.9475 8.46545C10.9381 8.47891 10.9354 8.49639 10.9381 8.51792C10.9408 8.54079 10.9502 8.55693 10.9664 8.565C10.9947 8.58114 11.0351 8.58652 11.0876 8.58249L11.3784 8.54617L11.3798 8.54751Z" fill="white"/>
<path d="M11.9479 9.19642L11.1966 9.28924C11.14 9.29596 11.105 9.30269 11.0889 9.30941C11.074 9.31614 11.0619 9.32825 11.0552 9.34573C11.0471 9.36322 11.0458 9.38878 11.0498 9.42376L11.0525 9.44528L11.0269 9.44797L10.9663 8.96504L10.9919 8.96235L10.9946 8.98656C11 9.02557 11.0081 9.05382 11.0188 9.06862C11.0296 9.08476 11.0431 9.09418 11.0606 9.09822C11.0781 9.10225 11.1144 9.10091 11.1723 9.09283L11.6477 9.03364C11.6894 9.02826 11.7163 9.02288 11.7271 9.0175C11.7379 9.01212 11.7459 9.00405 11.7513 8.99194C11.7567 8.97984 11.7594 8.96638 11.7581 8.95293C11.7554 8.93006 11.7446 8.90316 11.7257 8.87222L11.7486 8.85742L11.9452 9.17624L11.9479 9.19911V9.19642Z" fill="white"/>
<path d="M12.022 9.82411L11.2707 9.9102C11.2141 9.91693 11.1791 9.92365 11.1629 9.93038C11.1468 9.9371 11.136 9.94921 11.1279 9.96535C11.1199 9.98284 11.1172 10.0084 11.1212 10.0434L11.1239 10.0649L11.0983 10.0676L11.0431 9.58466L11.0687 9.58197L11.0714 9.60618C11.0754 9.64519 11.0835 9.67344 11.0943 9.68824C11.105 9.70438 11.1185 9.7138 11.136 9.71783C11.1535 9.72187 11.1899 9.72052 11.2478 9.7138L11.7244 9.65865C11.7675 9.65326 11.7931 9.64923 11.8039 9.64385C11.8146 9.63847 11.8227 9.6304 11.8281 9.61829C11.8348 9.60618 11.8362 9.59273 11.8348 9.57928C11.8322 9.55641 11.8214 9.5295 11.8039 9.49722L11.8268 9.48242L12.0207 9.80258L12.0234 9.82545L12.022 9.82411Z" fill="white"/>
<path d="M11.6719 11.1154C11.5804 11.1248 11.4929 11.1194 11.4107 11.1019C11.3609 11.0911 11.3178 11.075 11.2842 11.0521C11.2505 11.0293 11.2222 11.0024 11.2007 10.9701C11.1791 10.9391 11.167 10.9042 11.163 10.8651C11.1589 10.8208 11.1657 10.7791 11.1859 10.7414C11.2047 10.7037 11.2343 10.6687 11.2734 10.6365C11.3017 10.6136 11.3421 10.5921 11.3905 10.5719C11.4579 10.545 11.5279 10.5288 11.6019 10.5221C11.7016 10.5127 11.7958 10.5181 11.882 10.5369C11.9534 10.5531 12.0099 10.5827 12.0517 10.627C12.0934 10.6701 12.1163 10.7185 12.1217 10.771C12.1271 10.8248 12.1136 10.8759 12.0813 10.9257C12.049 10.9755 12.0032 11.0145 11.9439 11.0427C11.8618 11.0817 11.7716 11.1059 11.6706 11.1154H11.6719ZM11.6531 10.9068C11.8147 10.8907 11.9076 10.8813 11.9345 10.8773C11.9964 10.8665 12.0382 10.8517 12.0584 10.8329C12.0719 10.8208 12.0772 10.8006 12.0745 10.7764C12.0732 10.7575 12.0651 10.7427 12.0543 10.732C12.0368 10.7172 12.0072 10.7078 11.9668 10.7064C11.9264 10.7051 11.7864 10.7145 11.5467 10.7387C11.4161 10.7508 11.3299 10.7643 11.2855 10.7777C11.2545 10.7871 11.233 10.7992 11.2236 10.8127C11.2141 10.8261 11.2101 10.8436 11.2128 10.8651C11.2155 10.888 11.2236 10.9042 11.2397 10.9136C11.2666 10.9297 11.307 10.9364 11.3609 10.9351L11.6531 10.9095V10.9068Z" fill="white"/>
<path d="M12.1958 11.5802L11.4418 11.6434C11.3852 11.6488 11.3489 11.6542 11.3341 11.6596C11.3192 11.6663 11.3071 11.6771 11.2977 11.6946C11.2896 11.7107 11.2856 11.7376 11.2896 11.7712V11.7928L11.2667 11.7955L11.2263 11.3098L11.2519 11.3071V11.3314C11.2573 11.3704 11.264 11.3986 11.2748 11.4148C11.2856 11.4309 11.299 11.4417 11.3152 11.4457C11.3314 11.4497 11.3691 11.4497 11.427 11.4457L11.905 11.4053C11.9481 11.4013 11.9736 11.3973 11.9844 11.3919C11.9952 11.3865 12.0033 11.3784 12.01 11.3663C12.0167 11.3542 12.0194 11.3421 12.0181 11.3273C12.0167 11.3045 12.006 11.2762 11.9898 11.2453L12.0127 11.2305L12.1958 11.556V11.5789V11.5802Z" fill="white"/>
<path d="M11.7797 12.515C11.6881 12.5218 11.6006 12.515 11.5185 12.4935C11.4686 12.4814 11.4269 12.4639 11.3932 12.4397C11.3596 12.4155 11.3326 12.3872 11.3124 12.3563C11.2922 12.324 11.2801 12.289 11.2774 12.25C11.2747 12.2056 11.2828 12.1653 11.303 12.1276C11.3232 12.0899 11.3542 12.0563 11.3932 12.0254C11.4229 12.0039 11.4633 11.9837 11.5131 11.9648C11.5817 11.9406 11.6518 11.9258 11.7258 11.9205C11.8255 11.9137 11.9197 11.9205 12.0045 11.9433C12.0759 11.9622 12.1311 11.9931 12.1715 12.0375C12.2119 12.0819 12.2334 12.1303 12.2375 12.1828C12.2415 12.2366 12.2267 12.2877 12.1931 12.3361C12.1594 12.3845 12.1123 12.4222 12.053 12.4491C11.9695 12.4854 11.878 12.507 11.777 12.5137L11.7797 12.515ZM11.7662 12.3052C11.9278 12.2944 12.022 12.2863 12.049 12.2837C12.1123 12.2742 12.154 12.2608 12.1742 12.242C12.1877 12.2298 12.1944 12.211 12.1917 12.1855C12.1917 12.1666 12.1836 12.1505 12.1729 12.1397C12.1553 12.1236 12.1271 12.1142 12.0867 12.1115C12.0463 12.1088 11.9062 12.1155 11.6652 12.1316C11.5346 12.1411 11.4471 12.1505 11.404 12.1626C11.3717 12.172 11.3515 12.1828 11.3407 12.1962C11.3313 12.2097 11.3259 12.2272 11.3273 12.2473C11.3286 12.2702 11.3367 12.2863 11.3528 12.2971C11.3798 12.3146 11.4202 12.3227 11.4727 12.3213L11.7662 12.3038V12.3052Z" fill="white"/>
<path d="M11.8147 13.219C11.7232 13.223 11.6357 13.215 11.5549 13.1921C11.505 13.1786 11.4633 13.1598 11.431 13.1356C11.3987 13.1114 11.3717 13.0831 11.3515 13.0508C11.3314 13.0186 11.3206 12.9836 11.3192 12.9432C11.3179 12.8988 11.3273 12.8585 11.3475 12.8208C11.3691 12.7845 11.4 12.7509 11.4404 12.7213C11.47 12.6997 11.5104 12.6809 11.5616 12.6634C11.6303 12.6405 11.7016 12.6271 11.7757 12.6244C11.8767 12.619 11.9696 12.6298 12.0544 12.654C12.1244 12.6742 12.1796 12.7065 12.2187 12.7522C12.2577 12.7979 12.2793 12.8464 12.282 12.8988C12.2847 12.9526 12.2685 13.0038 12.2335 13.0522C12.1985 13.1006 12.1514 13.1369 12.0908 13.1611C12.0073 13.1948 11.9144 13.215 11.8147 13.2203V13.219ZM11.8067 13.0091C11.9682 13.0011 12.0625 12.9957 12.0894 12.993C12.1527 12.9849 12.1945 12.9728 12.216 12.954C12.2295 12.9419 12.2362 12.923 12.2349 12.8975C12.2349 12.8787 12.2281 12.8625 12.216 12.8517C12.1998 12.8356 12.1702 12.8262 12.1298 12.8222C12.0894 12.8181 11.9494 12.8222 11.7084 12.8329C11.5778 12.8396 11.4902 12.8477 11.4458 12.8585C11.4135 12.8665 11.3933 12.8773 11.3825 12.8908C11.3717 12.9042 11.3677 12.9204 11.3691 12.9419C11.3691 12.9647 11.3785 12.9809 11.3933 12.9916C11.4202 13.0091 11.4593 13.0186 11.5131 13.0186L11.8067 13.0078V13.0091Z" fill="white"/>
<path d="M11.913 13.9286C11.8227 13.9461 11.7352 13.9501 11.6517 13.9407C11.6006 13.9353 11.5575 13.9219 11.5211 13.903C11.4848 13.8842 11.4551 13.8586 11.4309 13.8304C11.4067 13.8008 11.3905 13.7672 11.3824 13.7295C11.3744 13.6864 11.377 13.6447 11.3932 13.6044C11.408 13.5654 11.4349 13.5277 11.47 13.4914C11.4969 13.4658 11.5332 13.4403 11.5804 13.4161C11.645 13.3838 11.7137 13.3596 11.7864 13.3461C11.8847 13.3273 11.9789 13.3232 12.0665 13.334C12.1392 13.3434 12.1984 13.3676 12.2442 13.4066C12.29 13.4456 12.3169 13.4914 12.3277 13.5425C12.3384 13.595 12.3304 13.6474 12.3034 13.7012C12.2765 13.755 12.2348 13.7967 12.1782 13.8304C12.1001 13.8761 12.0126 13.9097 11.913 13.9286ZM11.8739 13.7228C12.0328 13.6918 12.1257 13.673 12.1513 13.6649C12.2119 13.6488 12.2523 13.6299 12.2711 13.6084C12.2832 13.595 12.2873 13.5748 12.2819 13.5506C12.2779 13.5317 12.2698 13.5169 12.2563 13.5089C12.2375 13.4954 12.2078 13.49 12.1674 13.4914C12.127 13.4927 11.9884 13.5169 11.7527 13.564C11.6248 13.5896 11.5386 13.6111 11.4969 13.6286C11.4659 13.642 11.4471 13.6555 11.439 13.6703C11.4309 13.6851 11.4282 13.7026 11.4323 13.7228C11.4363 13.7456 11.4471 13.7604 11.4632 13.7685C11.4915 13.782 11.5319 13.786 11.5858 13.7779L11.8739 13.7241V13.7228Z" fill="white"/>
<path d="M12.088 14.6087C11.9991 14.6315 11.9116 14.6409 11.8281 14.6356C11.7769 14.6329 11.7325 14.6235 11.6962 14.606C11.6598 14.5885 11.6275 14.5656 11.6019 14.5387C11.5763 14.5118 11.5575 14.4782 11.548 14.4405C11.5373 14.3975 11.5373 14.3558 11.5507 14.3154C11.5642 14.2751 11.5871 14.236 11.6207 14.1984C11.6463 14.1715 11.6813 14.1446 11.7271 14.1163C11.7891 14.08 11.8564 14.0531 11.9291 14.0343C12.026 14.0087 12.119 13.9993 12.2078 14.006C12.2805 14.0114 12.3411 14.0316 12.3896 14.0679C12.4381 14.1042 12.4677 14.1486 12.4812 14.1997C12.4946 14.2522 12.4892 14.3046 12.465 14.3585C12.4408 14.4123 12.4017 14.458 12.3479 14.4943C12.2738 14.5454 12.1863 14.5831 12.0893 14.6087H12.088ZM12.0368 14.4055C12.193 14.3652 12.2846 14.341 12.3102 14.3315C12.3707 14.3114 12.4084 14.2898 12.426 14.2683C12.4367 14.2535 12.4394 14.2347 12.4327 14.2091C12.4273 14.1903 12.4192 14.1769 12.4058 14.1688C12.3856 14.1567 12.3559 14.1526 12.3155 14.1567C12.2751 14.1607 12.1378 14.193 11.9049 14.2535C11.7783 14.2858 11.6948 14.3127 11.6531 14.3329C11.6234 14.3477 11.6046 14.3625 11.5979 14.3773C11.5898 14.3921 11.5898 14.4096 11.5952 14.4298C11.6006 14.4513 11.6127 14.4661 11.6288 14.4741C11.6585 14.4863 11.6988 14.4876 11.7514 14.4768L12.0355 14.4055H12.0368Z" fill="white"/>
<path d="M12.698 14.9529L11.9763 15.1803C11.9225 15.1978 11.8888 15.2112 11.8753 15.2206C11.8619 15.23 11.8524 15.2435 11.8484 15.2623C11.843 15.2812 11.847 15.3067 11.8565 15.339L11.8632 15.3592L11.839 15.3673L11.6922 14.9032L11.7164 14.8951L11.7232 14.918C11.7353 14.9556 11.7474 14.9812 11.7622 14.9946C11.777 15.0081 11.7918 15.0148 11.808 15.0162C11.8255 15.0162 11.8619 15.0081 11.9171 14.9906L12.3749 14.8467C12.4153 14.8332 12.4409 14.8238 12.4489 14.8171C12.4584 14.8103 12.4637 14.7996 12.4678 14.7875C12.4718 14.774 12.4718 14.7606 12.4678 14.7471C12.461 14.7256 12.4449 14.7 12.422 14.6731L12.4422 14.6543L12.6926 14.9314L12.6994 14.9529H12.698Z" fill="white"/>
<path d="M12.8986 15.5209L12.189 15.7846C12.1351 15.8047 12.1028 15.8195 12.0893 15.829C12.0759 15.8397 12.0678 15.8532 12.0638 15.872C12.0597 15.8908 12.0638 15.9164 12.0759 15.9487L12.084 15.9689L12.0597 15.9783L11.8901 15.5223L11.9143 15.5128L11.9224 15.5357C11.9358 15.5734 11.9507 15.5976 11.9641 15.6097C11.9776 15.6218 11.9937 15.6285 12.0112 15.6285C12.0287 15.6285 12.0638 15.6178 12.119 15.5976L12.5687 15.4308C12.6091 15.416 12.6333 15.4052 12.6414 15.3971C12.6495 15.3891 12.6562 15.3797 12.6589 15.3662C12.6616 15.3528 12.6616 15.3393 12.6562 15.3258C12.6481 15.3043 12.632 15.2801 12.6064 15.2546L12.6252 15.2344L12.8892 15.4994L12.8972 15.5209H12.8986Z" fill="white"/>
<path d="M12.9579 16.8282C12.8744 16.8685 12.7922 16.8954 12.7088 16.9075C12.6576 16.9156 12.6132 16.9143 12.5728 16.9048C12.5337 16.8954 12.4974 16.8793 12.4664 16.8578C12.4354 16.8362 12.4112 16.808 12.3937 16.773C12.3735 16.7326 12.3668 16.6923 12.3708 16.6492C12.3748 16.6075 12.391 16.5645 12.4166 16.5201C12.4354 16.4892 12.465 16.4542 12.5041 16.4192C12.558 16.3708 12.6185 16.3304 12.6845 16.2981C12.7747 16.2538 12.8636 16.2255 12.9525 16.2147C13.0252 16.2053 13.0885 16.2134 13.1423 16.239C13.1962 16.2645 13.2352 16.3022 13.2581 16.3493C13.2824 16.3977 13.2878 16.4502 13.2756 16.508C13.2635 16.5658 13.2339 16.6183 13.1881 16.6654C13.1248 16.73 13.0481 16.7851 12.9579 16.8295V16.8282ZM12.8663 16.6398C13.0117 16.5685 13.0966 16.5268 13.1194 16.512C13.1747 16.4797 13.2083 16.4515 13.2204 16.4259C13.2285 16.4098 13.2272 16.3896 13.2164 16.3667C13.2083 16.3493 13.1962 16.3372 13.1814 16.3318C13.1598 16.3237 13.1289 16.3264 13.0912 16.3385C13.0521 16.3506 12.9255 16.4098 12.7088 16.5161C12.5916 16.5739 12.5149 16.617 12.4785 16.6439C12.4529 16.664 12.4381 16.6829 12.4327 16.699C12.4287 16.7152 12.4314 16.7326 12.4408 16.7515C12.4516 16.7717 12.465 16.7838 12.4826 16.7878C12.5135 16.7932 12.5539 16.7865 12.6024 16.7649L12.8663 16.6385V16.6398Z" fill="white"/>
<path d="M13.631 17.0263L12.982 17.4164C12.9335 17.446 12.9039 17.4662 12.8931 17.4783C12.8824 17.4904 12.877 17.5065 12.8756 17.5254C12.8756 17.5442 12.8837 17.5684 12.9026 17.598L12.9133 17.6155L12.8918 17.629L12.6413 17.2119L12.6629 17.1985L12.675 17.22C12.6952 17.2536 12.7141 17.2752 12.7302 17.2859C12.7464 17.2953 12.7639 17.2994 12.78 17.2953C12.7962 17.2927 12.8299 17.2752 12.8797 17.2456L13.2904 16.998C13.3267 16.9765 13.3483 16.9604 13.3563 16.951C13.3631 16.9416 13.3671 16.9308 13.3685 16.9173C13.3685 16.9039 13.3658 16.8904 13.3577 16.8783C13.3456 16.8581 13.3254 16.838 13.2957 16.8178L13.3106 16.7949L13.6189 17.0061L13.631 17.025V17.0263Z" fill="white"/>
<path d="M13.7402 18.0112C13.6661 18.0663 13.5894 18.108 13.5099 18.1363C13.4614 18.1538 13.417 18.1618 13.3766 18.1591C13.3362 18.1578 13.2985 18.1484 13.2635 18.1336C13.2285 18.1188 13.2002 18.0946 13.176 18.0636C13.1491 18.0287 13.1342 17.9896 13.1302 17.9466C13.1262 17.9035 13.1329 17.8592 13.1504 17.8121C13.1625 17.7771 13.1854 17.7381 13.2177 17.695C13.2608 17.6372 13.3133 17.5861 13.3712 17.5417C13.4507 17.4812 13.5342 17.4368 13.6176 17.4085C13.6877 17.3843 13.7509 17.3803 13.8088 17.3964C13.8667 17.4112 13.9125 17.4408 13.9435 17.4825C13.9758 17.5255 13.992 17.5767 13.9906 17.6359C13.9906 17.695 13.9704 17.7515 13.9354 17.8067C13.8856 17.882 13.821 17.9506 13.7402 18.0112ZM13.6149 17.843C13.7442 17.7448 13.8183 17.6883 13.8385 17.6695C13.8856 17.6278 13.9139 17.5928 13.9206 17.5659C13.926 17.5484 13.9206 17.5296 13.9044 17.5094C13.8923 17.4933 13.8789 17.4852 13.8627 17.4825C13.8398 17.4785 13.8102 17.4865 13.7752 17.5067C13.7388 17.5269 13.6257 17.6089 13.4345 17.7542C13.3295 17.8336 13.2635 17.8901 13.2325 17.9237C13.211 17.9493 13.1989 17.9695 13.1989 17.9856C13.1989 18.0017 13.2043 18.0192 13.2164 18.0354C13.2299 18.0529 13.246 18.0623 13.2649 18.0623C13.2972 18.0623 13.3349 18.0475 13.378 18.0165L13.6136 17.8417L13.6149 17.843Z" fill="white"/>
<path d="M14.2383 18.5234C14.1737 18.5894 14.1037 18.6405 14.0283 18.6795C13.9825 18.7037 13.9394 18.7171 13.899 18.7212C13.8586 18.7252 13.8195 18.7212 13.7832 18.7118C13.7468 18.7024 13.7145 18.6822 13.6862 18.6553C13.6553 18.6243 13.6337 18.588 13.6243 18.5463C13.6149 18.5046 13.6149 18.4589 13.6243 18.4104C13.6324 18.3741 13.6485 18.3324 13.6741 18.2853C13.7091 18.2221 13.7536 18.1643 13.8061 18.1118C13.8774 18.0405 13.9515 17.9854 14.0309 17.945C14.0969 17.9127 14.1589 17.8993 14.2195 17.906C14.2787 17.9127 14.3272 17.9356 14.3649 17.9719C14.4026 18.0096 14.4255 18.058 14.4322 18.1172C14.4389 18.1764 14.4295 18.2356 14.4012 18.2948C14.3635 18.3768 14.3083 18.4535 14.237 18.5248L14.2383 18.5234ZM14.0902 18.3741C14.2046 18.2598 14.2706 18.1925 14.2881 18.1723C14.3299 18.1239 14.3514 18.0862 14.3554 18.058C14.3581 18.0392 14.3501 18.0217 14.3312 18.0042C14.3177 17.9907 14.3029 17.984 14.2868 17.9827C14.2639 17.9827 14.2356 17.9934 14.2033 18.0176C14.171 18.0419 14.07 18.1387 13.9003 18.3095C13.8074 18.4024 13.7495 18.4683 13.7239 18.5059C13.7064 18.5342 13.697 18.5557 13.6984 18.5719C13.6984 18.588 13.7078 18.6042 13.7226 18.6189C13.7388 18.6351 13.7563 18.6418 13.7738 18.6391C13.8047 18.6351 13.8411 18.6149 13.8801 18.5786L14.0888 18.3728L14.0902 18.3741Z" fill="white"/>
<path d="M14.8227 18.9361C14.7702 19.0128 14.711 19.076 14.645 19.1271C14.6046 19.1594 14.5642 19.1796 14.5252 19.1917C14.4861 19.2025 14.4471 19.2065 14.4094 19.2025C14.3717 19.1984 14.3367 19.1863 14.3043 19.1635C14.268 19.1379 14.2411 19.1056 14.2236 19.0666C14.2074 19.0276 14.1993 18.9832 14.2007 18.9321C14.2007 18.8958 14.2101 18.8514 14.2276 18.8003C14.2505 18.7317 14.2841 18.6671 14.3259 18.6065C14.3824 18.5231 14.4471 18.4559 14.5171 18.4021C14.575 18.3577 14.6342 18.3335 14.6948 18.3308C14.7554 18.3267 14.8066 18.3402 14.8497 18.3698C14.8941 18.4007 14.9251 18.4438 14.9426 18.5003C14.9601 18.5568 14.9601 18.6173 14.9426 18.6805C14.9197 18.768 14.8793 18.8527 14.8227 18.9361ZM14.6504 18.8164C14.742 18.6832 14.7945 18.6052 14.8079 18.5823C14.8402 18.5272 14.8551 18.4868 14.8537 18.4586C14.8537 18.4397 14.8416 18.4236 14.82 18.4088C14.8039 18.398 14.7877 18.394 14.7729 18.3967C14.75 18.4007 14.7244 18.4169 14.6975 18.4465C14.6706 18.4761 14.5885 18.5904 14.4511 18.7882C14.3771 18.8958 14.3313 18.9711 14.3138 19.0128C14.3016 19.0437 14.2976 19.0666 14.3016 19.0828C14.3057 19.0989 14.3165 19.1123 14.334 19.1245C14.3528 19.1379 14.3703 19.1406 14.3892 19.1352C14.4188 19.1245 14.4511 19.0989 14.4834 19.0572L14.6517 18.8177L14.6504 18.8164Z" fill="white"/>
<path d="M15.4906 19.2184C15.4569 19.3045 15.4125 19.3798 15.3586 19.4444C15.3263 19.4848 15.2926 19.5143 15.2563 19.5332C15.2199 19.5534 15.1836 19.5655 15.1459 19.5695C15.1082 19.5749 15.0718 19.5695 15.0355 19.5547C14.9937 19.5386 14.9601 19.513 14.9358 19.478C14.9102 19.4444 14.8927 19.4014 14.8833 19.3529C14.8766 19.3166 14.8752 19.2722 14.8793 19.2184C14.8874 19.1471 14.9035 19.0758 14.9318 19.0072C14.9681 18.9144 15.0153 18.8337 15.0732 18.7651C15.1203 18.7086 15.1728 18.6722 15.2307 18.6548C15.2886 18.6373 15.3411 18.6386 15.3909 18.6588C15.4408 18.679 15.4812 18.7139 15.5108 18.7651C15.5404 18.8162 15.5539 18.874 15.5525 18.9399C15.5498 19.0301 15.5296 19.1215 15.4919 19.2157L15.4906 19.2184ZM15.2953 19.1404C15.3546 18.9897 15.3882 18.9023 15.3977 18.8767C15.4165 18.8162 15.4219 18.7731 15.4138 18.7449C15.4084 18.7274 15.3936 18.7139 15.3707 18.7045C15.3519 18.6978 15.3357 18.6965 15.3223 18.7032C15.3007 18.7113 15.2792 18.7341 15.259 18.7691C15.2388 18.8041 15.1836 18.9332 15.0961 19.1579C15.0476 19.2789 15.0193 19.3623 15.0112 19.4081C15.0058 19.4404 15.0072 19.4646 15.0153 19.4794C15.0233 19.4942 15.0368 19.5049 15.0557 19.513C15.0772 19.5211 15.0947 19.5211 15.1109 19.5117C15.1378 19.4955 15.162 19.4619 15.1849 19.4135L15.2953 19.1417V19.1404Z" fill="white"/>
<path d="M16.0831 18.8289L15.9821 19.5781C15.974 19.6346 15.9727 19.671 15.9753 19.6871C15.978 19.7033 15.9875 19.7167 16.0009 19.7288C16.0157 19.7409 16.04 19.749 16.075 19.7544L16.0965 19.7571L16.0925 19.7826L15.6091 19.718L15.6131 19.6925L15.6374 19.6952C15.6764 19.7006 15.7047 19.6992 15.7236 19.6925C15.7411 19.6858 15.7545 19.675 15.7626 19.6602C15.7707 19.6454 15.7788 19.6091 15.7868 19.5512L15.8501 19.0764C15.8555 19.0347 15.8569 19.0078 15.8542 18.9957C15.8515 18.9849 15.8447 18.9741 15.8353 18.9661C15.8259 18.9567 15.8124 18.9513 15.799 18.9499C15.7761 18.9472 15.7464 18.9499 15.7128 18.9607L15.7034 18.9351L16.0615 18.8262L16.0844 18.8289H16.0831Z" fill="white"/>
<path d="M16.6175 18.8027L16.6956 19.5547C16.701 19.6112 16.7077 19.6475 16.7145 19.6623C16.7212 19.6771 16.7333 19.6892 16.7495 19.6973C16.767 19.7054 16.7926 19.7081 16.8276 19.704L16.8491 19.7013L16.8518 19.7269L16.3671 19.7767L16.3644 19.7511L16.3886 19.7484C16.4277 19.7444 16.456 19.7377 16.4721 19.7256C16.4883 19.7134 16.4977 19.7013 16.5017 19.6852C16.5058 19.6691 16.5058 19.6314 16.499 19.5735L16.4492 19.0973C16.4452 19.0543 16.4398 19.0287 16.4344 19.018C16.429 19.0072 16.4209 18.9991 16.4088 18.9938C16.3967 18.987 16.3832 18.9857 16.3698 18.987C16.3469 18.9897 16.32 18.9991 16.2876 19.018L16.2728 18.9951L16.596 18.8054L16.6189 18.8027H16.6175Z" fill="white"/>
<path d="M19.7778 30.0714C19.7535 30.0472 19.7279 30.0243 19.7037 29.9988C19.6189 29.9127 19.5327 29.8253 19.4479 29.7486C19.4209 29.7257 19.394 29.7055 19.3684 29.6827C19.2755 29.6006 19.1826 29.5199 19.0883 29.4472C19.0803 29.4419 19.0735 29.4351 19.0668 29.4298C19.0574 29.4217 19.0479 29.415 19.0385 29.4069C19.0304 29.4015 19.0237 29.3961 19.0156 29.3907C18.9146 29.3141 18.8137 29.2441 18.71 29.1769C18.6871 29.1634 18.6655 29.1446 18.6427 29.1298C18.6427 29.1298 18.6413 29.1298 18.64 29.1284C18.6359 29.1257 18.6305 29.123 18.6265 29.1204C18.5188 29.0518 18.4084 28.9912 18.2966 28.932C18.2683 28.9172 18.2414 28.8997 18.2131 28.8849C18.0987 28.8258 17.9802 28.7746 17.8617 28.7249C17.8267 28.7114 17.793 28.6939 17.7567 28.6791C17.6368 28.6307 17.5116 28.589 17.3864 28.5473C17.3554 28.5379 17.3271 28.5258 17.2962 28.5164C17.2935 28.5164 17.2908 28.515 17.2881 28.5137C17.2827 28.5123 17.2773 28.511 17.2719 28.5096C17.144 28.4706 17.0107 28.4356 16.876 28.4034C16.8464 28.3966 16.8195 28.3886 16.7885 28.3805C16.7845 28.3805 16.7791 28.3778 16.7751 28.3765C16.7683 28.3751 16.7616 28.3738 16.7562 28.3724C16.6216 28.3401 16.4788 28.3146 16.3361 28.2877C16.2984 28.2823 16.2647 28.2729 16.227 28.2661C16.223 28.2661 16.2176 28.2661 16.2136 28.2648C16.0655 28.2392 15.916 28.2191 15.7665 28.2002C15.7248 28.1962 15.6844 28.1895 15.644 28.1841C15.4851 28.1653 15.3262 28.1491 15.1673 28.1343C15.1323 28.1316 15.0973 28.1276 15.0623 28.1249C14.894 28.1088 14.7243 28.0953 14.556 28.0805C14.5278 28.0792 14.4995 28.0765 14.4726 28.0738C14.2908 28.0576 14.1103 28.0415 13.9286 28.024C13.872 27.3447 13.8235 26.6102 13.7454 25.8784C13.6027 24.5332 13.1463 23.3332 12.1041 22.4077C11.5897 21.9504 11.0255 21.5966 10.3321 21.5078C9.80425 21.4405 9.29932 21.4432 8.81727 21.5132C8.80784 21.5132 8.79976 21.5145 8.79034 21.5172C8.70955 21.5293 8.63011 21.5441 8.55066 21.5603C8.53316 21.5643 8.51431 21.567 8.4968 21.5697C8.42409 21.5845 8.35273 21.6033 8.28002 21.6221C8.25578 21.6289 8.23154 21.6329 8.20865 21.6396C8.14267 21.6585 8.0767 21.6786 8.01072 21.7002C7.98244 21.7096 7.95417 21.7176 7.92589 21.7271C7.86395 21.7486 7.8047 21.7715 7.74411 21.7957C7.71314 21.8078 7.68083 21.8185 7.64986 21.832C7.5933 21.8562 7.53675 21.8818 7.4802 21.9073C7.44654 21.9221 7.41287 21.9369 7.37921 21.9544C7.3267 21.98 7.27418 22.0082 7.22167 22.0365C7.18666 22.0553 7.15031 22.0741 7.1153 22.0943C7.06548 22.1226 7.017 22.1522 6.96853 22.1817C6.93083 22.2046 6.89447 22.2261 6.85812 22.2503C6.81234 22.2799 6.76656 22.3122 6.72078 22.3445C6.68307 22.3714 6.64402 22.397 6.60632 22.4252C6.56324 22.4575 6.52015 22.4911 6.47706 22.5234C6.43801 22.5544 6.39896 22.584 6.35991 22.6162C6.31952 22.6499 6.27912 22.6849 6.23873 22.7198C6.19968 22.7548 6.15929 22.7884 6.12024 22.8248C6.08119 22.8597 6.04349 22.8961 6.00579 22.9337C5.9802 22.9579 5.95327 22.9821 5.92904 23.0077C5.90076 23.036 5.87383 23.0629 5.84555 23.0925C5.84151 23.0978 5.83747 23.1032 5.83209 23.1073C5.7513 23.192 5.67589 23.2781 5.60453 23.3655C5.54932 23.4328 5.50085 23.5027 5.45103 23.5727C5.43487 23.5956 5.41737 23.6171 5.40256 23.64C5.34196 23.7287 5.2881 23.8202 5.23694 23.913C5.23694 23.9144 5.23559 23.9157 5.23424 23.9171C4.903 24.513 4.75354 25.1802 4.81952 25.9093C5.01611 28.0697 6.13236 29.6033 8.08747 30.5288C8.92634 30.927 9.81772 31.1422 10.7522 31.227C10.8747 32.1807 11.1777 33.0766 11.5614 33.9456C12.1283 35.2317 12.8662 36.3966 14.0484 37.2132C15.3397 38.1064 16.6795 38.249 18.0637 37.4163C18.0758 37.4082 18.0879 37.4001 18.1014 37.3921C18.2266 37.3154 18.3518 37.236 18.4743 37.1526C18.5215 37.1217 18.5672 37.0881 18.613 37.0558C18.7046 36.9912 18.7948 36.9266 18.8837 36.8594C18.9308 36.8231 18.9779 36.7867 19.0251 36.7504C19.1166 36.6778 19.2068 36.6038 19.2957 36.5285C19.3334 36.4962 19.3711 36.4652 19.4075 36.4329C19.53 36.3253 19.6498 36.2137 19.7643 36.0993C19.767 36.0966 19.771 36.0926 19.7751 36.0899C19.8585 36.0065 19.9393 35.9204 20.0188 35.833C20.0417 35.8074 20.0646 35.7819 20.0874 35.7563C20.148 35.6877 20.2073 35.6177 20.2652 35.5464C20.2894 35.5168 20.3137 35.4873 20.3365 35.4577C20.4066 35.3675 20.4752 35.2774 20.5385 35.1846C20.5426 35.1792 20.5466 35.1738 20.5506 35.1684C20.6032 35.0918 20.6516 35.0178 20.6961 34.9451C20.7028 34.933 20.7109 34.9223 20.7176 34.9102C20.7607 34.8389 20.7997 34.7676 20.8361 34.699C20.8401 34.6922 20.8428 34.6855 20.8455 34.6788C20.8778 34.6142 20.9061 34.551 20.9317 34.4878C20.9357 34.477 20.9411 34.4676 20.9452 34.4568C20.9721 34.3909 20.9936 34.3236 21.0138 34.2564C21.0179 34.2443 21.0206 34.2322 21.0246 34.2201C21.0435 34.1541 21.0596 34.0869 21.0717 34.0183C21.0717 34.0156 21.0717 34.0129 21.0731 34.0102C21.0731 34.0075 21.0744 34.0035 21.0758 34.0008C21.0865 33.943 21.0933 33.8838 21.1 33.8232C21.1 33.8232 21.1 33.8152 21.1 33.8111C21.1067 33.7506 21.1108 33.6874 21.1135 33.6228C21.1135 33.6013 21.1162 33.5811 21.1175 33.5582C21.1189 33.4963 21.1189 33.4304 21.1175 33.3632C21.1175 33.3443 21.1175 33.3268 21.1175 33.3067C21.1175 33.2811 21.1175 33.2569 21.1175 33.2313C21.1175 33.2071 21.1121 33.1829 21.1108 33.1587C21.1108 33.1425 21.1067 33.1264 21.1054 33.1103C21.0973 32.9825 21.0839 32.8547 21.065 32.7255C21.065 32.7202 21.065 32.7161 21.0637 32.7107C21.0569 32.665 21.0475 32.6179 21.0394 32.5708C21.0394 32.5628 21.0367 32.556 21.0354 32.5493C21.0138 32.4296 20.9869 32.3112 20.9559 32.1928C20.9532 32.1848 20.9519 32.1753 20.9505 32.1673C20.9398 32.1283 20.9304 32.0866 20.9182 32.0462C20.9182 32.0462 20.9142 32.0354 20.9128 32.0301C20.8832 31.9305 20.8482 31.8323 20.8132 31.7355C20.8065 31.7166 20.8011 31.6964 20.793 31.6776C20.7782 31.6373 20.7647 31.5956 20.7486 31.5552C20.7028 31.4409 20.6503 31.3292 20.5964 31.2202C20.5964 31.2202 20.5897 31.2068 20.587 31.2001C20.5762 31.1785 20.5654 31.1584 20.5547 31.1368C20.5506 31.1288 20.5453 31.1207 20.5399 31.1126C20.4833 31.005 20.4254 30.8987 20.3621 30.7978C20.3419 30.7669 20.319 30.7373 20.2975 30.7064C20.2827 30.6835 20.2665 30.6647 20.2517 30.6431C20.2005 30.5692 20.1494 30.4952 20.0955 30.4266C20.0928 30.4225 20.0901 30.4185 20.0874 30.4158C20.0659 30.3889 20.0417 30.3647 20.0201 30.3378C19.9649 30.2719 19.9124 30.2046 19.8545 30.1441C19.8303 30.1185 19.8047 30.097 19.7804 30.0714H19.7778ZM8.34869 23.7583C8.34869 23.7583 8.35004 23.7583 8.35273 23.7556C8.3837 23.7314 8.41601 23.7072 8.44833 23.6843C8.57759 23.5996 8.81188 23.492 9.00982 23.644C9.43127 24.065 9.71269 24.5655 9.86888 25.1305C10.0157 25.6564 10.0991 26.2026 10.192 26.742C10.2648 27.159 10.3092 27.5814 10.3644 28.0025C10.3711 28.0549 10.3711 28.1074 10.3752 28.1814C9.86754 28.1168 9.42319 27.9339 9.01655 27.6595C8.41063 27.2492 7.93935 26.7232 7.69295 26.0237C7.65659 25.9187 7.62831 25.8152 7.60812 25.7116C7.60408 25.6941 7.60408 25.6766 7.60138 25.6591C7.58657 25.5757 7.57715 25.4923 7.57311 25.4089C7.57176 25.3793 7.57311 25.3497 7.57311 25.3201C7.57311 25.2502 7.57445 25.1816 7.58253 25.113C7.58657 25.0793 7.59196 25.0457 7.59734 25.0121C7.60677 24.9489 7.61889 24.887 7.63505 24.8251C7.64447 24.7901 7.65524 24.7551 7.66602 24.7215C7.68487 24.6637 7.70641 24.6072 7.73065 24.5507C7.74546 24.5157 7.76162 24.4821 7.77777 24.4484C7.8047 24.3946 7.83567 24.3422 7.86934 24.291C7.88953 24.2588 7.90973 24.2251 7.93262 24.1942C7.96898 24.1431 8.00937 24.096 8.05111 24.0476C8.0767 24.018 8.09959 23.9884 8.12786 23.9601C8.19519 23.8915 8.26655 23.8243 8.34465 23.7624L8.34734 23.7597L8.34869 23.7583ZM8.77822 30.4333C8.75264 30.4239 8.72705 30.4131 8.70012 30.4037L8.77822 30.4333ZM18.5955 33.9981C18.5928 34.0667 18.5861 34.134 18.574 34.1985C18.5713 34.2133 18.5699 34.2281 18.5659 34.2429C18.5524 34.3088 18.5322 34.3707 18.5094 34.4313C18.504 34.4461 18.4986 34.4609 18.4918 34.4743C18.4663 34.5335 18.438 34.5913 18.4043 34.6452C18.3976 34.6573 18.3895 34.668 18.3828 34.6788C18.3478 34.7339 18.3087 34.7864 18.2656 34.8362C18.2602 34.8429 18.2535 34.8483 18.2481 34.855C18.2131 34.894 18.1741 34.9303 18.135 34.9667C18.1135 34.9855 18.0933 35.0043 18.0704 35.0232C18.034 35.0528 17.9977 35.0797 17.9586 35.1066C17.9384 35.12 17.9182 35.1348 17.898 35.1483C17.8523 35.1779 17.8038 35.2034 17.7553 35.229C17.7405 35.237 17.727 35.2451 17.7122 35.2518C17.6476 35.2828 17.5803 35.311 17.5129 35.3339C17.4645 35.35 17.3918 35.3326 17.3446 35.3043C16.7185 34.9411 16.2055 34.4488 15.7342 33.9053C15.1216 33.199 14.6826 32.3906 14.3298 31.531C14.276 31.3991 14.2531 31.2552 14.2086 31.0857C15.6103 31.0427 16.8707 31.3346 17.8738 32.3448C18.3141 32.7888 18.6063 33.3228 18.5955 33.9766C18.5955 33.9833 18.5955 33.9887 18.5955 33.9954V33.9981ZM13.5785 29.0154C13.5946 29.2858 13.6121 29.5549 13.6283 29.8253C13.6849 30.7427 13.8828 31.6251 14.3096 32.4457C14.7849 33.3591 15.372 34.1891 16.1382 34.8873C16.6041 35.311 17.105 35.6756 17.692 35.9137C18.1067 36.0818 18.5336 36.1639 18.982 36.1289C19.0264 36.1249 19.0722 36.1262 19.1516 36.1235C18.6588 36.5675 18.1566 36.9347 17.6018 37.2239C16.4963 37.8024 15.434 37.6409 14.4187 37.0006C13.3859 36.3495 12.7221 35.3796 12.1714 34.3196C11.4914 33.008 11.1386 31.6077 10.9959 30.1454C10.9959 30.1387 10.9946 30.132 10.9932 30.1252C10.9932 30.1199 10.9932 30.1158 10.9919 30.1104C10.9111 29.2737 10.8034 28.4397 10.6916 27.607C10.592 26.8671 10.4883 26.1259 10.3482 25.3914C10.1988 24.6058 9.83657 23.9144 9.27508 23.3413C8.70416 22.7588 8.02284 22.432 7.17454 22.5409C7.76296 22.1764 8.40255 21.9625 9.08253 21.8777C9.82849 21.7849 10.565 21.8333 11.2167 22.2423C12.2131 22.8665 12.8648 23.7583 13.1597 24.9018C13.3711 25.7197 13.4263 26.5564 13.4788 27.3931C13.5125 27.9312 13.5448 28.4693 13.5785 29.0087V29.0154Z" fill="white"/>
<path d="M9.93087 22.8107C9.87297 22.8833 9.80969 22.9425 9.73967 22.9883C9.69658 23.0165 9.65619 23.0353 9.61579 23.0434C9.5754 23.0515 9.53769 23.0528 9.49999 23.0461C9.46229 23.0394 9.42863 23.0246 9.39766 23.0004C9.36265 22.9721 9.33841 22.9385 9.32495 22.8981C9.31148 22.8578 9.3061 22.8134 9.31148 22.7623C9.31552 22.7259 9.32764 22.6829 9.34784 22.6331C9.37611 22.5672 9.41382 22.504 9.4596 22.4461C9.52288 22.3681 9.59155 22.3049 9.66561 22.2565C9.72755 22.2161 9.78814 22.1973 9.84873 22.1973C9.90933 22.1973 9.95915 22.2148 10.0009 22.247C10.0426 22.2807 10.0709 22.3264 10.0844 22.3843C10.0978 22.4421 10.0938 22.5013 10.0723 22.5632C10.0426 22.6479 9.99685 22.73 9.93356 22.8093L9.93087 22.8107ZM9.76794 22.6789C9.86893 22.5524 9.92683 22.4784 9.94299 22.4569C9.97934 22.4044 9.99685 22.3641 9.99685 22.3358C9.99685 22.317 9.98742 22.3008 9.96722 22.2847C9.95241 22.2726 9.93626 22.2672 9.9201 22.2686C9.89721 22.2699 9.87028 22.2847 9.84065 22.313C9.81103 22.3412 9.72082 22.4488 9.57136 22.6358C9.48922 22.738 9.43805 22.8093 9.41786 22.8497C9.40304 22.8793 9.39766 22.9022 9.40035 22.9183C9.40304 22.9344 9.41382 22.9492 9.42997 22.9627C9.44748 22.9775 9.46498 22.9815 9.48383 22.9775C9.5148 22.9694 9.54846 22.9452 9.58347 22.9062L9.76929 22.6789H9.76794Z" fill="white"/>
<path d="M10.6648 22.9046L10.0925 23.3996C10.0494 23.4373 10.0238 23.4629 10.0157 23.4763C10.0077 23.4898 10.005 23.5059 10.0077 23.5248C10.0104 23.5436 10.0238 23.5665 10.0467 23.592L10.0602 23.6082L10.0413 23.6243L9.72221 23.2571L9.74106 23.2409L9.75722 23.2597C9.78281 23.2893 9.8057 23.3082 9.8232 23.3149C9.84071 23.3216 9.85821 23.3216 9.87437 23.3149C9.89053 23.3082 9.92015 23.2866 9.96458 23.249L10.3268 22.9355C10.3591 22.9073 10.378 22.8885 10.3833 22.879C10.3887 22.8683 10.3901 22.8575 10.3887 22.8441C10.3874 22.8306 10.382 22.8185 10.3726 22.8078C10.3578 22.7903 10.3335 22.7741 10.3012 22.758L10.312 22.7324L10.6526 22.8871L10.6675 22.9046H10.6648Z" fill="white"/>
<path d="M11.0862 23.5L10.4452 23.9009C10.3968 23.9305 10.3671 23.952 10.3564 23.9655C10.3456 23.9776 10.3402 23.9937 10.3402 24.0126C10.3402 24.0314 10.3496 24.0556 10.3685 24.0852L10.3793 24.1027L10.3577 24.1161L10.0992 23.7032L10.1207 23.6897L10.1342 23.7099C10.1557 23.7435 10.1746 23.765 10.1907 23.7745C10.2069 23.7839 10.2244 23.7866 10.2406 23.7839C10.2567 23.7798 10.2904 23.7637 10.3389 23.7328L10.7455 23.4785C10.7819 23.4557 10.8034 23.4395 10.8101 23.4314C10.8169 23.422 10.8209 23.4113 10.8209 23.3978C10.8209 23.3844 10.8182 23.3709 10.8101 23.3588C10.798 23.3386 10.7765 23.3198 10.7468 23.2983L10.7617 23.2754L11.074 23.4812L11.0862 23.5Z" fill="white"/>
<path d="M11.0767 24.5952C10.9919 24.6315 10.907 24.6531 10.8236 24.6598C10.7724 24.6652 10.7266 24.6598 10.6876 24.649C10.6485 24.6369 10.6135 24.6194 10.5839 24.5966C10.5543 24.5737 10.5314 24.5441 10.5166 24.5078C10.499 24.4674 10.4937 24.4257 10.5004 24.384C10.5071 24.3423 10.5246 24.3006 10.5529 24.2576C10.5731 24.2266 10.6041 24.1943 10.6458 24.1607C10.7024 24.115 10.7643 24.0787 10.833 24.0504C10.9259 24.0114 11.0161 23.9885 11.105 23.9818C11.1777 23.9764 11.241 23.9872 11.2935 24.0168C11.346 24.0464 11.3823 24.084 11.4025 24.1338C11.4227 24.1836 11.4254 24.236 11.4106 24.2939C11.3958 24.3517 11.3635 24.4015 11.315 24.4459C11.249 24.5064 11.1683 24.5576 11.0753 24.5966L11.0767 24.5952ZM10.9959 24.4015C11.1454 24.3383 11.2315 24.3006 11.2558 24.2885C11.3123 24.2603 11.3473 24.2334 11.3608 24.2091C11.3702 24.193 11.3689 24.1728 11.3608 24.15C11.3527 24.1325 11.342 24.1204 11.3271 24.1136C11.3056 24.1042 11.276 24.1042 11.2369 24.115C11.1979 24.1257 11.0673 24.1769 10.8451 24.271C10.7239 24.3221 10.6458 24.3598 10.6081 24.3854C10.5812 24.4042 10.565 24.4217 10.5596 24.4378C10.5543 24.454 10.5556 24.4715 10.5637 24.4903C10.5731 24.5118 10.5852 24.5239 10.6041 24.5293C10.635 24.5374 10.6754 24.532 10.7253 24.5132L10.9959 24.4015Z" fill="white"/>
<path d="M11.6894 24.9865L10.9582 25.1816C10.903 25.1964 10.8694 25.2085 10.8545 25.2166C10.8411 25.226 10.8317 25.2394 10.8249 25.2569C10.8182 25.2744 10.8209 25.3013 10.8303 25.3349L10.8357 25.3551L10.8115 25.3618L10.6862 24.8924L10.7105 24.8856L10.7172 24.9098C10.728 24.9475 10.7387 24.9744 10.7522 24.9879C10.7657 25.0013 10.7805 25.0094 10.798 25.0107C10.8155 25.0121 10.8519 25.0054 10.9071 24.9906L11.3703 24.8668C11.412 24.856 11.4362 24.8466 11.4457 24.8399C11.4551 24.8332 11.4618 24.8238 11.4659 24.8103C11.4699 24.7982 11.4699 24.7847 11.4659 24.7699C11.4605 24.7471 11.4457 24.7229 11.4228 24.6946L11.443 24.6758L11.6813 24.9637L11.6867 24.9852L11.6894 24.9865Z" fill="white"/>
<path d="M11.8227 25.6728L11.0754 25.7912C11.0188 25.8006 10.9838 25.8087 10.969 25.8154C10.9542 25.8222 10.9434 25.8356 10.9354 25.8531C10.9273 25.8706 10.9273 25.8962 10.9327 25.9311L10.9354 25.9513L10.9111 25.9553L10.8357 25.4751L10.8613 25.4711L10.8653 25.4953C10.8721 25.5343 10.8802 25.5612 10.8923 25.576C10.9044 25.5908 10.9179 25.6002 10.934 25.6042C10.9502 25.6083 10.9879 25.6042 11.0458 25.5962L11.5197 25.5208C11.5615 25.5141 11.5884 25.5074 11.5978 25.502C11.6073 25.4966 11.6153 25.4872 11.6207 25.4751C11.6261 25.463 11.6288 25.4495 11.6261 25.4347C11.6221 25.4119 11.6113 25.385 11.5911 25.354L11.614 25.3379L11.8214 25.65L11.8254 25.6728H11.8227Z" fill="white"/>
<path d="M11.9062 26.309L11.1562 26.4045C11.0997 26.4112 11.0646 26.4193 11.0485 26.426C11.0337 26.4327 11.0216 26.4448 11.0148 26.4623C11.0067 26.4798 11.0054 26.5054 11.0094 26.5403L11.0121 26.5619L10.9865 26.5645L10.9246 26.0816L10.9502 26.0789L10.9529 26.1031C10.9583 26.1422 10.9663 26.1704 10.9771 26.1852C10.9879 26.2013 11.0027 26.2108 11.0189 26.2148C11.035 26.2188 11.0727 26.2175 11.1306 26.2094L11.6059 26.1489C11.6477 26.1435 11.6746 26.1381 11.6854 26.1327C11.6948 26.1274 11.7029 26.1179 11.7096 26.1072C11.715 26.0951 11.7177 26.0816 11.7163 26.0682C11.7137 26.0453 11.7029 26.0184 11.684 25.9875L11.7069 25.9727L11.9049 26.2901L11.9075 26.313L11.9062 26.309Z" fill="white"/>
<path d="M11.9816 26.9315L11.2303 27.0203C11.1737 27.027 11.1387 27.0338 11.1226 27.0405C11.1078 27.0472 11.0956 27.0593 11.0876 27.0755C11.0795 27.0916 11.0781 27.1185 11.0822 27.1535L11.0849 27.175L11.0593 27.1777L11.0027 26.6948L11.0283 26.6921L11.031 26.7163C11.035 26.7553 11.0431 26.7836 11.0539 26.7984C11.0647 26.8131 11.0781 26.8239 11.0956 26.8279C11.1118 26.832 11.1495 26.8306 11.2074 26.8239L11.6841 26.7674C11.7258 26.762 11.7527 26.7566 11.7635 26.7513C11.7743 26.7459 11.7824 26.7378 11.7877 26.7257C11.7931 26.7136 11.7958 26.7002 11.7945 26.6867C11.7918 26.6638 11.781 26.6369 11.7622 26.6046L11.785 26.5898L11.9789 26.9087L11.9816 26.9315Z" fill="white"/>
<path d="M11.6355 28.2263C11.5439 28.2357 11.4564 28.2317 11.3742 28.2142C11.3244 28.2034 11.2813 28.1873 11.2477 28.1644C11.214 28.1415 11.1857 28.1146 11.1642 28.0837C11.1426 28.0528 11.1292 28.0178 11.1265 27.9788C11.1224 27.9344 11.1292 27.894 11.148 27.855C11.1669 27.8173 11.1965 27.7824 11.2355 27.7501C11.2638 27.7272 11.3029 27.7057 11.3527 27.6855C11.42 27.6586 11.49 27.6425 11.5641 27.6344C11.6637 27.6236 11.758 27.629 11.8442 27.6478C11.9155 27.664 11.9721 27.6936 12.0138 27.7366C12.0556 27.7797 12.0785 27.8281 12.0838 27.8806C12.0892 27.9344 12.0758 27.9855 12.0448 28.0353C12.0125 28.085 11.968 28.124 11.9088 28.1523C11.8267 28.1913 11.7364 28.2155 11.6355 28.2263ZM11.6153 28.0178C11.7768 28.0016 11.8697 27.9909 11.8967 27.9868C11.9586 27.9761 12.0004 27.9613 12.0206 27.9411C12.034 27.929 12.0394 27.9088 12.0367 27.8846C12.034 27.8658 12.0273 27.851 12.0152 27.8402C11.9977 27.8254 11.968 27.816 11.9276 27.8146C11.8872 27.8133 11.7472 27.8241 11.5075 27.8483C11.3769 27.8617 11.2908 27.8752 11.2477 27.8886C11.2167 27.8981 11.1951 27.9102 11.1857 27.925C11.1763 27.9398 11.1723 27.9559 11.175 27.9774C11.1776 28.0003 11.1857 28.0164 11.2019 28.0258C11.2288 28.042 11.2692 28.0487 11.3231 28.046L11.6153 28.0191V28.0178Z" fill="white"/>
<path d="M12.1606 28.6862L11.4065 28.7534C11.35 28.7588 11.3136 28.7642 11.2988 28.7709C11.284 28.7776 11.2719 28.7884 11.2638 28.8059C11.2557 28.822 11.253 28.8489 11.2557 28.8826V28.9041L11.2328 28.9068L11.1897 28.4225L11.2153 28.4198L11.218 28.444C11.222 28.483 11.2288 28.5113 11.2395 28.5274C11.2503 28.5436 11.2638 28.553 11.2799 28.5584C11.2961 28.5624 11.3338 28.5624 11.3917 28.5584L11.8697 28.5167C11.9128 28.5126 11.9384 28.5086 11.9492 28.5032C11.9599 28.4978 11.968 28.4898 11.9747 28.4777C11.9815 28.4656 11.9842 28.4521 11.9828 28.4387C11.9801 28.4158 11.9707 28.3875 11.9532 28.3566L11.9761 28.3418L12.1606 28.6673L12.1632 28.6902L12.1606 28.6862Z" fill="white"/>
<path d="M12.2118 29.3185L11.4577 29.375C11.4012 29.379 11.3648 29.3844 11.35 29.3911C11.3352 29.3979 11.3231 29.4086 11.3137 29.4248C11.3056 29.4409 11.3016 29.4665 11.3042 29.5015V29.523L11.28 29.5243L11.2437 29.0387H11.2692L11.2706 29.0616C11.2733 29.1006 11.28 29.1288 11.2908 29.145C11.3016 29.1611 11.315 29.1719 11.3312 29.1759C11.3473 29.1799 11.385 29.1813 11.4429 29.1759L11.9209 29.1396C11.964 29.1369 11.9896 29.1329 12.0004 29.1275C12.0112 29.1221 12.0192 29.114 12.026 29.1033C12.0327 29.0912 12.0354 29.0791 12.034 29.0643C12.0327 29.0414 12.0233 29.0131 12.0058 28.9822L12.0287 28.9688L12.2091 29.2956V29.3185H12.2118Z" fill="white"/>
<path d="M11.7877 30.2485C11.6961 30.2539 11.6086 30.2458 11.5278 30.2243C11.478 30.2122 11.4362 30.1934 11.4039 30.1692C11.3716 30.1449 11.3447 30.1167 11.3245 30.0844C11.3043 30.0521 11.2935 30.0171 11.2908 29.9781C11.2881 29.9337 11.2976 29.8934 11.3178 29.8557C11.338 29.8181 11.3689 29.7844 11.4093 29.7548C11.4389 29.7333 11.4793 29.7131 11.5292 29.6956C11.5978 29.6728 11.6692 29.658 11.7432 29.6539C11.8442 29.6486 11.9371 29.6566 12.022 29.6808C12.0933 29.6997 12.1485 29.732 12.1876 29.7777C12.2266 29.8234 12.2482 29.8719 12.2522 29.9243C12.2549 29.9781 12.2401 30.0293 12.2064 30.0777C12.1728 30.1261 12.1257 30.1638 12.0651 30.188C11.9816 30.223 11.89 30.2445 11.789 30.2499L11.7877 30.2485ZM11.7769 30.0387C11.9385 30.0293 12.0327 30.0225 12.0597 30.0198C12.123 30.0118 12.1647 29.9983 12.1862 29.9795C12.1997 29.9674 12.2064 29.9485 12.2051 29.923C12.2051 29.9041 12.197 29.888 12.1862 29.8772C12.1687 29.8611 12.1405 29.8517 12.1001 29.8476C12.0597 29.8436 11.9196 29.849 11.6786 29.8624C11.548 29.8705 11.4605 29.8799 11.416 29.8907C11.3837 29.8988 11.3635 29.9109 11.3528 29.9243C11.342 29.9378 11.338 29.9553 11.3393 29.9754C11.3393 29.9983 11.3487 30.0145 11.3635 30.0252C11.3905 30.0427 11.4295 30.0521 11.4834 30.0508L11.7769 30.0373V30.0387Z" fill="white"/>
<path d="M12.286 30.7472L11.5293 30.7674C11.4727 30.7688 11.4364 30.7728 11.4202 30.7782C11.4054 30.7836 11.3919 30.7943 11.3825 30.8105C11.3731 30.8266 11.369 30.8522 11.369 30.8871V30.9087H11.3448L11.3313 30.4217H11.3569V30.4459C11.3569 30.4849 11.3636 30.5132 11.3731 30.5293C11.3825 30.5455 11.396 30.5576 11.4121 30.5629C11.4283 30.5683 11.4646 30.571 11.5239 30.5683L12.0032 30.5549C12.0463 30.5549 12.0719 30.5508 12.0827 30.5468C12.0934 30.5428 12.1015 30.5347 12.1096 30.5226C12.1177 30.5105 12.1204 30.4984 12.1204 30.4836C12.1204 30.4607 12.1123 30.4325 12.0961 30.4002L12.1204 30.3867L12.2846 30.723V30.7459L12.286 30.7472Z" fill="white"/>
<path d="M12.4003 31.2824L11.6625 31.4492C11.6072 31.4614 11.5722 31.4721 11.5574 31.4802C11.5426 31.4883 11.5332 31.5017 11.5265 31.5192C11.5197 31.5367 11.5211 31.5622 11.5291 31.5972L11.5332 31.6174L11.5089 31.6228L11.4012 31.1479L11.4255 31.1425L11.4309 31.1668C11.4389 31.2058 11.4497 31.2313 11.4632 31.2461C11.4753 31.2609 11.4901 31.269 11.5076 31.2717C11.5238 31.2744 11.5615 31.269 11.618 31.2555L12.0853 31.1493C12.127 31.1399 12.1526 31.1318 12.162 31.1251C12.1714 31.1183 12.1782 31.1089 12.1835 31.0968C12.1889 31.0847 12.1889 31.0712 12.1862 31.0564C12.1809 31.0336 12.1674 31.008 12.1458 30.9784L12.1674 30.9609L12.3949 31.2582L12.4003 31.2798V31.2824Z" fill="white"/>
<path d="M12.5525 31.8647L11.8241 32.0665C11.7689 32.0813 11.7352 32.0934 11.7217 32.1028C11.7083 32.1122 11.6988 32.1257 11.6935 32.1432C11.6881 32.1606 11.6894 32.1875 11.6988 32.2212L11.7042 32.2414L11.68 32.2481L11.5494 31.7786L11.5736 31.7719L11.5803 31.7961C11.5911 31.8338 11.6032 31.8607 11.6167 31.8741C11.6302 31.8876 11.645 31.8956 11.6625 31.897C11.68 31.8983 11.7163 31.8916 11.7715 31.8755L12.2334 31.7477C12.2751 31.7369 12.2994 31.7275 12.3088 31.7208C12.3182 31.714 12.325 31.7046 12.329 31.6912C12.333 31.6777 12.333 31.6656 12.329 31.6508C12.3223 31.6279 12.3088 31.6037 12.2859 31.5755L12.3061 31.5566L12.5471 31.8432L12.5539 31.8647H12.5525Z" fill="white"/>
<path d="M12.7316 32.4418L12.0125 32.6786C11.9587 32.6961 11.925 32.7095 11.9116 32.7203C11.8981 32.7297 11.8887 32.7445 11.8846 32.762C11.8806 32.7808 11.8846 32.8064 11.8941 32.8387L11.9008 32.8588L11.8765 32.8669L11.7244 32.4042L11.7486 32.3961L11.7567 32.419C11.7688 32.4566 11.7823 32.4822 11.7958 32.4943C11.8092 32.5077 11.8254 32.5145 11.8415 32.5145C11.859 32.5145 11.8941 32.5064 11.9493 32.4876L12.4044 32.3382C12.4448 32.3248 12.469 32.314 12.4784 32.3073C12.4879 32.3006 12.4932 32.2898 12.4973 32.2777C12.5013 32.2643 12.5 32.2508 12.4973 32.2374C12.4906 32.2158 12.4744 32.1903 12.4502 32.1634L12.469 32.1445L12.7235 32.419L12.7302 32.4405L12.7316 32.4418Z" fill="white"/>
<path d="M12.7343 33.7533C12.6495 33.7896 12.5646 33.8125 12.4812 33.8206C12.43 33.8259 12.3842 33.8232 12.3452 33.8111C12.3061 33.8004 12.2711 33.7829 12.2415 33.7587C12.2119 33.7358 12.189 33.7062 12.1728 33.6699C12.1553 33.6295 12.1499 33.5878 12.1567 33.5461C12.1634 33.5044 12.1809 33.4614 12.2078 33.4197C12.228 33.3887 12.259 33.3565 12.3007 33.3228C12.3573 33.2771 12.4192 33.2394 12.4866 33.2098C12.5781 33.1695 12.6697 33.1466 12.7572 33.1385C12.8299 33.1318 12.8932 33.1439 12.9457 33.1722C12.9982 33.2004 13.0359 33.2394 13.0561 33.2879C13.0777 33.3376 13.0804 33.3901 13.0655 33.4479C13.0507 33.5058 13.0184 33.5556 12.9713 33.6013C12.9053 33.6632 12.8259 33.7143 12.733 33.7546L12.7343 33.7533ZM12.6522 33.5596C12.8003 33.495 12.8865 33.4574 12.9107 33.4452C12.9673 33.4156 13.0023 33.3887 13.0157 33.3645C13.0252 33.3484 13.0238 33.3282 13.0144 33.3053C13.0063 33.2879 12.9955 33.2757 12.9807 33.269C12.9592 33.2596 12.9295 33.261 12.8905 33.2717C12.8515 33.2825 12.7208 33.3349 12.5 33.4304C12.3802 33.4829 12.3007 33.5219 12.2644 33.5475C12.2374 33.5663 12.2213 33.5838 12.2159 33.5999C12.2105 33.6161 12.2132 33.6336 12.2213 33.6524C12.2307 33.6739 12.2442 33.686 12.2617 33.6901C12.2927 33.6981 12.3331 33.6914 12.3829 33.6739L12.6535 33.5596H12.6522Z" fill="white"/>
<path d="M13.3953 33.9865L12.7248 34.3376C12.675 34.3645 12.644 34.3834 12.6319 34.3941C12.6197 34.4062 12.6144 34.421 12.6117 34.4399C12.6103 34.4587 12.6171 34.4829 12.6346 34.5139L12.644 34.5327L12.6211 34.5448L12.3949 34.1143L12.4178 34.1022L12.4285 34.1238C12.4474 34.1587 12.4636 34.1816 12.4797 34.1924C12.4959 34.2031 12.512 34.2072 12.5282 34.2045C12.5443 34.2018 12.5794 34.1883 12.6305 34.1601L13.0547 33.9381C13.0924 33.9179 13.1153 33.9045 13.1233 33.8951C13.1314 33.8856 13.1355 33.8749 13.1368 33.8628C13.1381 33.8493 13.1368 33.8359 13.1287 33.8238C13.118 33.8036 13.0991 33.7821 13.0708 33.7592L13.087 33.7363L13.3832 33.965L13.394 33.9852L13.3953 33.9865Z" fill="white"/>
<path d="M13.697 34.4922L13.0574 34.8958C13.009 34.9254 12.9793 34.9483 12.9699 34.9604C12.9591 34.9725 12.9537 34.9886 12.9537 35.0074C12.9537 35.0263 12.9632 35.0505 12.982 35.0801L12.9928 35.0976L12.9713 35.111L12.7114 34.6994L12.7329 34.6859L12.7464 34.7061C12.7679 34.7397 12.7868 34.7613 12.8029 34.7707C12.8191 34.7801 12.8366 34.7828 12.8528 34.7788C12.8689 34.7747 12.9026 34.7586 12.9511 34.7263L13.3564 34.4707C13.3927 34.4478 13.4143 34.4317 13.421 34.4223C13.4277 34.4129 13.4318 34.4021 13.4318 34.3886C13.4318 34.3752 13.4291 34.3617 13.421 34.3496C13.4089 34.3308 13.3873 34.3106 13.3577 34.2904L13.3725 34.2676L13.6862 34.472L13.6984 34.4909L13.697 34.4922Z" fill="white"/>
<path d="M13.833 35.4729C13.7616 35.5307 13.6862 35.5751 13.6068 35.6047C13.5583 35.6235 13.5139 35.6329 13.4735 35.6316C13.4331 35.6316 13.394 35.6235 13.359 35.6087C13.324 35.5939 13.2944 35.5724 13.2688 35.5415C13.2405 35.5065 13.2244 35.4688 13.2203 35.4258C13.2149 35.3841 13.2203 35.3383 13.2365 35.2899C13.2486 35.2549 13.2688 35.2159 13.2998 35.1715C13.3415 35.1123 13.3913 35.0599 13.4492 35.0141C13.5273 34.9509 13.6081 34.9038 13.6916 34.8742C13.7603 34.8487 13.8236 34.8433 13.8828 34.8568C13.9407 34.8702 13.9878 34.8985 14.0201 34.9388C14.0538 34.9805 14.0713 35.0316 14.0713 35.0908C14.0713 35.15 14.0552 35.2079 14.0201 35.263C13.973 35.3397 13.9097 35.4096 13.8316 35.4729H13.833ZM13.7024 35.3087C13.8289 35.2079 13.9017 35.1473 13.9219 35.1298C13.9676 35.0868 13.9946 35.0518 14.0013 35.0236C14.0053 35.0061 13.9999 34.9872 13.9838 34.9671C13.9717 34.9523 13.9582 34.9428 13.942 34.9415C13.9192 34.9388 13.8895 34.9469 13.8545 34.9671C13.8195 34.9872 13.7078 35.0733 13.5206 35.224C13.4183 35.3061 13.3523 35.3639 13.324 35.3989C13.3025 35.4244 13.293 35.446 13.2917 35.4621C13.2903 35.4782 13.2971 35.4957 13.3105 35.5119C13.3254 35.5294 13.3415 35.5388 13.359 35.5388C13.3913 35.5388 13.429 35.5213 13.4721 35.4904L13.7024 35.3087Z" fill="white"/>
<path d="M14.5345 35.4789L14.0214 36.0345C13.9824 36.0762 13.9595 36.1044 13.9528 36.1192C13.946 36.134 13.9447 36.1501 13.9501 36.169C13.9555 36.1878 13.9703 36.208 13.9959 36.2322L14.012 36.247L13.9945 36.2658L13.6363 35.9349L13.6538 35.9161L13.6713 35.9322C13.701 35.9591 13.7239 35.9753 13.7427 35.9793C13.7616 35.9847 13.7777 35.982 13.7925 35.9753C13.8073 35.9672 13.8356 35.943 13.8747 35.8999L14.2005 35.5475C14.2301 35.5165 14.2463 35.495 14.2503 35.4843C14.2544 35.4735 14.2557 35.4614 14.2517 35.4493C14.249 35.4358 14.2423 35.4251 14.2315 35.4143C14.214 35.3982 14.1884 35.3847 14.1547 35.3726L14.1628 35.3457L14.5183 35.4627L14.5345 35.4775V35.4789Z" fill="white"/>
<path d="M14.9856 35.812L14.5722 36.4456C14.5412 36.4927 14.5237 36.525 14.5197 36.5411C14.5156 36.5573 14.517 36.5734 14.5251 36.5909C14.5332 36.6084 14.552 36.6259 14.5803 36.6447L14.5978 36.6568L14.5843 36.6783L14.1763 36.412L14.1898 36.3905L14.21 36.4039C14.2437 36.4254 14.2692 36.4375 14.2881 36.4389C14.3069 36.4402 14.3231 36.4362 14.3366 36.4268C14.35 36.416 14.3729 36.3878 14.4052 36.338L14.6678 35.9371C14.6907 35.9008 14.7042 35.8779 14.7069 35.8672C14.7095 35.8564 14.7069 35.8443 14.7028 35.8322C14.6974 35.8201 14.6893 35.8093 14.6772 35.8012C14.6584 35.7891 14.6301 35.7797 14.5937 35.773L14.5964 35.7461L14.9667 35.8012L14.9856 35.8134V35.812Z" fill="white"/>
<path d="M15.4798 36.0425L15.2024 36.746C15.1822 36.7985 15.1701 36.8335 15.1701 36.8496C15.1701 36.8658 15.1741 36.8819 15.1849 36.8967C15.1957 36.9115 15.2172 36.9263 15.2509 36.9384L15.2711 36.9465L15.2617 36.9693L14.8079 36.7918L14.8173 36.7689L14.8402 36.7783C14.8766 36.7931 14.9048 36.7985 14.9237 36.7972C14.9425 36.7945 14.9574 36.7877 14.9695 36.7743C14.9816 36.7608 14.9977 36.7286 15.0179 36.6747L15.1943 36.2295C15.2105 36.1891 15.2172 36.1636 15.2186 36.1528C15.2199 36.142 15.2145 36.1299 15.2078 36.1192C15.1997 36.1084 15.1889 36.1003 15.1755 36.095C15.1539 36.0869 15.1257 36.0828 15.0893 36.0842L15.0866 36.0573L15.4609 36.0371L15.4825 36.0452L15.4798 36.0425Z" fill="white"/>
<path d="M16.0063 36.1609L15.8864 36.9075C15.877 36.964 15.8743 37.0003 15.877 37.0165C15.8797 37.0326 15.8878 37.0474 15.9026 37.0595C15.9161 37.0716 15.9416 37.081 15.9753 37.0864L15.9969 37.0904L15.9928 37.116L15.5121 37.0393L15.5162 37.0138L15.5404 37.0178C15.5794 37.0245 15.6077 37.0245 15.6266 37.0178C15.6454 37.0111 15.6575 37.0003 15.6656 36.9869C15.6737 36.9721 15.6831 36.9357 15.6925 36.8779L15.7679 36.4044C15.7747 36.3627 15.7774 36.3358 15.7747 36.325C15.772 36.3142 15.7666 36.3035 15.7558 36.2941C15.7464 36.2847 15.7343 36.2793 15.7195 36.2766C15.6966 36.2725 15.667 36.2766 15.632 36.2847L15.6239 36.2577L15.9847 36.1582L16.0076 36.1622L16.0063 36.1609Z" fill="white"/>
<path d="M19.7778 47.4269C19.7535 47.4027 19.7279 47.3798 19.7037 47.3543C19.6189 47.2682 19.5327 47.1807 19.4479 47.104C19.4209 47.0812 19.394 47.061 19.3684 47.0381C19.2755 46.9561 19.1826 46.8754 19.0883 46.8027C19.0803 46.7973 19.0735 46.7906 19.0668 46.7852C19.0574 46.7772 19.048 46.7704 19.0385 46.7624C19.0304 46.757 19.0237 46.7516 19.0156 46.7462C18.9146 46.6695 18.8137 46.5996 18.71 46.5323C18.6871 46.5189 18.6655 46.5 18.6427 46.4852C18.6427 46.4852 18.6413 46.4852 18.64 46.4839C18.6359 46.4812 18.6305 46.4785 18.6265 46.4758C18.5188 46.4072 18.4084 46.3467 18.2966 46.2875C18.2683 46.2727 18.2414 46.2552 18.2131 46.2404C18.0987 46.1812 17.9802 46.1301 17.8617 46.0803C17.8267 46.0669 17.793 46.0494 17.7567 46.0346C17.6368 45.9862 17.5116 45.9445 17.3864 45.9028C17.3554 45.8933 17.3271 45.8812 17.2962 45.8718C17.2935 45.8718 17.2908 45.8705 17.2881 45.8691C17.2827 45.8678 17.2773 45.8664 17.2719 45.8651C17.144 45.8261 17.0107 45.7911 16.8761 45.7588C16.8464 45.7521 16.8195 45.744 16.7885 45.736C16.7845 45.736 16.7791 45.7333 16.7751 45.7319C16.7683 45.7306 16.7616 45.7292 16.7562 45.7279C16.6216 45.6956 16.4788 45.67 16.3361 45.6431C16.2984 45.6378 16.2647 45.6283 16.227 45.6216C16.223 45.6216 16.2176 45.6216 16.2136 45.6203C16.0655 45.5947 15.916 45.5745 15.7665 45.5557C15.7248 45.5517 15.6844 45.5449 15.644 45.5396C15.4851 45.5207 15.3262 45.5046 15.1673 45.4898C15.1323 45.4871 15.0973 45.4831 15.0623 45.4804C14.894 45.4642 14.7244 45.4508 14.556 45.436C14.5278 45.4346 14.4995 45.4319 14.4726 45.4293C14.2908 45.4131 14.1103 45.397 13.9286 45.3795C13.872 44.7001 13.8235 43.9657 13.7454 43.2339C13.6027 41.8886 13.1463 40.6887 12.1041 39.7632C11.5897 39.3058 11.0255 38.952 10.3321 38.8633C9.80425 38.796 9.29932 38.7987 8.81727 38.8686C8.80785 38.8686 8.79977 38.87 8.79034 38.8727C8.70955 38.8848 8.63011 38.8996 8.55067 38.9157C8.53316 38.9198 8.51431 38.9224 8.49681 38.9251C8.42409 38.9399 8.35273 38.9588 8.28002 38.9776C8.25578 38.9843 8.23155 38.9884 8.20866 38.9951C8.14268 39.0139 8.0767 39.0341 8.01072 39.0556C7.98244 39.065 7.95417 39.0731 7.92589 39.0825C7.86395 39.1041 7.80471 39.1269 7.74411 39.1511C7.71314 39.1632 7.68083 39.174 7.64986 39.1875C7.59331 39.2117 7.53675 39.2372 7.4802 39.2628C7.44654 39.2776 7.41288 39.2924 7.37921 39.3099C7.3267 39.3354 7.27419 39.3637 7.22167 39.3919C7.18667 39.4108 7.15031 39.4296 7.1153 39.4498C7.06548 39.478 7.01701 39.5076 6.96853 39.5372C6.93083 39.5601 6.89448 39.5816 6.85812 39.6058C6.81234 39.6354 6.76656 39.6677 6.72078 39.7C6.68308 39.7269 6.64403 39.7524 6.60633 39.7807C6.56324 39.813 6.52015 39.8466 6.47706 39.8789C6.43801 39.9098 6.39896 39.9394 6.35992 39.9717C6.31952 40.0053 6.27913 40.0403 6.23873 40.0753C6.19968 40.1103 6.15929 40.1439 6.12024 40.1802C6.08119 40.2152 6.04349 40.2515 6.00579 40.2892C5.9802 40.3134 5.95327 40.3376 5.92904 40.3632C5.90076 40.3914 5.87383 40.4183 5.84555 40.4479C5.84152 40.4533 5.83748 40.4587 5.83209 40.4627C5.7513 40.5475 5.6759 40.6336 5.60453 40.721C5.54933 40.7883 5.50085 40.8582 5.45103 40.9282C5.43487 40.951 5.41737 40.9726 5.40256 40.9954C5.34197 41.0842 5.28811 41.1757 5.23694 41.2685C5.23694 41.2698 5.23559 41.2712 5.23559 41.2712C4.90435 41.8698 4.75355 42.5357 4.82087 43.2648C5.01746 45.4252 6.1337 46.9588 8.08882 47.8843C8.92768 48.2824 9.81907 48.4977 10.7535 48.5824C10.8761 49.5362 11.179 50.4321 11.5628 51.3011C12.1297 52.5871 12.8675 53.7521 14.0498 54.5686C15.341 55.4619 16.6808 55.6045 18.065 54.7718C18.0771 54.7637 18.0892 54.7556 18.1027 54.7475C18.2279 54.6709 18.3532 54.5915 18.4757 54.5081C18.5228 54.4772 18.5686 54.4435 18.6144 54.4112C18.7059 54.3467 18.7962 54.2821 18.885 54.2148C18.9322 54.1785 18.9793 54.1422 19.0264 54.1059C19.118 54.0332 19.2082 53.9593 19.2971 53.8839C19.3348 53.8516 19.3725 53.8207 19.4088 53.7884C19.5313 53.6808 19.6512 53.5691 19.7656 53.4548C19.7683 53.4521 19.7724 53.4481 19.7764 53.4454C19.8599 53.362 19.9407 53.2759 20.0201 53.1884C20.043 53.1629 20.0659 53.1373 20.0888 53.1118C20.1494 53.0432 20.2086 52.9732 20.2665 52.9019C20.2908 52.8723 20.315 52.8427 20.3379 52.8131C20.4079 52.723 20.4766 52.6329 20.5399 52.54C20.5439 52.5347 20.5479 52.5293 20.552 52.5239C20.6045 52.4472 20.653 52.3732 20.6974 52.3006C20.7041 52.2885 20.7122 52.2777 20.719 52.2656C20.762 52.1943 20.8011 52.123 20.8374 52.0544C20.8415 52.0477 20.8442 52.041 20.8469 52.0343C20.8792 51.9697 20.9075 51.9065 20.933 51.8432C20.9371 51.8325 20.9425 51.8231 20.9465 51.8123C20.9734 51.7464 20.995 51.6791 21.0152 51.6119C21.0192 51.5997 21.0219 51.5876 21.026 51.5755C21.0448 51.5096 21.061 51.4424 21.0731 51.3738C21.0731 51.3711 21.0731 51.3684 21.0744 51.3657C21.0744 51.363 21.0758 51.359 21.0771 51.3563C21.0879 51.2984 21.0946 51.2392 21.1014 51.1787C21.1014 51.1787 21.1014 51.1706 21.1014 51.1666C21.1081 51.1061 21.1121 51.0428 21.1148 50.9783C21.1148 50.9567 21.1175 50.9366 21.1189 50.9137C21.1202 50.8518 21.1202 50.7859 21.1189 50.7186C21.1189 50.6998 21.1189 50.6823 21.1189 50.6621C21.1189 50.6366 21.1189 50.6124 21.1189 50.5868C21.1189 50.5626 21.1135 50.5384 21.1121 50.5142C21.1121 50.498 21.1081 50.4819 21.1067 50.4657C21.0987 50.3379 21.0852 50.2101 21.0663 50.081C21.0663 50.0756 21.0663 50.0716 21.065 50.0662C21.0583 50.0205 21.0488 49.9734 21.0408 49.9263C21.0408 49.9182 21.0381 49.9115 21.0367 49.9048C21.0152 49.7851 20.9883 49.6667 20.9573 49.5483C20.9546 49.5402 20.9532 49.5308 20.9519 49.5227C20.9411 49.4837 20.9317 49.442 20.9196 49.4017C20.9196 49.4017 20.9155 49.3909 20.9142 49.3855C20.8846 49.286 20.8496 49.1878 20.8146 49.0909C20.8078 49.0721 20.8024 49.0519 20.7944 49.0331C20.7795 48.9927 20.7661 48.951 20.7499 48.9107C20.7041 48.7963 20.6516 48.6847 20.5978 48.5757C20.5978 48.5757 20.591 48.5623 20.5883 48.5555C20.5776 48.534 20.5668 48.5138 20.556 48.4936C20.552 48.4856 20.5466 48.4775 20.5412 48.4694C20.4847 48.3618 20.4268 48.2555 20.3635 48.1547C20.3433 48.1237 20.3204 48.0941 20.2988 48.0632C20.284 48.0403 20.2679 48.0215 20.2531 48C20.2019 47.926 20.1507 47.852 20.0969 47.7834C20.0942 47.7793 20.0915 47.7753 20.0888 47.7726C20.0672 47.7457 20.043 47.7215 20.0215 47.6946C19.9663 47.6287 19.9137 47.5614 19.8558 47.5009C19.8316 47.4753 19.806 47.4538 19.7818 47.4282L19.7778 47.4269ZM8.34869 41.1138C8.34869 41.1138 8.35004 41.1138 8.35273 41.1111C8.3837 41.0869 8.41602 41.0627 8.44833 41.0398C8.5776 40.9551 8.81189 40.8475 9.00982 40.9995C9.43127 41.4205 9.71269 41.9209 9.86889 42.4859C10.0157 43.0132 10.0991 43.5581 10.192 44.0975C10.2648 44.5145 10.3092 44.9369 10.3644 45.358C10.3711 45.4104 10.3711 45.4629 10.3752 45.5369C9.86754 45.4723 9.42319 45.2893 9.01655 45.0149C8.41063 44.6046 7.93936 44.0787 7.69295 43.3791C7.65659 43.2742 7.62832 43.1706 7.60812 43.0671C7.60408 43.0496 7.60408 43.0321 7.60139 43.0146C7.58657 42.9312 7.57715 42.8478 7.57311 42.7644C7.57176 42.7348 7.57311 42.7052 7.57311 42.6756C7.57311 42.6056 7.57446 42.537 7.58254 42.4684C7.58657 42.4348 7.59196 42.4012 7.59735 42.3675C7.60677 42.3043 7.61889 42.2424 7.63505 42.1806C7.64447 42.1456 7.65525 42.1106 7.66602 42.077C7.68487 42.0191 7.70641 41.9626 7.73065 41.9061C7.74546 41.8712 7.76162 41.8375 7.77778 41.8039C7.80471 41.7501 7.83568 41.6976 7.86934 41.6465C7.88954 41.6142 7.90973 41.5806 7.93262 41.5497C7.96898 41.4985 8.00937 41.4515 8.05112 41.403C8.0767 41.3734 8.09959 41.3438 8.12787 41.3156C8.19519 41.247 8.26656 41.1797 8.34465 41.1178L8.34734 41.1151L8.34869 41.1138ZM18.5955 51.3522C18.5928 51.4208 18.5861 51.4881 18.574 51.5527C18.5713 51.5675 18.5699 51.5823 18.5659 51.5971C18.5524 51.663 18.5322 51.7249 18.5094 51.7854C18.504 51.8002 18.4986 51.815 18.4918 51.8284C18.4663 51.8876 18.438 51.9455 18.4043 51.9993C18.3976 52.0114 18.3895 52.0221 18.3828 52.0343C18.3478 52.0894 18.3087 52.1419 18.2656 52.1916C18.2602 52.1984 18.2535 52.2037 18.2481 52.2105C18.2131 52.2495 18.1741 52.2858 18.135 52.3221C18.1135 52.341 18.0933 52.3598 18.0704 52.3786C18.034 52.4082 17.9977 52.4351 17.9586 52.462C17.9384 52.4755 17.9182 52.4903 17.898 52.5037C17.8523 52.5333 17.8038 52.5589 17.7553 52.5844C17.7405 52.5912 17.727 52.6006 17.7122 52.6073C17.6476 52.6382 17.5803 52.6665 17.5129 52.6894C17.4645 52.7055 17.3918 52.688 17.3446 52.6598C16.7185 52.2966 16.2055 51.8042 15.7342 51.2608C15.1216 50.5545 14.6826 49.746 14.3298 48.8865C14.276 48.7546 14.2531 48.6107 14.2086 48.4412C15.6103 48.3981 16.8707 48.69 17.8738 49.7003C18.3141 50.1442 18.6063 50.6783 18.5955 51.332C18.5955 51.3388 18.5955 51.3442 18.5955 51.3509V51.3522ZM13.5785 46.3696C13.5946 46.6399 13.6121 46.909 13.6283 47.1794C13.6849 48.0968 13.8828 48.9793 14.3096 49.7998C14.7849 50.7132 15.372 51.5432 16.1382 52.2414C16.6041 52.6652 17.105 53.0297 17.692 53.2678C18.1067 53.436 18.5336 53.518 18.982 53.483C19.0264 53.479 19.0722 53.4804 19.1516 53.4777C18.6588 53.9216 18.1566 54.2888 17.6018 54.5781C16.4963 55.1565 15.434 54.9951 14.4187 54.3547C13.3859 53.7037 12.7221 52.7338 12.1714 51.6737C11.4914 50.3621 11.1386 48.9618 10.9959 47.4995C10.9959 47.4928 10.9946 47.4861 10.9932 47.4794C10.9932 47.474 10.9932 47.4699 10.9919 47.4646C10.9111 46.6278 10.8034 45.7938 10.6916 44.9611C10.592 44.2212 10.4883 43.48 10.3482 42.7455C10.1988 41.9599 9.83657 41.2685 9.27508 40.6954C8.70417 40.113 8.02284 39.7861 7.17455 39.895C7.76297 39.5305 8.40255 39.3166 9.08253 39.2318C9.82849 39.139 10.565 39.1875 11.2167 39.5964C12.2131 40.2206 12.8648 41.1125 13.1597 42.2559C13.3711 43.0724 13.4263 43.9105 13.4788 44.7472C13.5125 45.2853 13.5448 45.8234 13.5785 46.3628V46.3696Z" fill="white"/>
<path d="M9.96995 40.0861C9.91205 40.1587 9.84876 40.2179 9.77875 40.2636C9.73566 40.2919 9.69392 40.3107 9.65487 40.3188C9.61447 40.3269 9.57542 40.3282 9.53907 40.3215C9.50271 40.3148 9.4677 40.3 9.43674 40.2757C9.40173 40.2475 9.37749 40.2139 9.36402 40.1735C9.35056 40.1332 9.34517 40.0874 9.35056 40.0376C9.3546 40.0013 9.36672 39.9583 9.38691 39.9085C9.41519 39.8426 9.45289 39.7794 9.49867 39.7215C9.56196 39.6435 9.63063 39.5803 9.70469 39.5318C9.76663 39.4915 9.82722 39.4727 9.88781 39.4727C9.9484 39.4727 9.99822 39.4901 10.04 39.5224C10.0817 39.5561 10.11 39.6018 10.1234 39.6596C10.1369 39.7175 10.1329 39.7767 10.1113 39.8386C10.0817 39.9233 10.0359 40.0054 9.97264 40.0847L9.96995 40.0861ZM9.80702 39.9542C9.90801 39.8278 9.96591 39.7538 9.98207 39.7323C10.0184 39.6798 10.0359 39.6395 10.0359 39.6112C10.0359 39.5924 10.0265 39.5762 10.0063 39.5601C9.99149 39.548 9.97533 39.5426 9.95918 39.544C9.93628 39.5453 9.90936 39.5601 9.87973 39.5883C9.85011 39.6166 9.75989 39.7242 9.60909 39.9112C9.52695 40.0134 9.47578 40.0847 9.45559 40.1251C9.44077 40.1547 9.43539 40.1776 9.43808 40.1937C9.44077 40.2098 9.45155 40.2246 9.4677 40.2381C9.48521 40.2529 9.50271 40.2569 9.52156 40.2529C9.55253 40.2448 9.5862 40.2206 9.6212 40.1816L9.80702 39.9542Z" fill="white"/>
<path d="M10.6943 40.1611L10.1247 40.6588C10.0816 40.6965 10.056 40.722 10.0479 40.7355C10.0399 40.7503 10.0372 40.7664 10.0399 40.7839C10.0426 40.8014 10.056 40.8243 10.0789 40.8512L10.0924 40.8673L10.0735 40.8835L9.75307 40.5176L9.77192 40.5014L9.78808 40.5202C9.81366 40.5498 9.83655 40.5687 9.85405 40.5754C9.87156 40.5821 9.88906 40.5821 9.90522 40.5754C9.92138 40.57 9.951 40.5472 9.99544 40.5095L10.3563 40.1947C10.3886 40.1665 10.4075 40.1476 10.4129 40.1369C10.4182 40.1261 10.4196 40.1153 10.4182 40.1019C10.4169 40.0884 10.4115 40.0763 10.4007 40.0656C10.3859 40.0481 10.3617 40.0319 10.328 40.0158L10.3388 39.9902L10.6795 40.1436L10.6943 40.1611Z" fill="white"/>
<path d="M10.8451 41.2397C10.7657 41.2882 10.6862 41.3218 10.6041 41.3406C10.5543 41.3527 10.5085 41.3568 10.4681 41.3501C10.4277 41.3433 10.3913 41.3312 10.3577 41.3124C10.324 41.2936 10.2984 41.268 10.2782 41.2344C10.2553 41.1967 10.2432 41.1563 10.2446 41.1133C10.2446 41.0702 10.2567 41.0272 10.2782 40.9815C10.2944 40.9478 10.32 40.9115 10.3563 40.8725C10.4048 40.82 10.4613 40.7743 10.5246 40.7353C10.6108 40.6828 10.697 40.6465 10.7832 40.6277C10.8545 40.6115 10.9192 40.6142 10.9744 40.6344C11.0309 40.6559 11.0727 40.6882 11.0996 40.7339C11.1279 40.7797 11.1373 40.8321 11.1306 40.8913C11.1238 40.9505 11.0996 41.0043 11.0578 41.0555C11.0013 41.1254 10.9299 41.1873 10.8438 41.2397H10.8451ZM10.7374 41.0595C10.8761 40.9747 10.9555 40.925 10.9784 40.9102C11.0296 40.8738 11.0605 40.8416 11.0713 40.816C11.078 40.7985 11.074 40.7797 11.0605 40.7582C11.0498 40.742 11.0376 40.7313 11.0228 40.7272C10.9999 40.7218 10.9703 40.7272 10.9326 40.742C10.8949 40.7568 10.7737 40.8281 10.5677 40.9532C10.456 41.0218 10.3833 41.0703 10.3496 41.1012C10.3254 41.1241 10.3119 41.1429 10.3092 41.1604C10.3065 41.1765 10.3105 41.194 10.3213 41.2115C10.3334 41.2303 10.3482 41.2411 10.3671 41.2438C10.3994 41.2465 10.4385 41.2357 10.4842 41.2102L10.736 41.0595H10.7374Z" fill="white"/>
<path d="M11.1291 41.9018C11.0443 41.9367 10.9594 41.9583 10.876 41.965C10.8248 41.969 10.779 41.965 10.74 41.9542C10.7009 41.9421 10.6659 41.9246 10.6363 41.9004C10.6067 41.8762 10.5838 41.8466 10.569 41.8103C10.5515 41.7686 10.5474 41.7282 10.5541 41.6852C10.5609 41.6435 10.5797 41.6018 10.608 41.5601C10.6296 41.5305 10.6605 41.4982 10.7023 41.4646C10.7588 41.4202 10.8221 41.3839 10.8908 41.3556C10.9837 41.3166 11.0739 41.2951 11.1628 41.2884C11.2355 41.283 11.2988 41.2951 11.3513 41.3247C11.4038 41.3543 11.4401 41.3933 11.4603 41.4417C11.4805 41.4915 11.4832 41.5439 11.4671 41.6018C11.4509 41.6596 11.4186 41.7094 11.3701 41.7525C11.3028 41.813 11.2234 41.8628 11.1291 41.9018ZM11.0497 41.7067C11.1991 41.6448 11.2866 41.6085 11.3095 41.5964C11.3661 41.5682 11.4011 41.5413 11.4159 41.517C11.4253 41.5009 11.4253 41.4807 11.4159 41.4578C11.4078 41.4404 11.3971 41.4283 11.3836 41.4215C11.362 41.4121 11.3324 41.4121 11.292 41.4215C11.253 41.4309 11.1224 41.4821 10.8989 41.5749C10.7777 41.6247 10.6982 41.6623 10.6605 41.6879C10.6336 41.7067 10.6174 41.7242 10.612 41.7403C10.6067 41.7565 10.608 41.774 10.6161 41.7928C10.6242 41.8143 10.6376 41.8264 10.6551 41.8318C10.6861 41.8399 10.7265 41.8345 10.7763 41.817L11.0483 41.7081L11.0497 41.7067Z" fill="white"/>
<path d="M11.7351 42.2841L11.0039 42.4765C10.9487 42.4913 10.9151 42.5021 10.9003 42.5115C10.8868 42.5209 10.876 42.5343 10.8706 42.5518C10.8652 42.5693 10.8666 42.5962 10.876 42.6299L10.8814 42.65L10.8572 42.6568L10.7333 42.1859L10.7575 42.1792L10.7643 42.2034C10.7737 42.2411 10.7858 42.268 10.7993 42.2814C10.8127 42.2949 10.8275 42.303 10.8437 42.3043C10.8599 42.3057 10.8976 42.2989 10.9541 42.2841L11.4173 42.1617C11.4591 42.151 11.4833 42.1415 11.4927 42.1348C11.5021 42.1281 11.5089 42.1187 11.5129 42.1052C11.517 42.0931 11.5183 42.0797 11.5129 42.0649C11.5075 42.042 11.4927 42.0164 11.4698 41.9882L11.49 41.9707L11.727 42.2599L11.7324 42.2814L11.7351 42.2841Z" fill="white"/>
<path d="M11.4281 43.2962C11.3365 43.3097 11.249 43.3097 11.1669 43.2962C11.1157 43.2882 11.0726 43.2734 11.0376 43.2518C11.0026 43.2303 10.973 43.2047 10.9501 43.1752C10.9272 43.1456 10.9124 43.1106 10.907 43.0716C10.9003 43.0272 10.907 42.9855 10.9232 42.9478C10.9407 42.9088 10.9676 42.8725 11.0053 42.8388C11.0322 42.8146 11.0713 42.7918 11.1198 42.7689C11.1857 42.7393 11.2558 42.7191 11.3285 42.7084C11.4281 42.6936 11.521 42.6936 11.6085 42.7084C11.6812 42.7205 11.7391 42.7474 11.7822 42.7891C11.8253 42.8308 11.8509 42.8765 11.859 42.929C11.8671 42.9814 11.8563 43.0339 11.8267 43.0864C11.797 43.1388 11.754 43.1792 11.6961 43.2101C11.6166 43.2532 11.5264 43.2814 11.4268 43.2962H11.4281ZM11.3985 43.0891C11.5587 43.0648 11.6516 43.05 11.6786 43.0447C11.7405 43.0312 11.7809 43.0137 11.8011 42.9935C11.8132 42.9801 11.8186 42.9613 11.8145 42.9357C11.8119 42.9169 11.8038 42.9021 11.7917 42.8927C11.7728 42.8779 11.7445 42.8711 11.7028 42.8711C11.6624 42.8711 11.5224 42.8886 11.2854 42.9249C11.1561 42.9438 11.0699 42.9613 11.0268 42.9774C10.9959 42.9895 10.9757 43.0016 10.9676 43.0164C10.9582 43.0312 10.9555 43.0474 10.9582 43.0689C10.9622 43.0918 10.9716 43.1065 10.9878 43.116C11.0161 43.1308 11.0565 43.1361 11.109 43.1308L11.3998 43.0904L11.3985 43.0891Z" fill="white"/>
<path d="M11.5103 43.9827C11.4188 43.9949 11.3312 43.9922 11.2491 43.976C11.1979 43.9666 11.1562 43.9518 11.1212 43.9289C11.0862 43.9074 11.0579 43.8805 11.0363 43.8496C11.0135 43.8186 11 43.7837 10.996 43.746C10.9906 43.7016 10.996 43.6599 11.0148 43.6222C11.0337 43.5846 11.0606 43.5482 11.0996 43.516C11.1279 43.4917 11.167 43.4702 11.2154 43.4487C11.2814 43.4204 11.3514 43.4016 11.4255 43.3922C11.5251 43.3801 11.618 43.3828 11.7056 43.4003C11.7769 43.4151 11.8348 43.4433 11.8779 43.485C11.921 43.5267 11.9452 43.5751 11.952 43.6263C11.9587 43.6801 11.9466 43.7312 11.9156 43.7823C11.8846 43.8334 11.8402 43.8724 11.7823 43.902C11.7015 43.9424 11.6113 43.9693 11.5117 43.9814L11.5103 43.9827ZM11.4861 43.7742C11.6463 43.7541 11.7406 43.742 11.7661 43.7366C11.8281 43.7245 11.8698 43.7083 11.89 43.6881C11.9035 43.6747 11.9075 43.6559 11.9048 43.6303C11.9021 43.6115 11.8954 43.5967 11.8833 43.5859C11.8658 43.5711 11.8362 43.563 11.7958 43.563C11.7554 43.563 11.6153 43.5765 11.377 43.6061C11.2464 43.6222 11.1602 43.6384 11.1171 43.6518C11.0862 43.6626 11.066 43.6747 11.0565 43.6895C11.0471 43.7029 11.0444 43.7204 11.0471 43.742C11.0498 43.7648 11.0592 43.781 11.0754 43.7904C11.1037 43.8065 11.1441 43.8119 11.1966 43.8079L11.4874 43.7742H11.4861Z" fill="white"/>
<path d="M12.0448 44.4179L11.2934 44.5039C11.2369 44.5107 11.2019 44.5174 11.1857 44.5241C11.1696 44.5309 11.1588 44.543 11.1507 44.5591C11.1426 44.5766 11.1399 44.6022 11.144 44.6371L11.1467 44.6587L11.1211 44.6613L11.0659 44.1784L11.0915 44.1757L11.0941 44.1999C11.0982 44.2389 11.1063 44.2672 11.117 44.282C11.1278 44.2981 11.1413 44.3075 11.1588 44.3116C11.1749 44.3156 11.2126 44.3143 11.2705 44.3075L11.7472 44.2524C11.7889 44.247 11.8159 44.243 11.8266 44.2376C11.8374 44.2322 11.8455 44.2241 11.8509 44.212C11.8576 44.1999 11.859 44.1865 11.8576 44.173C11.8549 44.1502 11.8441 44.1233 11.8266 44.091L11.8495 44.0762L12.0434 44.3963L12.0461 44.4192L12.0448 44.4179Z" fill="white"/>
<path d="M11.6934 45.6807C11.6018 45.6901 11.5143 45.6847 11.4322 45.6673C11.3823 45.6565 11.3393 45.6404 11.3056 45.6175C11.2719 45.5946 11.2437 45.5677 11.2221 45.5368C11.2006 45.5058 11.1884 45.4709 11.1844 45.4318C11.1804 45.3875 11.1871 45.3471 11.2073 45.3081C11.2261 45.2704 11.2558 45.2354 11.2948 45.2032C11.3231 45.1803 11.3635 45.1588 11.412 45.1386C11.4793 45.1117 11.5493 45.0955 11.6234 45.0888C11.723 45.0794 11.8173 45.0834 11.9034 45.1036C11.9748 45.1198 12.0314 45.1494 12.0731 45.1937C12.1148 45.2368 12.1377 45.2852 12.1431 45.3377C12.1485 45.3915 12.135 45.4426 12.1027 45.4924C12.0704 45.5422 12.0246 45.5812 11.9654 45.6094C11.8832 45.6484 11.793 45.6726 11.692 45.6821L11.6934 45.6807ZM11.6745 45.4722C11.8361 45.4561 11.929 45.4466 11.956 45.4413C12.0179 45.4305 12.0596 45.4157 12.0798 45.3955C12.0933 45.3834 12.0987 45.3632 12.096 45.339C12.0946 45.3202 12.0866 45.3054 12.0758 45.2946C12.0583 45.2798 12.0287 45.2704 11.9883 45.2691C11.9479 45.2677 11.8078 45.2785 11.5682 45.3014C11.4375 45.3135 11.3514 45.3269 11.3069 45.3404C11.276 45.3498 11.2544 45.3619 11.245 45.3754C11.2356 45.3888 11.2315 45.4063 11.2342 45.4278C11.2369 45.4507 11.245 45.4668 11.2612 45.4762C11.2881 45.4924 11.3285 45.4991 11.3823 45.4978L11.6745 45.4722Z" fill="white"/>
<path d="M12.2158 46.1322L11.4618 46.1968C11.4052 46.2022 11.3689 46.2076 11.3541 46.2129C11.3392 46.2197 11.3271 46.2304 11.3177 46.2479C11.3096 46.2641 11.3069 46.291 11.3096 46.3246V46.3461L11.2867 46.3488L11.245 45.8645L11.2706 45.8618L11.2733 45.886C11.2773 45.9251 11.284 45.9533 11.2935 45.9694C11.3042 45.9856 11.3177 45.9964 11.3339 46.0004C11.35 46.0044 11.3877 46.0044 11.4456 46.0004L11.9236 45.96C11.9667 45.956 11.9923 45.952 12.0031 45.9466C12.0138 45.9412 12.0219 45.9331 12.0287 45.921C12.0354 45.9089 12.0381 45.8968 12.0367 45.882C12.0354 45.8591 12.0246 45.8309 12.0085 45.8L12.0313 45.7852L12.2158 46.1107V46.1336V46.1322Z" fill="white"/>
<path d="M11.8011 47.0508C11.7096 47.0575 11.622 47.0508 11.5399 47.0306C11.4901 47.0185 11.4483 47.001 11.4147 46.9768C11.381 46.9526 11.3541 46.9257 11.3339 46.8934C11.3137 46.8611 11.3016 46.8261 11.2989 46.7871C11.2962 46.7427 11.3043 46.7024 11.3245 46.6647C11.3447 46.6271 11.3743 46.5934 11.4147 46.5625C11.4443 46.541 11.4833 46.5208 11.5345 46.502C11.6032 46.4777 11.6732 46.4629 11.7473 46.4576C11.8469 46.4508 11.9412 46.4576 12.026 46.4804C12.0973 46.4993 12.1526 46.5302 12.1929 46.5746C12.2333 46.619 12.2549 46.6674 12.2589 46.7199C12.263 46.7737 12.2482 46.8248 12.2145 46.8732C12.1808 46.9217 12.135 46.9593 12.0745 46.9862C11.9923 47.0226 11.8994 47.0441 11.7998 47.0508H11.8011ZM11.7877 46.8409C11.9492 46.8302 12.0435 46.8221 12.0704 46.8181C12.1337 46.8087 12.1754 46.7952 12.1956 46.7764C12.2091 46.7643 12.2158 46.7454 12.2131 46.7199C12.2131 46.701 12.2051 46.6849 12.1943 46.6741C12.1768 46.658 12.1485 46.6486 12.1081 46.6459C12.0677 46.6432 11.9277 46.6499 11.6867 46.6661C11.5561 46.6755 11.4685 46.6862 11.4254 46.6984C11.3931 46.7078 11.3729 46.7185 11.3622 46.732C11.3527 46.7454 11.3473 46.7629 11.35 46.7831C11.3514 46.806 11.3595 46.8221 11.3756 46.8329C11.4026 46.8504 11.4429 46.8584 11.4955 46.8571L11.7877 46.8396V46.8409Z" fill="white"/>
<path d="M11.8361 47.7386C11.7432 47.7427 11.657 47.7346 11.5762 47.7131C11.5264 47.6996 11.4846 47.6808 11.4523 47.6566C11.42 47.6324 11.3931 47.6041 11.3729 47.5718C11.3527 47.5395 11.3419 47.5046 11.3392 47.4656C11.3365 47.4212 11.3459 47.3808 11.3675 47.3431C11.389 47.3055 11.4187 47.2732 11.4604 47.2436C11.49 47.2221 11.5304 47.2019 11.5816 47.1844C11.6503 47.1615 11.7216 47.1481 11.7957 47.144C11.8967 47.1387 11.9896 47.1481 12.0744 47.1723C12.1444 47.1925 12.1996 47.2248 12.24 47.2705C12.2791 47.3162 12.3006 47.3647 12.3033 47.4171C12.306 47.4709 12.2898 47.5221 12.2562 47.5705C12.2225 47.6189 12.174 47.6552 12.1134 47.6808C12.03 47.7158 11.9384 47.7359 11.8374 47.74L11.8361 47.7386ZM11.8266 47.5288C11.9882 47.5207 12.0825 47.5153 12.1094 47.5113C12.1727 47.5032 12.2144 47.4911 12.236 47.4723C12.2494 47.4602 12.2562 47.4413 12.2548 47.4158C12.2548 47.3969 12.2481 47.3808 12.236 47.37C12.2198 47.3539 12.1902 47.3445 12.1498 47.3404C12.1094 47.3364 11.9694 47.3404 11.7283 47.3526C11.5977 47.3593 11.5102 47.3674 11.4658 47.3795C11.4335 47.3875 11.4133 47.3983 11.4025 47.4117C11.3917 47.4252 11.3877 47.4413 11.389 47.4629C11.389 47.4857 11.3985 47.5019 11.4133 47.5126C11.4402 47.5301 11.4792 47.5395 11.5331 47.5395L11.8266 47.5274V47.5288Z" fill="white"/>
<path d="M12.3518 48.1769L11.6032 48.2845C11.5466 48.2926 11.5116 48.3006 11.4968 48.3074C11.482 48.3141 11.4712 48.3262 11.4631 48.3437C11.455 48.3612 11.4537 48.3867 11.4591 48.4217L11.4618 48.4419L11.4362 48.4459L11.3662 47.9643L11.3918 47.9603L11.3958 47.9845C11.4012 48.0235 11.4106 48.0504 11.4214 48.0666C11.4322 48.0814 11.447 48.0908 11.4631 48.0948C11.4793 48.0989 11.517 48.0948 11.5749 48.0881L12.0502 48.0195C12.0919 48.0128 12.1189 48.0074 12.1283 48.002C12.1377 47.9966 12.1458 47.9872 12.1525 47.9751C12.1579 47.963 12.1606 47.9495 12.1579 47.9347C12.1552 47.9119 12.1431 47.885 12.1243 47.854L12.1471 47.8379L12.3491 48.1527L12.3518 48.1755V48.1769Z" fill="white"/>
<path d="M12.0812 49.1114C11.991 49.1343 11.9048 49.1423 11.8213 49.1356C11.7701 49.1329 11.7257 49.1222 11.6893 49.1047C11.653 49.0872 11.6207 49.0643 11.5951 49.0361C11.5695 49.0078 11.552 48.9755 11.5426 48.9379C11.5318 48.8948 11.5332 48.8531 11.5466 48.8128C11.5601 48.7724 11.5843 48.7334 11.618 48.6971C11.6436 48.6702 11.6786 48.6433 11.7257 48.6164C11.789 48.58 11.8563 48.5531 11.9277 48.5356C12.0246 48.5114 12.1189 48.5034 12.2064 48.5101C12.2791 48.5155 12.3397 48.537 12.3868 48.5747C12.434 48.6123 12.4649 48.6554 12.4771 48.7065C12.4905 48.759 12.4838 48.8114 12.4595 48.8652C12.4353 48.919 12.3963 48.9648 12.3411 49.0011C12.2657 49.0509 12.1795 49.0885 12.0812 49.1127V49.1114ZM12.0314 48.9069C12.1889 48.8679 12.2791 48.8437 12.306 48.8356C12.3666 48.8155 12.4057 48.7953 12.4232 48.7724C12.434 48.7576 12.4367 48.7388 12.4313 48.7132C12.4272 48.6944 12.4178 48.6809 12.4043 48.6729C12.3855 48.6608 12.3545 48.6567 12.3141 48.6608C12.2737 48.6648 12.1364 48.6957 11.9034 48.7536C11.7769 48.7859 11.692 48.8114 11.6516 48.8303C11.622 48.845 11.6032 48.8598 11.5964 48.8746C11.5884 48.8894 11.5884 48.9069 11.5924 48.9271C11.5978 48.9486 11.6086 48.9634 11.6261 48.9715C11.6557 48.9836 11.6961 48.9849 11.7486 48.9742L12.0341 48.9056L12.0314 48.9069Z" fill="white"/>
<path d="M12.2791 49.7711C12.1902 49.798 12.1041 49.8101 12.0206 49.8088C11.9694 49.8088 11.925 49.8007 11.8873 49.7845C11.8496 49.7684 11.8172 49.7482 11.7903 49.7213C11.7634 49.6944 11.7432 49.6635 11.7324 49.6258C11.719 49.5828 11.719 49.5411 11.7297 49.5007C11.7405 49.4603 11.7634 49.42 11.7957 49.381C11.8199 49.3527 11.8536 49.3245 11.898 49.2949C11.9586 49.2559 12.0246 49.2263 12.096 49.2048C12.1916 49.1752 12.2845 49.1617 12.3734 49.1644C12.4461 49.1657 12.508 49.1846 12.5578 49.2196C12.6063 49.2545 12.64 49.2962 12.6548 49.3473C12.6709 49.3985 12.6669 49.4523 12.6467 49.5074C12.6251 49.5626 12.5888 49.6097 12.5349 49.6487C12.4622 49.7025 12.3774 49.7442 12.2818 49.7738L12.2791 49.7711ZM12.2185 49.5693C12.3733 49.5222 12.4636 49.494 12.4891 49.4846C12.5484 49.4617 12.5861 49.4388 12.6023 49.416C12.613 49.4012 12.6144 49.381 12.6076 49.3568C12.6023 49.3379 12.5928 49.3245 12.578 49.3178C12.5578 49.307 12.5282 49.303 12.4878 49.3097C12.4474 49.3151 12.3128 49.3541 12.0825 49.424C11.9573 49.4617 11.8751 49.4913 11.8348 49.5142C11.8051 49.5303 11.7876 49.5451 11.7809 49.5612C11.7742 49.5774 11.7742 49.5949 11.7809 49.6137C11.7876 49.6352 11.7997 49.65 11.8172 49.6567C11.8469 49.6675 11.8886 49.6662 11.9398 49.6541L12.2212 49.5707L12.2185 49.5693Z" fill="white"/>
<path d="M12.9013 50.0736L12.1903 50.3333C12.1365 50.3521 12.1041 50.3669 12.0907 50.3777C12.0772 50.3871 12.0691 50.4019 12.0651 50.4207C12.0611 50.4395 12.0651 50.4651 12.0772 50.4974L12.0839 50.5176L12.0597 50.5256L11.8927 50.0683L11.917 50.0602L11.9251 50.0831C11.9385 50.1207 11.952 50.1449 11.9668 50.1584C11.9816 50.1705 11.9964 50.1772 12.0139 50.1772C12.0314 50.1772 12.0664 50.1678 12.1216 50.1476L12.5727 49.9835C12.6131 49.9687 12.6374 49.958 12.6454 49.9499C12.6535 49.9418 12.6602 49.9324 12.6629 49.9189C12.6656 49.9055 12.6656 49.892 12.6602 49.8786C12.6522 49.8571 12.636 49.8328 12.6104 49.8073L12.6293 49.7871L12.8918 50.0535L12.8999 50.075L12.9013 50.0736Z" fill="white"/>
<path d="M12.9375 51.3527C12.8541 51.393 12.7706 51.4173 12.6871 51.4294C12.6359 51.4361 12.5915 51.4347 12.5511 51.4253C12.512 51.4146 12.4757 51.3998 12.4447 51.3769C12.4138 51.354 12.3895 51.3258 12.3734 51.2908C12.3545 51.2505 12.3464 51.2088 12.3518 51.1671C12.3572 51.1253 12.372 51.0823 12.3989 51.0393C12.4178 51.0083 12.4474 50.9747 12.4878 50.9384C12.5417 50.8913 12.6023 50.8509 12.6696 50.8186C12.7598 50.7756 12.85 50.7487 12.9375 50.7379C13.0102 50.7285 13.0735 50.7379 13.1274 50.7648C13.1813 50.7917 13.219 50.8281 13.2418 50.8765C13.2647 50.9249 13.2701 50.9774 13.2567 51.0352C13.2432 51.0931 13.2136 51.1455 13.1678 51.1913C13.1045 51.2558 13.0264 51.3096 12.9362 51.3527H12.9375ZM12.8487 51.163C12.9954 51.0931 13.0789 51.0514 13.1032 51.0379C13.1584 51.007 13.192 50.9787 13.2041 50.9532C13.2122 50.937 13.2109 50.9168 13.2001 50.894C13.192 50.8765 13.1799 50.8644 13.1651 50.859C13.1436 50.8509 13.1126 50.8523 13.0749 50.8644C13.0358 50.8765 12.9079 50.9343 12.6911 51.0379C12.5726 51.0944 12.4959 51.1361 12.4595 51.1644C12.4326 51.1845 12.4178 51.202 12.4138 51.2182C12.4097 51.2343 12.4124 51.2518 12.4205 51.2706C12.4299 51.2908 12.4447 51.3029 12.4622 51.307C12.4932 51.3137 12.5336 51.307 12.5834 51.2854L12.8487 51.1617V51.163Z" fill="white"/>
<path d="M13.6014 51.5524L12.947 51.9331C12.8986 51.9614 12.8676 51.9815 12.8568 51.9937C12.8461 52.0058 12.8393 52.0219 12.8393 52.0407C12.8393 52.0596 12.8474 52.0838 12.8649 52.1147L12.8757 52.1336L12.8541 52.1457L12.6091 51.7246L12.6306 51.7125L12.6427 51.734C12.6629 51.7677 12.6804 51.7905 12.6966 51.7999C12.7128 51.8094 12.7289 51.8134 12.7464 51.8107C12.7626 51.808 12.7962 51.7919 12.8474 51.7623L13.2621 51.5215C13.2985 51.5 13.3214 51.4852 13.3281 51.4758C13.3348 51.4663 13.3389 51.4556 13.3402 51.4421C13.3402 51.4287 13.3375 51.4152 13.3308 51.4031C13.3187 51.3829 13.2985 51.3628 13.2689 51.3412L13.2837 51.3184L13.5893 51.5349L13.6001 51.5538L13.6014 51.5524Z" fill="white"/>
<path d="M13.6848 52.5228C13.6094 52.5767 13.5327 52.617 13.4532 52.6426C13.4048 52.6587 13.359 52.6654 13.3186 52.6627C13.2782 52.6601 13.2405 52.6506 13.2055 52.6345C13.1705 52.6184 13.1422 52.5941 13.1193 52.5632C13.0937 52.5269 13.0789 52.4879 13.0762 52.4462C13.0735 52.4045 13.0816 52.3587 13.0991 52.3116C13.1126 52.278 13.1355 52.239 13.1678 52.1973C13.2122 52.1408 13.2647 52.091 13.3253 52.0466C13.4061 51.9874 13.4896 51.9444 13.5744 51.9188C13.6444 51.8973 13.7077 51.8946 13.7656 51.9108C13.8235 51.9269 13.868 51.9565 13.8989 51.9996C13.9299 52.0426 13.9447 52.0937 13.9434 52.1529C13.9407 52.2121 13.9218 52.2686 13.8841 52.3224C13.833 52.3964 13.767 52.4637 13.6848 52.5228ZM13.5623 52.352C13.6929 52.2565 13.7697 52.2013 13.7899 52.1838C13.8383 52.1435 13.8666 52.1085 13.8747 52.0816C13.8801 52.0641 13.8747 52.0453 13.8599 52.0238C13.8478 52.0076 13.8343 51.9982 13.8195 51.9955C13.7966 51.9915 13.767 51.9982 13.7306 52.017C13.6943 52.0359 13.5798 52.1152 13.3846 52.2565C13.2782 52.3332 13.2095 52.3883 13.1799 52.422C13.1584 52.4462 13.1462 52.4663 13.1449 52.4838C13.1435 52.5 13.1489 52.5175 13.1611 52.5336C13.1745 52.5524 13.1907 52.5619 13.2082 52.5619C13.2405 52.5619 13.2782 52.5484 13.3226 52.5188L13.5623 52.3493V52.352Z" fill="white"/>
<path d="M14.1588 53.0374C14.0915 53.1006 14.0201 53.1504 13.9433 53.1867C13.8976 53.2096 13.8531 53.2217 13.8127 53.2244C13.7723 53.227 13.7333 53.223 13.6969 53.2109C13.6606 53.2001 13.6296 53.18 13.6027 53.1517C13.5717 53.1194 13.5529 53.0818 13.5448 53.0401C13.5367 52.9984 13.538 52.9526 13.5502 52.9042C13.5582 52.8679 13.5771 52.8275 13.604 52.7818C13.6417 52.7199 13.6862 52.6634 13.74 52.6123C13.8127 52.5437 13.8895 52.4899 13.9703 52.4535C14.0363 52.4226 14.0995 52.4118 14.1588 52.4213C14.218 52.4307 14.2665 52.4535 14.3029 52.4926C14.3392 52.5316 14.3608 52.58 14.3661 52.6392C14.3715 52.6984 14.3594 52.7562 14.3298 52.8154C14.2894 52.8961 14.2315 52.9701 14.1588 53.0401V53.0374ZM14.0161 52.884C14.1332 52.7724 14.2019 52.7078 14.2194 52.6876C14.2625 52.6405 14.2854 52.6042 14.2907 52.576C14.2934 52.5571 14.2867 52.5396 14.2692 52.5208C14.2557 52.506 14.2409 52.4993 14.2261 52.4979C14.2032 52.4979 14.1749 52.5074 14.1413 52.5316C14.1076 52.5544 14.0039 52.6486 13.8289 52.8141C13.7333 52.9042 13.6727 52.9674 13.6471 53.0051C13.6283 53.032 13.6188 53.0535 13.6202 53.071C13.6202 53.0871 13.6283 53.1033 13.6431 53.1194C13.6592 53.1356 13.6754 53.1436 13.6942 53.1423C13.7252 53.1383 13.7616 53.1194 13.802 53.0858L14.0174 52.8867L14.0161 52.884Z" fill="white"/>
<path d="M14.8495 52.9717L14.3944 53.5757C14.3607 53.6215 14.3405 53.6511 14.3351 53.6672C14.3298 53.682 14.3298 53.6995 14.3365 53.717C14.3432 53.7345 14.3607 53.7533 14.389 53.7748L14.4065 53.7869L14.3917 53.8071L14.0026 53.5138L14.0174 53.4937L14.0376 53.5085C14.0685 53.5327 14.0941 53.5461 14.113 53.5488C14.1318 53.5515 14.148 53.5488 14.1628 53.5394C14.1776 53.53 14.2018 53.5031 14.2369 53.456L14.525 53.074C14.5506 53.0403 14.5654 53.0175 14.5681 53.0067C14.5708 52.9959 14.5708 52.9838 14.5667 52.9717C14.5627 52.9596 14.5546 52.9489 14.5425 52.9394C14.5237 52.926 14.4967 52.9139 14.4617 52.9058L14.4671 52.8789L14.8334 52.9596L14.8509 52.9731L14.8495 52.9717Z" fill="white"/>
<path d="M15.3506 53.782C15.3115 53.8654 15.2644 53.938 15.2065 53.9999C15.1715 54.0376 15.1365 54.0658 15.0988 54.0833C15.0611 54.1008 15.0247 54.1102 14.987 54.1143C14.9493 54.117 14.9129 54.1102 14.8766 54.0941C14.8362 54.0752 14.8039 54.0483 14.781 54.012C14.7581 53.9757 14.7433 53.934 14.7352 53.8842C14.7298 53.8479 14.7312 53.8035 14.7393 53.7497C14.7514 53.6784 14.7716 53.6098 14.8039 53.5425C14.8456 53.4511 14.8981 53.373 14.9587 53.3098C15.0085 53.256 15.0638 53.2224 15.1217 53.2089C15.1796 53.1955 15.2334 53.1995 15.2805 53.221C15.329 53.2439 15.3667 53.2816 15.3936 53.334C15.4206 53.3865 15.4313 53.4457 15.4246 53.5116C15.4165 53.6017 15.391 53.6919 15.3492 53.7833L15.3506 53.782ZM15.1607 53.6919C15.2294 53.5452 15.2671 53.4591 15.2778 53.4336C15.3007 53.3744 15.3088 53.3313 15.3021 53.3031C15.298 53.2856 15.2846 53.2708 15.2617 53.2601C15.2442 53.252 15.228 53.2506 15.2132 53.256C15.1917 53.2641 15.1688 53.2843 15.1472 53.3179C15.1243 53.3515 15.0638 53.478 14.9614 53.6959C14.9062 53.8143 14.8739 53.8963 14.8631 53.9407C14.855 53.973 14.855 53.9959 14.8631 54.012C14.8712 54.0282 14.8833 54.0389 14.9022 54.0483C14.9224 54.0578 14.9412 54.0591 14.9574 54.0497C14.9857 54.0349 15.0112 54.004 15.0368 53.9569L15.1621 53.6919H15.1607Z" fill="white"/>
<path d="M16.0466 53.9328C16.0291 54.023 15.9995 54.105 15.9577 54.179C15.9335 54.2247 15.9052 54.2597 15.8729 54.2853C15.8406 54.3108 15.8069 54.3297 15.7706 54.3418C15.7342 54.3539 15.6965 54.3552 15.6588 54.3485C15.6157 54.3404 15.578 54.3203 15.547 54.292C15.5161 54.2638 15.4918 54.2247 15.473 54.1777C15.4595 54.144 15.4501 54.0996 15.446 54.0458C15.4407 53.9732 15.446 53.9019 15.4595 53.8293C15.4784 53.7311 15.5107 53.6436 15.5551 53.5656C15.5915 53.5024 15.6359 53.4566 15.6898 53.4297C15.7436 53.4028 15.7961 53.3948 15.8473 53.4042C15.8998 53.4149 15.9456 53.4418 15.9846 53.4876C16.0237 53.5333 16.0479 53.5871 16.056 53.6517C16.0695 53.7405 16.0668 53.8346 16.0466 53.9342V53.9328ZM15.8406 53.8911C15.8715 53.7324 15.889 53.6396 15.8931 53.6127C15.9012 53.5494 15.8985 53.5064 15.8864 53.4808C15.8783 53.4647 15.8608 53.4539 15.8365 53.4486C15.8177 53.4445 15.8015 53.4472 15.7881 53.4553C15.7679 53.4674 15.7517 53.493 15.7382 53.5306C15.7248 53.5683 15.6938 53.7055 15.648 53.9423C15.6224 54.07 15.6103 54.1575 15.6103 54.2032C15.6103 54.2355 15.6157 54.2597 15.6265 54.2718C15.6373 54.2853 15.6521 54.2934 15.6723 54.2974C15.6952 54.3014 15.7127 54.2974 15.7261 54.2866C15.7504 54.2651 15.7679 54.2288 15.7813 54.1777L15.8406 53.8911Z" fill="white"/>
<path d="M16.534 53.4316L16.5919 54.185C16.596 54.2415 16.6014 54.2778 16.6081 54.2926C16.6148 54.3074 16.6256 54.3195 16.6417 54.3289C16.6579 54.337 16.6848 54.341 16.7185 54.3383H16.74L16.7414 54.3612L16.2553 54.3988V54.3733L16.2782 54.3719C16.3172 54.3693 16.3455 54.3625 16.3617 54.3518C16.3778 54.341 16.3886 54.3276 16.3926 54.3114C16.3967 54.2953 16.398 54.2576 16.3926 54.1998L16.3563 53.7222C16.3536 53.6792 16.3482 53.6536 16.3442 53.6428C16.3388 53.6321 16.3307 53.624 16.3199 53.6173C16.3092 53.6106 16.2957 53.6079 16.2809 53.6092C16.258 53.6106 16.2297 53.62 16.1988 53.6375L16.1853 53.6146L16.5125 53.433H16.5354L16.534 53.4316Z" fill="white"/>
</svg>
