<svg width="37" height="37" viewBox="0 0 37 37" fill="none" xmlns="http://www.w3.org/2000/svg">
<path d="M27.7077 9.29169H27.7244M10.1288 1.75789H26.8706C31.4937 1.75789 35.2415 5.50566 35.2415 10.1288V26.8706C35.2415 31.4937 31.4937 35.2415 26.8706 35.2415H10.1288C5.50566 35.2415 1.75789 31.4937 1.75789 26.8706V10.1288C1.75789 5.50566 5.50566 1.75789 10.1288 1.75789ZM25.1964 17.4449C25.403 18.8383 25.165 20.2613 24.5163 21.5115C23.8675 22.7618 22.8411 23.7757 21.5829 24.409C20.3247 25.0423 18.8989 25.2627 17.5082 25.0389C16.1175 24.8151 14.8328 24.1585 13.8368 23.1625C12.8408 22.1665 12.1842 20.8818 11.9604 19.4911C11.7367 18.1005 11.9571 16.6746 12.5904 15.4165C13.2236 14.1583 14.2375 13.1318 15.4878 12.4831C16.7381 11.8343 18.1611 11.5963 19.5544 11.803C20.9757 12.0137 22.2914 12.676 23.3074 13.6919C24.3234 14.7079 24.9856 16.0237 25.1964 17.4449Z" stroke="white" stroke-width="3.5" stroke-linecap="round" stroke-linejoin="round"/>
</svg>
