<svg width="150" height="141" viewBox="0 0 150 141" fill="none" xmlns="http://www.w3.org/2000/svg">
<path d="M92.7699 67.898C92.3678 68.4462 92.0023 68.9214 91.4176 69.6889C92.2216 69.7985 92.7699 69.9447 93.3181 69.9447C98.6541 69.9447 103.99 69.9081 109.363 69.9447C112.177 69.9812 115.028 70.2371 117.842 70.4198C121.204 70.6026 124.493 71.297 127.71 72.3934C131.767 73.7822 135.531 75.7193 138.601 78.7528C140.501 80.6532 142.439 82.5172 144.047 84.637C146.642 88.0359 148.432 91.8735 148.981 96.1861C149.054 96.6247 149.163 97.0633 149.273 97.5019C149.748 99.1465 150.114 100.755 149.967 102.509C149.748 104.665 149.967 106.895 149.894 109.051C149.858 110.221 149.529 111.354 149.31 112.487C149.273 112.742 149.127 112.998 149.09 113.254C148.213 118.736 145.728 123.414 142.292 127.69C138.857 131.967 134.435 135 129.683 137.595C128.039 138.509 126.248 139.203 124.42 139.569C121.825 140.08 119.121 140.153 116.453 140.409C114.808 140.555 113.127 140.775 111.482 140.811C109.107 140.921 106.731 140.921 104.356 140.921C102.309 140.921 100.262 140.884 98.2155 140.848C96.5708 140.848 94.8896 140.848 93.245 140.775C92.3313 140.775 91.4176 140.592 90.5404 140.628C89.5536 140.628 89.1882 140.263 89.2247 139.276C89.2247 135.256 89.2247 131.236 89.2247 127.215C89.2247 124.291 89.1151 121.404 89.1151 118.48C89.1151 114.314 89.1882 110.147 89.2247 106.018C89.2247 105.579 89.1516 105.14 89.1151 104.556C87.8359 104.811 86.7029 105.031 85.5699 105.287C84.5466 105.506 83.5232 105.762 82.4999 105.908C82.2075 105.944 81.7324 105.725 81.5862 105.469C81.44 105.213 81.5496 104.738 81.6593 104.446C82.9385 101.668 84.2542 98.9272 85.5334 96.1496C86.3374 94.3953 86.9587 92.6044 87.7628 90.8501C88.2014 89.8999 87.7628 89.6075 86.9222 89.5344C86.5933 89.5344 86.2643 89.6075 85.8988 89.6075C84.9121 89.6806 84.1811 89.3882 83.5963 88.5111C82.8288 87.4146 81.8786 86.4278 80.9649 85.4045C80.4532 84.8197 79.905 84.8563 79.2837 85.4045C77.9314 86.6106 76.6157 87.9628 75.0807 88.84C73.5091 89.7171 71.6451 90.3385 69.8543 90.5577C65.5416 91.0694 61.5945 89.7537 58.2321 86.976C55.7833 84.9659 54.1021 82.2979 53.8829 79.1548C53.7732 77.4005 54.358 75.4634 55.0889 73.8188C56.4412 70.7853 59.0361 68.8483 61.9234 67.2767C62.362 67.0209 63.1295 66.8381 62.6909 66.0706C61.7407 64.3163 61.3752 64.1336 60.3153 64.8645C59.5843 65.3762 58.8899 65.8879 58.2321 66.4726C56.2585 68.2635 53.956 69.4696 51.6534 70.7853C48.2545 72.7589 44.4535 72.7589 40.7987 73.636C37.0343 74.5863 33.4526 73.5264 29.7612 73.0878C23.8039 72.3569 18.6872 69.7254 13.9725 66.1437C11.1218 63.9874 8.74615 61.429 6.77256 58.5052C5.45684 56.5316 3.99492 54.558 3.19086 52.3651C2.24062 49.8068 1.18073 47.285 0.742152 44.5073C0.230481 41.4373 -0.134999 38.3673 0.0477412 35.2973C0.230481 32.5927 0.559412 29.8516 1.29037 27.2567C2.05788 24.4425 3.19086 21.738 4.39695 19.1065C5.05481 17.6446 6.18779 16.3654 7.13804 15.0131C7.64971 14.2822 8.23448 13.5878 8.7827 12.8568C10.2812 10.737 12.2548 9.09237 14.4476 7.7401C16.2019 6.64366 17.7735 5.25484 19.5643 4.2315C22.5978 2.51374 25.9237 1.34421 29.3592 0.832539C33.6353 0.211224 37.948 -0.483187 42.2972 0.46706C46.2809 1.30766 50.3743 1.78279 53.8829 4.12185C56.295 5.69342 58.561 7.44772 60.7904 9.23857C61.9965 10.2254 61.9599 10.7736 60.6808 11.87C59.1092 13.2223 57.428 14.4649 55.8199 15.7806C55.0524 16.402 54.2483 16.9502 53.4808 17.608C52.8595 18.1197 52.4575 18.1197 51.9093 17.4253C50.4839 15.6345 48.7296 14.2091 46.4636 13.5147C44.8555 13.003 43.284 12.3817 41.7124 11.9066C41.0545 11.6873 40.3236 11.6142 39.5926 11.5776C37.5459 11.5045 35.4992 11.3218 33.4891 11.5045C32.0637 11.6507 30.6384 12.1989 29.2495 12.7106C27.8242 13.2588 26.3623 13.8071 25.0465 14.6111C23.7308 15.4152 22.4882 16.402 21.3917 17.4619C19.3085 19.5085 17.408 21.738 16.2385 24.4791C15.7634 25.612 15.471 26.8547 15.1786 28.0608C14.6669 30.3633 14.0456 32.6658 13.8263 35.0049C13.6436 37.2708 13.8263 39.6099 14.0822 41.8759C14.4111 45.019 15.3248 48.089 16.8232 50.8301C19.9664 56.6413 24.6445 60.3691 31.3328 61.758C34.8779 62.4889 38.35 62.4524 41.7855 61.758C45.1114 61.0635 48.1448 59.6016 50.6666 57.2626C51.4341 56.5316 52.2017 55.8007 52.8961 54.9966C53.4077 54.4118 53.8098 54.4484 54.3945 54.9966C55.4179 55.8737 56.5143 56.6778 57.6838 57.4088C58.5975 57.957 58.9996 57.6646 58.8168 56.6778C58.5244 54.96 59.2554 53.6078 60.2057 52.292C61.7772 50.0992 63.7873 48.4545 66.4188 47.7966C70.5853 46.7733 74.4228 46.956 77.7487 50.2454C79.3568 51.8535 80.7456 53.4981 81.3669 55.6179C81.6958 56.7143 81.9151 58.0666 81.5862 59.1265C80.4167 62.8544 77.9314 65.632 74.569 67.5691C73.5091 68.1904 73.436 68.5193 74.2766 69.433C75.8847 71.2239 77.5294 73.0147 79.1009 74.8421C79.5395 75.3538 79.8684 75.4269 80.2705 74.8787C81.5496 72.9782 82.7557 71.0046 84.0349 69.1041C84.2176 68.8117 84.51 68.5193 84.8024 68.4097C85.6065 68.1904 86.4105 68.0442 87.2511 68.0077C89.0054 67.9346 90.7597 68.0077 92.6968 68.0077L92.7699 67.898ZM101.724 115.52C101.724 119.723 101.724 123.926 101.724 128.129C101.724 129.262 102.09 129.847 103.223 129.847C104.794 129.847 106.402 129.737 107.974 129.774C113.054 129.847 118.134 129.591 122.958 127.873C124.969 127.142 126.979 126.229 128.66 124.949C130.414 123.597 131.913 121.806 133.302 120.015C134.215 118.846 134.946 117.42 135.348 116.032C135.97 113.948 136.152 111.756 136.737 109.672C137.395 107.406 137.505 105.14 137.249 102.838C137.029 100.828 136.993 98.7445 136.408 96.844C135.714 94.4318 134.727 92.0562 133.557 89.8268C132.461 87.707 130.78 85.9527 128.55 84.8928C128.185 84.7101 127.527 84.7466 127.271 84.9659C122.703 89.3151 117.513 92.8603 112.213 96.1861C109.618 97.8308 106.768 99.11 103.954 100.426C101.87 101.412 101.761 101.449 101.761 103.715C101.761 107.662 101.761 111.573 101.761 115.52H101.724ZM116.416 81.4939C116.416 81.4939 116.343 81.238 116.307 81.0918C115.503 80.9091 114.662 80.6167 113.858 80.5801C111.738 80.4705 109.618 80.5071 107.535 80.434C105.671 80.3609 103.844 80.2512 102.016 80.105C101.249 80.0319 100.884 80.2878 100.664 80.9456C100.299 82.2248 100.006 83.504 99.4581 84.7101C98.179 87.6705 96.8267 90.5577 95.511 93.4816C95.4013 93.7374 95.4379 94.0298 95.4379 94.3222C95.7302 94.3222 96.0226 94.3587 96.2785 94.2491C98.5079 93.1892 100.81 92.1658 102.967 90.9598C106.037 89.242 109.07 87.4512 111.958 85.5141C113.602 84.3811 114.991 82.8827 116.489 81.5304L116.416 81.4939ZM75.7385 80.2512C73.5822 77.8391 71.2431 75.5731 69.233 73.0147C66.967 70.0909 66.2726 71.1508 64.1894 72.6858C64.1894 72.6858 64.1163 72.7223 64.1163 72.7589C60.096 76.1213 60.8635 81.7497 65.6147 83.7964C65.834 83.8695 66.0168 84.0522 66.2361 84.0888C67.5518 84.1984 68.9771 84.637 70.1832 84.308C72.4127 83.7233 74.2401 82.371 75.7751 80.2512H75.7385ZM75.1172 57.9935C75.1172 55.289 73.2533 53.3885 70.8776 53.3885C70.1467 53.3885 69.4523 53.3885 68.7213 53.3885C66.6015 53.425 64.5548 56.7874 65.4686 58.7245C65.834 59.492 66.163 60.2229 66.4919 60.9905C67.7711 63.9508 69.4157 64.4625 72.0472 62.7082C72.3396 62.5255 72.5954 62.3062 72.8878 62.1234C74.5324 61.1001 74.569 59.3093 75.1172 58.0301V57.9935ZM88.4938 75.098C88.4938 75.098 88.2745 75.098 88.1283 75.098C87.0318 76.3406 85.8988 77.5467 84.912 78.8624C84.6562 79.1913 84.51 80.0319 84.7293 80.2512C85.7892 81.4208 86.9587 82.4806 88.2745 83.7233C88.7496 80.7263 88.4938 77.9121 88.4938 75.098Z" fill="#FBFBFB"/>
</svg>
