<svg width="144" height="35" viewBox="0 0 144 35" fill="none" xmlns="http://www.w3.org/2000/svg">
<path d="M-0.000421215 34.165L16.0694 -0.000321374H22.5514L38.5762 34.165H32.1392L28.3131 26.1075H10.2627L6.48153 34.165H-0.000421215ZM12.6934 20.7959H25.9274L19.3104 6.75171L12.6934 20.7959ZM41.5703 34.165V-0.000321374H47.8272V28.8083H69.7938V34.165H41.5703ZM74.4513 34.165V-0.000321374H98.8486C104.04 -0.000321374 106.636 2.0703 106.636 6.21155V15.0342C106.636 19.1754 104.04 21.2461 98.8486 21.2461H80.7081V34.165H74.4513ZM80.7081 15.8444H98.3084C99.6888 15.8444 100.379 15.2893 100.379 14.1789V7.0668C100.379 5.95647 99.6888 5.4013 98.3084 5.4013H80.7081V15.8444ZM111.86 34.165V28.7633H135.672C137.053 28.7633 137.743 28.2082 137.743 27.0978V20.2558C137.743 19.1754 137.053 18.6353 135.672 18.6353H119.602C114.441 18.6353 111.86 16.5647 111.86 12.4234V6.21155C111.86 2.0703 114.441 -0.000321374 119.602 -0.000321374H141.434V5.4013H120.187C118.807 5.4013 118.117 5.95647 118.117 7.0668V11.6132C118.117 12.7235 118.807 13.2787 120.187 13.2787H136.257C141.419 13.2787 144 15.3493 144 19.4905V27.9531C144 32.0943 141.419 34.165 136.257 34.165H111.86Z" fill="#FBFBFB"/>
</svg>
