<svg width="180" height="56" viewBox="0 0 180 56" fill="none" xmlns="http://www.w3.org/2000/svg">
<g clip-path="url(#clip0_3922_4028)">
<path d="M90.843 0.000752271C93.3375 0.522507 95.4591 1.89211 96.4056 4.33318C96.5362 4.66859 96.9325 5.88447 96.9325 6.15466V13.8272L113.583 1.35172C114.576 0.657604 115.714 0.308215 116.866 0.000752271H118.526C120.493 0.44797 122.293 1.32377 123.426 3.05674C125.207 5.77732 124.918 9.11748 122.82 11.5539L101.642 27.6025L101.847 27.9332C108.165 32.9691 115.159 37.4692 121.426 42.5331C124.14 44.7272 125.436 47.5177 124.093 50.979C123.146 53.4154 121.02 54.7896 118.53 55.3114H116.87C115.714 55.0039 114.576 54.6545 113.588 53.9604L96.9372 41.4849V49.1575C96.9372 49.4277 96.5362 50.6482 96.4103 50.979C95.4638 53.4154 93.3422 54.785 90.8476 55.3114C90.3161 55.2648 89.7006 55.3766 89.1877 55.3114C86.0171 54.9107 83.4292 52.1576 83.1122 49.0037L83.0889 6.69971C83.2894 3.85335 84.94 1.44955 87.6257 0.443312L89.1877 -0.00390625H90.8476L90.843 0.000752271Z" fill="#FBFBFB"/>
<path d="M146.914 0L155.106 1.15066C166.964 3.67092 177.716 10.5283 179.684 23.3392C179.809 24.1591 179.772 25.0722 180.001 25.8595V29.4558L179.544 32.6609C176.933 47.1256 162.846 53.6708 149.474 55.0358C148.513 55.1336 147.427 55.0684 146.499 55.3153C145.879 55.2641 145.165 55.3852 144.559 55.3153C139.542 54.7144 136.936 48.9657 139.547 44.7078C141.901 40.8739 146.149 41.6286 150.005 41.0462C157.093 39.9748 165.681 36.9002 166.162 28.5614C166.866 16.4725 154.043 14.6464 144.904 13.8265C136.441 13.0625 136.553 0.959656 144.555 0L146.909 0L146.914 0Z" fill="#FBFBFB"/>
<path d="M35.3256 0C37.3445 0.37734 39.219 1.29507 40.366 3.05599C42.3057 6.01881 41.7601 9.83414 39.1304 12.1681L18.4372 27.9325C18.661 27.9558 18.8615 28.1049 19.034 28.2353C25.3473 32.9963 32.2622 37.6036 38.361 42.5323C41.0747 44.7265 42.3523 47.5123 41.0281 50.9782C40.0862 53.4379 37.8574 54.8727 35.3256 55.3106H33.9407L32.1409 54.8261C22.0788 48.0666 12.5761 40.4173 2.72379 33.3224C1.26902 32.0553 0.420402 30.6717 0.019407 28.7617C0.070697 28.1421 -0.0551966 27.4294 0.019407 26.8238C0.420402 23.4883 2.41605 22.6311 4.71477 20.9354C13.8957 14.1805 22.6803 6.80144 32.1456 0.484486L33.9454 0L35.3302 0L35.3256 0Z" fill="#FBFBFB"/>
<path d="M63.0181 0C63.5683 0.209634 64.1511 0.25156 64.7153 0.447218C67.4244 1.38824 69.1263 4.02031 69.2522 6.83871L69.2288 48.8632C68.9537 51.6071 67.2565 53.9969 64.6127 54.9007C64.0765 55.0824 63.517 55.0964 63.0134 55.3106C62.5658 55.2734 62.0669 55.3619 61.6286 55.3106C58.3227 54.938 55.6696 52.1708 55.4178 48.8632L55.3945 6.83871C55.5857 3.89918 57.1524 1.5047 59.9314 0.447218L61.6286 0L63.0134 0L63.0181 0Z" fill="#FBFBFB"/>
</g>
<defs>
<clipPath id="clip0_3922_4028">
<rect width="180" height="55.3339" fill="white"/>
</clipPath>
</defs>
</svg>
