<svg width="198" height="31" viewBox="0 0 198 31" fill="none" xmlns="http://www.w3.org/2000/svg">
<path d="M0.000352649 30.4556V0.000468286H5.57777V25.6806H25.1589V30.4556H0.000352649ZM29.2705 30.4556V0.000468286H34.8479V30.4556H29.2705ZM40.1256 30.4556V0.000468286H61.4723C66.1001 0.000468286 68.4139 1.84623 68.4139 5.53776V9.18916C68.4139 11.5967 67.4108 13.2284 65.4045 14.0844C67.7051 14.8602 68.8553 16.5455 68.8553 19.1402V24.9183C68.8553 28.6098 66.5548 30.4556 61.9538 30.4556H40.1256ZM45.703 25.6806H61.4321C62.6627 25.6806 63.2779 25.1858 63.2779 24.196V18.0568C63.2779 17.0938 62.6627 16.6123 61.4321 16.6123H45.703V25.6806ZM45.703 11.8374H60.9908C62.2213 11.8374 62.8365 11.3425 62.8365 10.3528V6.26001C62.8365 5.27025 62.2213 4.77538 60.9908 4.77538H45.703V11.8374ZM74.2556 30.4556V0.000468286H101.22V4.77538H79.833V11.7973H100.096V16.5722H79.833V25.6405H101.22V30.4556H74.2556ZM105.368 30.4556V0.000468286H127.116C131.744 0.000468286 134.058 1.84623 134.058 5.53776V12.6801C134.058 14.5258 133.523 15.9035 132.453 16.813C131.41 17.7225 129.711 18.1906 127.357 18.2173L135.422 30.4556H128.32L120.255 18.2173H110.946V30.4556H105.368ZM110.946 13.4023H126.635C127.865 13.4023 128.481 12.9074 128.481 11.9177V6.30014C128.481 5.31038 127.865 4.8155 126.635 4.8155H110.946V13.4023ZM136.265 4.8155V0.000468286H165.356V4.8155H153.639V30.4556H148.022V4.8155H136.265ZM165.338 0.000468286H172.561L181.669 13.7233L190.818 0.000468286H198L184.92 18.9396V30.4556H178.459V18.9396L165.338 0.000468286Z" fill="#FBFBFB"/>
</svg>
