<svg width="150" height="174" viewBox="0 0 150 174" fill="none" xmlns="http://www.w3.org/2000/svg">
<path d="M1.075 117.489C1.075 115.097 1.075 112.741 1.075 110.349C1.075 107.671 1.1107 105.03 1.075 102.352C0.932198 95.355 0.967897 88.3936 0.539505 81.3965C0.325308 78.0408 0.468106 74.7207 0.396707 71.4007C0.325308 67.0811 0.253909 62.7971 0.182511 58.4775C0.182511 56.9067 -0.0316859 55.3717 0.00401354 53.8009C0.00401354 53.3011 0.361008 52.6228 0.753701 52.3372C1.93178 51.4804 3.18126 50.7307 4.46644 50.0881C10.7138 46.8395 16.9612 43.6623 23.1729 40.4136C28.5635 37.6291 33.8827 34.7731 39.2734 31.9886C41.6652 30.7391 44.1285 29.5253 46.5203 28.3115C47.7341 27.7046 47.7698 27.4904 47.3771 26.2052C46.8773 24.5631 46.4132 22.8495 46.0205 21.1716C45.3066 17.9944 44.664 14.7814 43.9857 11.6042C43.6644 10.0334 42.879 9.78352 41.4153 10.5332C40.38 11.0687 39.1663 11.2472 38.0596 11.6756C35.8462 12.4967 33.6329 13.3535 31.4195 14.2459C30.7412 14.5315 30.3842 14.2459 30.0272 13.7462C29.1704 12.5324 28.3136 11.3186 27.4569 10.1048C26.7072 9.03383 26.85 8.39124 28.0994 7.82006C29.7059 7.10607 31.3124 6.46348 32.9546 5.82089C35.275 4.9284 37.5955 4.10732 39.9516 3.28623C40.9155 2.96494 41.9508 2.75074 42.9504 2.53654C45.0924 2.07245 47.2343 1.67976 49.3763 1.25136C50.3402 1.03717 51.3398 0.680174 52.3036 0.644474C56.7661 0.358879 61.2642 -0.140913 65.7623 0.0375844C69.832 0.216081 73.9732 0.32318 78.0072 1.35846C80.8989 2.10815 83.8976 2.42944 86.825 3.10773C88.8598 3.60752 90.8947 4.28581 92.8582 5.0712C96.1068 6.35638 99.3554 7.64156 102.497 9.17663C108.851 12.2825 114.742 16.1023 119.954 20.8503C126.416 26.7407 132.485 33.0238 136.947 40.6278C140.053 45.9113 142.802 51.409 144.908 57.1923C145.8 59.6913 146.55 62.2616 147.228 64.8677C147.907 67.4738 148.585 70.1155 149.013 72.793C149.477 75.6846 149.763 78.612 149.906 81.5393C150.049 85.2521 150.013 88.9648 149.906 92.6775C149.87 94.284 149.513 95.9262 149.263 97.5327C148.871 100.246 148.656 103.03 147.942 105.636C146.764 110.063 145.408 114.454 143.801 118.774C141.552 124.771 138.446 130.376 134.734 135.588C132.77 138.337 130.557 140.907 128.343 143.442C123.31 149.297 117.419 154.152 111.101 158.507C105.996 162.006 100.462 164.755 94.7859 167.146C92.287 168.217 89.7166 169.146 87.1105 169.824C83.612 170.716 80.0064 171.502 76.4364 171.966C71.6884 172.608 66.9404 173.144 62.1567 173.215C57.9798 173.287 53.7673 172.823 49.6262 172.323C46.7345 171.966 43.9143 171.145 41.0583 170.467C39.5947 170.11 39.3091 169.467 39.8802 168.11C40.3443 166.932 40.7013 165.719 41.2368 164.576C41.4153 164.183 41.9865 163.862 42.4506 163.719C42.879 163.577 43.4145 163.719 43.8786 163.791C45.735 164.112 47.5913 164.54 49.4477 164.826C51.9109 165.219 54.3385 165.647 56.8018 165.826C59.4078 166.004 62.0496 165.861 64.6913 165.933C69.368 166.04 73.9375 165.29 78.507 164.54C80.1135 164.255 81.6842 163.826 83.255 163.469C83.969 163.291 84.683 163.112 85.397 162.97C86.111 162.827 86.5394 162.613 86.3252 161.72C85.3613 157.972 84.4688 154.223 83.5049 150.511C83.1479 149.083 82.9694 149.047 81.7199 149.797C75.9723 153.081 70.2247 156.365 64.5128 159.685C63.8702 160.078 63.3348 160.114 62.6565 159.721C55.5166 155.58 48.3767 151.474 41.2368 147.333C37.1671 144.977 33.0974 142.585 28.9919 140.229C20.8168 135.588 12.6416 130.947 4.46644 126.342C4.39504 126.306 4.32364 126.271 4.28794 126.235C2.03888 125.271 1.21779 123.486 1.32489 121.13C1.36059 119.916 1.32489 118.667 1.32489 117.453C1.25349 117.453 1.18209 117.453 1.1107 117.453L1.075 117.489ZM2.89567 56.4426C2.78857 57.0852 2.68147 57.2994 2.68147 57.5493C2.75287 60.798 2.82427 64.0823 2.85997 67.331C2.85997 68.9374 2.85997 70.5439 2.89567 72.1147C3.18126 78.8619 3.50255 85.6091 3.71675 92.3562C3.78815 94.3911 3.53825 96.426 3.53825 98.4608C3.53825 100.567 3.68105 102.673 3.71675 104.815C3.82385 109.421 3.85955 114.026 3.96665 118.631C3.96665 118.845 4.03805 119.024 4.10944 119.274C4.28794 119.166 4.39504 119.131 4.46644 119.024C6.8583 116.025 9.25016 113.062 11.6063 110.027C12.9272 108.314 14.5337 107.707 16.3186 108.385C16.1044 108.707 15.9259 109.028 15.7118 109.278C13.3556 112.205 11.0351 115.132 8.67897 118.06C7.50089 119.523 6.42991 121.023 5.18043 122.379C4.50214 123.129 4.60924 123.415 5.39462 123.843C9.82135 126.342 14.2838 128.841 18.6748 131.376C30.17 137.98 41.6652 144.62 53.1247 151.26C54.3028 151.939 55.4809 152.581 56.659 153.224C56.7304 153.152 56.8375 153.081 56.9089 153.01C56.7304 152.438 56.5876 151.831 56.3734 151.26C56.1592 150.582 55.8379 149.939 55.6594 149.261C54.9454 146.834 54.3028 144.406 53.5888 141.978C52.2679 137.48 50.8757 133.018 49.5548 128.555C48.0911 123.629 46.6631 118.738 45.2709 113.812C44.8425 112.312 44.5212 110.813 44.2356 109.278C44.1999 108.956 44.6283 108.314 44.9139 108.242C45.3423 108.135 45.8777 108.421 46.2704 108.635C46.4846 108.742 46.6274 109.099 46.6988 109.385C47.1272 110.634 47.5556 111.92 47.9483 113.169C48.6266 115.347 49.3406 117.524 49.9832 119.738C50.6972 122.272 51.3398 124.807 52.0894 127.342C53.1247 130.804 54.2671 134.267 55.3381 137.73C56.8018 142.621 58.3725 147.512 59.5506 152.474C60.0147 154.402 60.8001 155.508 62.478 156.401C63.2634 156.829 63.6203 156.758 64.013 156.115C64.6199 155.151 65.1911 154.152 65.798 153.152C70.6174 145.084 75.4011 136.98 80.2206 128.948C80.7918 128.02 80.7561 127.413 79.935 126.663C75.9723 122.986 72.0811 119.309 68.1542 115.597C66.4406 113.954 64.6913 112.312 63.0135 110.634C62.2638 109.885 61.5855 108.992 60.7287 107.993C62.5137 107.921 63.9059 107.993 65.084 109.135C69.5107 113.383 73.9375 117.596 78.3999 121.773C79.578 122.879 80.7918 123.95 82.0769 125.093C82.2911 124.807 82.4696 124.628 82.5767 124.414C85.0757 119.488 87.5746 114.526 90.0736 109.599C91.0018 107.778 91.7158 107.528 93.7863 108.242C90.7876 114.169 87.8245 120.13 84.7544 126.164C85.6112 126.164 86.2895 126.235 87.0035 126.164C89.431 125.949 91.8586 125.628 94.3218 125.414C98.5344 125.057 102.747 124.7 106.924 124.379C109.815 124.129 112.671 123.879 115.563 123.629C116.741 123.522 117.919 123.379 119.097 123.236C119.383 123.201 119.668 122.986 119.954 122.844C119.776 122.558 119.633 122.201 119.419 121.951C117.419 120.059 115.384 118.238 113.35 116.346C111.529 114.668 109.637 113.026 107.888 111.277C106.817 110.206 105.996 108.956 105.174 107.921C106.21 107.993 107.745 107.671 109.03 108.885C110.636 110.42 112.279 111.92 113.921 113.419C116.134 115.454 118.348 117.489 120.561 119.523C121.096 120.023 121.668 120.487 122.382 121.13C122.453 120.63 122.489 120.452 122.489 120.273C122.56 116.025 122.667 111.741 122.703 107.493C122.703 106.065 122.489 104.601 122.56 103.173C122.703 99.2819 122.988 95.3907 123.167 91.4995C123.31 88.7149 123.345 85.9304 123.417 83.1458C123.453 81.3608 123.524 79.5759 123.56 77.7909C123.56 76.1487 123.56 74.5422 123.56 72.9001C123.56 71.4007 123.56 69.9013 123.56 68.2591C123.274 68.4376 122.846 68.5447 122.596 68.8303C120.668 71.0437 118.776 73.2928 116.92 75.5775C116.027 76.6842 115.027 77.1126 113.707 76.6842C112.993 76.47 112.778 76.113 113.35 75.5061C114.313 74.4351 115.277 73.3642 116.241 72.2575C118.348 69.8656 120.382 67.4024 122.524 65.0105C123.417 63.9752 123.488 63.9038 122.31 63.0827C119.668 61.1907 116.991 59.2986 114.314 57.4065C109.28 53.8366 104.211 50.3023 99.177 46.7681C95.1429 43.9479 91.1089 41.199 87.0749 38.3787C80.6133 33.8449 74.1874 29.3111 67.7615 24.7773C67.6187 24.6702 67.4402 24.6702 67.0832 24.5274C67.2617 25.0629 67.3331 25.3842 67.4759 25.7055C69.475 30.7034 71.4385 35.737 73.4377 40.7349C75.9723 47.018 78.5427 53.2654 81.0774 59.5128C82.8266 63.8324 84.5759 68.1877 86.2895 72.5431C86.5037 73.0786 86.6822 73.6855 86.7536 74.2566C86.7536 74.4351 86.5037 74.7921 86.3252 74.8278C85.0043 75.1134 83.9333 74.4708 83.4335 73.1857C82.9694 71.9719 82.5053 70.7581 82.0055 69.5443C79.6851 63.7253 77.3289 57.9063 75.0085 52.0516C73.2235 47.5535 71.4742 43.0554 69.6892 38.5929C68.1542 34.7374 66.5834 30.8819 65.0483 27.0263C64.727 26.2052 64.4057 25.3485 64.0487 24.3132C63.7631 24.7059 63.5847 24.9201 63.4776 25.1343C60.7287 31.4888 57.9798 37.8076 55.231 44.162C53.4817 48.2675 51.8038 52.3729 50.0546 56.514C48.2696 60.798 46.4489 65.0819 44.6283 69.3301C43.95 70.9366 43.2003 72.5074 42.4506 74.0781C42.0936 74.8635 40.8084 75.1848 39.7732 74.685C38.845 74.2209 39.5947 73.5784 39.7732 73.0786C41.4867 68.9374 43.2717 64.7963 45.0567 60.6552C47.0558 56.0142 49.1621 51.409 51.1613 46.7681C54.0886 39.9495 56.9803 33.0952 59.9076 26.2409C60.2289 25.527 60.5502 24.813 60.8715 24.0633L60.6573 23.8134C41.7723 33.8806 22.8159 43.7337 3.60965 53.6938C12.0347 61.2264 20.9953 67.6166 29.1347 75.0063C28.3493 75.1134 27.6354 74.8635 26.9928 75.0063C25.779 75.2562 24.9222 74.685 24.1011 73.971C20.6026 71.0437 17.104 68.1163 13.5698 65.2247C11.285 63.3326 8.92886 61.512 6.6441 59.6199C5.46602 58.656 4.28794 57.6207 2.89567 56.4426ZM50.3759 26.4551C51.2684 25.9554 51.9823 25.527 52.732 25.1343C56.302 23.2779 59.8362 21.4215 63.4419 19.6009C63.6917 19.4938 64.1201 19.4581 64.2986 19.6009C65.9765 20.6718 67.6544 21.8142 69.2966 22.9566C72.7594 25.3485 76.1865 27.776 79.6494 30.1679C83.2193 32.6311 86.825 35.0944 90.3592 37.5934C93.465 39.771 96.5352 41.9844 99.641 44.162C105.853 48.5174 112.1 52.8013 118.312 57.1566C120.704 58.7988 123.024 60.5124 125.38 62.2259C126.059 62.7257 126.773 63.1898 126.701 64.2251C126.38 69.7585 126.059 75.3276 125.88 80.861C125.773 84.6095 125.88 88.3579 125.88 92.1063C125.88 93.9984 125.88 95.8905 125.809 97.7825C125.559 103.316 125.238 108.814 124.988 114.347C124.845 117.417 124.881 120.523 124.738 123.593C124.738 124.164 124.345 124.95 123.917 125.235C120.954 127.163 117.991 129.055 114.956 130.84C106.424 135.838 97.8561 140.729 89.2882 145.691C88.3957 146.227 87.4676 146.691 86.5751 147.226C85.7897 147.69 85.6826 148.369 85.9325 149.261C86.5037 151.332 87.0392 153.402 87.5389 155.473C87.9673 157.186 88.36 158.936 88.7884 160.649C89.0026 161.506 89.4667 161.827 90.3235 161.399C91.1803 160.97 92.1085 160.649 92.9653 160.221C96.7137 158.4 100.534 156.758 104.103 154.723C108.066 152.474 111.707 149.689 115.313 146.869C119.74 143.406 123.453 139.337 126.773 134.91C129.414 131.376 131.663 127.556 133.877 123.772C135.34 121.201 136.626 118.488 137.661 115.739C138.803 112.705 139.803 109.599 140.517 106.422C141.481 102.174 142.338 97.854 142.802 93.5343C143.337 88.7506 143.373 83.8955 142.659 79.0761C142.159 75.6846 141.909 72.2575 141.124 68.9731C140.338 65.546 139.41 62.1188 137.947 58.8702C136.661 56.0142 135.555 53.0155 134.269 50.1595C131.235 43.4124 126.915 37.522 121.846 32.2028C119.347 29.5967 116.848 27.062 113.957 24.8487C109.173 21.1716 104.139 17.8873 98.7129 15.2812C91.6087 11.8898 84.1832 9.46223 76.365 8.35555C73.5448 7.96285 70.7602 7.21316 67.8686 7.35596C65.1554 7.49876 62.4423 7.35596 59.7291 7.35596C55.5166 7.35596 51.4112 8.35555 47.3057 9.14093C46.4489 9.31943 46.2704 9.74782 46.4846 10.5689C47.1272 12.818 47.6627 15.1027 48.2339 17.3518C48.6266 18.8512 48.9836 20.3862 49.3406 21.8856C49.6976 23.3493 50.0546 24.813 50.483 26.4194L50.3759 26.4551ZM117.312 126.378C117.312 126.378 117.241 126.199 117.169 126.128C114.992 126.413 112.85 126.735 110.672 126.913C105.924 127.342 101.14 127.699 96.3567 128.127C92.4298 128.448 88.5385 128.877 84.6116 129.162C83.6477 129.234 82.9694 129.555 82.5053 130.34C81.9698 131.269 81.47 132.232 80.8989 133.161C77.079 139.551 73.2235 145.977 69.368 152.367C68.9753 153.045 68.5826 153.724 68.1542 154.366C68.2256 154.402 68.2613 154.473 68.3327 154.509L117.277 126.378H117.312Z" fill="#FBFBFB"/>
<path d="M114.849 90.8226C115.741 91.8222 116.705 92.6076 117.241 93.5715C119.775 98.0696 117.883 101.997 113.956 104.46C112.528 105.352 110.958 105.781 109.208 105.709C106.317 105.602 103.425 105.709 100.498 105.709C100.176 105.709 99.8194 105.709 99.4981 105.709C97.4632 105.566 97.249 105.317 97.249 103.282C97.249 95.285 97.249 87.2884 97.249 79.2917C97.249 77.6852 97.3561 77.5781 98.9626 77.5781C102.104 77.5781 105.246 77.5781 108.423 77.5781C111.707 77.5781 114.563 78.7205 116.348 81.5051C117.062 82.6117 117.276 84.1825 117.276 85.5391C117.276 87.3241 116.741 89.0733 115.242 90.3228C115.099 90.4299 114.992 90.6084 114.885 90.7512C114.849 90.8226 114.849 90.894 114.885 90.8226H114.849ZM106.602 93.2145C105.424 93.2145 104.21 93.2145 103.032 93.2145C102.176 93.2145 101.747 93.5715 101.747 94.3568C101.747 96.4631 101.747 98.6051 101.747 100.711C101.747 101.497 102.176 101.925 103.032 101.889C105.388 101.782 107.78 101.782 110.137 101.604C111.35 101.532 112.635 101.354 113.278 100.069C115.313 96.1775 112.493 93.036 109.28 93.2145C108.387 93.2502 107.495 93.2145 106.602 93.2145ZM101.711 85.2178C101.711 86.2531 101.676 87.2884 101.711 88.3236C101.747 89.0019 101.961 89.7873 102.818 89.7873C105.21 89.7516 107.673 89.7873 110.029 89.3946C111.779 89.0733 113.135 87.6454 112.814 84.8608C112.671 83.5042 111.1 81.7907 109.53 81.6479C107.245 81.4694 104.924 81.4337 102.64 81.3623C101.926 81.3623 101.676 81.7193 101.676 82.3975C101.676 83.3257 101.676 84.2539 101.676 85.1821L101.711 85.2178Z" fill="#FBFBFB"/>
<path d="M58.2307 94.4277C58.5877 92.964 58.8733 91.8217 59.0875 90.6793C59.2303 89.9296 59.3017 89.1442 59.4088 88.3588C59.9086 85.4672 60.4084 82.5755 60.9082 79.7196C61.2295 77.7918 63.5142 76.7208 65.1921 77.7561C65.4063 77.8989 65.5491 78.4701 65.4777 78.7557C65.1207 80.3622 64.6209 81.8972 64.2996 83.5037C63.9069 85.5743 63.6213 87.6805 63.3 89.7511C63.2286 90.1795 63.1929 90.6436 63.0858 91.072C62.5504 93.8208 62.0149 96.5697 61.4794 99.3542C61.1938 100.925 60.9796 102.496 60.5512 104.031C60.4084 104.531 59.9086 105.173 59.4088 105.316C59.1232 105.423 58.3735 104.816 58.1593 104.388C56.4458 100.747 54.8393 97.1052 53.1614 93.4281C52.8044 92.607 52.3403 91.8217 51.9476 91.0363C51.8048 91.0363 51.6977 91.0363 51.5549 91.0363C51.0194 92.1787 50.4483 93.3567 49.9128 94.4991C48.4134 97.7835 46.9854 101.104 45.4503 104.352C45.2361 104.816 44.5222 105.066 44.0581 105.387C43.7725 104.959 43.2727 104.566 43.2013 104.102C42.5587 100.711 41.9875 97.3194 41.3449 93.9279C40.9165 91.6432 40.4167 89.3584 39.9526 87.0736C39.4528 84.5747 38.953 82.04 38.5604 79.5411C38.2748 77.8632 38.5603 77.6133 40.2739 77.5419C40.5238 77.5419 40.8094 77.5419 41.0593 77.4705C41.8804 77.2206 42.3802 77.5776 42.5587 78.363C42.9514 80.4336 43.3084 82.5041 43.7011 84.5747C43.7368 84.8603 43.7011 85.1816 43.7368 85.4672C44.308 88.1089 44.8791 90.7507 45.4503 93.3567C45.5217 93.678 45.5217 93.9993 45.6288 94.6419C46.0929 93.8565 46.4499 93.321 46.7355 92.7141C48.0207 90.0367 49.2702 87.3235 50.6267 84.6818C50.9123 84.1463 51.6263 83.3966 51.9833 83.468C52.5545 83.6108 53.1257 84.2534 53.4113 84.8246C54.8036 87.6091 56.1245 90.4294 57.481 93.2496C57.6238 93.5352 57.8023 93.7851 58.195 94.3563L58.2307 94.4277Z" fill="#FBFBFB"/>
<path d="M72.0445 91.64C72.0445 87.7488 72.0445 83.8219 72.0445 79.9306C72.0445 77.8244 72.4729 77.396 74.5434 77.4317C79.3272 77.5031 84.1109 77.5031 88.9303 77.6102C89.5015 77.6102 90.4297 77.8601 90.5368 78.1814C90.751 79.0739 90.6796 80.0734 90.6082 81.0016C90.6082 81.1801 90.0013 81.3943 89.6443 81.3943C86.0387 81.4657 82.433 81.4657 78.8631 81.5014C78.4704 81.5014 78.042 81.43 77.6493 81.3943C76.8996 81.3586 76.5426 81.7156 76.5426 82.4653C76.5426 84.6787 76.4355 86.9277 76.3998 89.1411C76.3998 89.9622 77.0424 89.8194 77.5065 89.8551C80.9336 89.8551 84.3608 89.8551 87.7522 89.8551C88.3591 89.8551 89.3944 90.105 89.4658 90.3906C89.68 91.3187 89.6443 92.3897 89.3944 93.3179C89.323 93.6035 88.3948 93.8177 87.8236 93.8177C84.5393 93.8534 81.2906 93.8177 78.0063 93.8177C76.5426 93.8177 76.5069 93.8891 76.4712 95.3171C76.4712 96.995 76.5069 98.6728 76.4712 100.351C76.4712 101.315 76.8282 101.672 77.7921 101.636C81.362 101.6 84.932 101.636 88.5019 101.636C90.5725 101.636 91.6078 103.278 90.6439 105.134C90.5011 105.384 90.0727 105.634 89.7514 105.634C87.5023 105.634 85.2176 105.563 82.9685 105.563C80.184 105.563 77.3994 105.634 74.6148 105.67C72.0088 105.67 72.0088 105.67 72.0088 103.1C72.0088 99.2797 72.0088 95.4599 72.0088 91.6043L72.0445 91.64Z" fill="#FBFBFB"/>
<path d="M31.5633 78.008C30.6351 79.079 29.7426 80.1857 28.8144 81.2567C26.494 83.9698 24.1378 86.6473 21.853 89.3961C21.6388 89.646 21.6388 90.36 21.853 90.6099C25.1374 94.5368 28.4574 98.4281 31.7418 102.355C32.5629 103.319 33.2768 104.354 34.2407 105.639C33.4196 105.639 32.9555 105.639 32.5272 105.639C31.9917 105.639 31.4562 105.425 30.9921 105.532C29.4927 105.889 28.7073 105.14 27.8505 104.069C24.9589 100.499 21.9601 97.0001 18.9971 93.4659C18.89 93.3588 18.7829 93.2874 18.5687 93.1089C17.4977 94.3226 16.1411 95.2865 16.2482 97.2143C16.391 99.4634 16.4624 101.748 16.4267 103.997C16.4267 104.533 15.9983 105.532 15.7484 105.532C14.6418 105.568 13.428 106.139 12.4641 105.211C12.2856 105.032 12.2499 104.675 12.2499 104.39C12.2499 103.783 12.2499 103.212 12.2499 102.605C12.1785 94.6439 12.0714 86.7187 12 78.7577C12 78.4364 12.3213 77.9723 12.6069 77.7938C12.9282 77.5796 13.3923 77.5082 13.785 77.5439C16.2839 77.6867 16.2839 77.6867 16.2839 80.2214C16.2839 82.6846 16.2839 85.1122 16.2839 87.5755C16.2839 88.0039 16.5338 88.4322 16.6766 88.8606C16.9979 88.6464 17.3549 88.4679 17.6048 88.1823C19.9967 85.4335 22.3171 82.6489 24.709 79.9001C25.2445 79.2932 25.8157 78.6863 26.3869 78.1151C26.5654 77.9366 26.8153 77.7224 27.0294 77.7224C28.4931 77.6867 29.9211 77.7224 31.3848 77.7224C31.4205 77.8295 31.4919 77.9723 31.5276 78.0794L31.5633 78.008Z" fill="#FBFBFB"/>
</svg>
