<svg width="150" height="159" viewBox="0 0 150 159" fill="none" xmlns="http://www.w3.org/2000/svg">
<path d="M149.958 96.8212C146.544 96.6963 143.129 96.5297 139.714 96.4464C139.006 96.4464 138.715 96.1966 138.715 95.447C138.673 83.9534 138.548 72.5014 138.506 61.0078C138.506 52.7207 138.506 44.4753 138.506 36.1882C138.506 28.734 138.673 21.2798 138.756 13.8257C138.756 13.6174 138.756 13.4092 138.756 13.1594C138.895 11.4936 138.118 10.6607 136.424 10.6607C134.051 10.6607 131.635 10.6607 129.262 10.6607C127.637 10.6607 127.513 10.8273 127.554 12.4514C127.637 16.5741 127.762 20.6968 127.762 24.7779C127.762 27.7762 127.596 30.7329 127.554 33.7313C127.554 36.7296 127.554 39.6863 127.554 42.6846C127.554 43.6424 127.096 43.9339 126.18 43.9339C113.52 43.9339 100.861 43.9339 88.201 43.9339C87.2016 43.9339 86.7851 43.5591 86.6602 42.518C85.6607 35.1055 85.869 27.6513 85.9522 20.1971C85.9522 17.6569 86.3687 15.1166 86.6186 12.618C86.7435 11.4103 86.2854 10.6607 84.9945 10.6607C78.4148 10.6607 71.7934 10.6607 65.2138 10.6607C63.5897 10.6607 62.7985 11.8268 63.3398 13.5758C63.673 14.6585 63.3815 15.5747 63.3398 16.6158C63.2565 19.5725 63.4231 22.5708 63.4231 25.5691C63.4231 29.0255 64.131 32.482 63.3815 36.0217C62.965 37.8956 63.2565 39.8945 63.2149 41.8518C63.2149 43.9339 63.1316 43.9756 61.0911 43.9756C48.8895 43.9756 36.7296 43.9756 24.528 43.9756C22.3209 43.9756 22.1127 43.809 22.0711 41.5186C22.0711 38.1038 22.0711 34.6474 22.0711 31.2327C22.0711 25.2776 22.0711 19.3642 22.0711 13.4092C22.0711 10.6607 22.0711 10.6607 19.2393 10.6607C16.8656 10.6607 14.4503 10.6607 12.0766 10.6607C11.1188 10.6607 10.744 10.9106 10.7857 12.035C10.9106 16.2826 10.869 20.5303 10.9106 24.7779C10.9939 31.5658 11.1188 38.3953 11.1605 45.1832C11.1605 51.3048 10.9939 57.3848 10.9522 63.5064C10.9106 69.4198 10.9522 75.3748 10.9522 81.2882C10.9522 85.9523 10.9522 90.6163 10.9939 95.322C10.9939 96.1133 10.8273 96.3215 9.99445 96.3631C6.66297 96.4464 3.33148 96.6546 0 96.8212C0.0416435 64.5475 0.0416435 32.2737 0.0416435 0L32.8568 0C32.94 4.12271 33.065 8.20378 33.1066 12.3265C33.1483 18.1982 33.1066 24.1116 33.1066 29.9833C33.1066 30.5247 33.1066 31.1077 33.0233 31.6491C32.8568 33.2732 33.2315 33.7729 34.8973 33.7729C36.9795 33.7729 39.0616 33.5647 41.1022 33.5647C44.4337 33.5647 47.7651 33.5647 51.0966 33.5647C52.0544 33.5647 52.4709 33.3565 52.4709 32.2737C52.4709 26.1521 52.5125 20.0722 52.5541 13.9506C52.5541 13.7424 52.4709 13.5341 52.5125 13.2843C52.5958 10.8273 52.5958 8.37035 52.804 5.91338C53.0539 3.87285 54.095 1.79067 52.0961 0L97.4042 0C96.4048 0.957801 96.6546 2.29039 96.6546 3.41477C96.7379 6.53803 97.1127 9.61966 97.1127 12.7429C97.0711 18.9478 96.7796 25.1943 96.6546 31.3992C96.613 33.3565 97.2793 33.8978 99.1949 33.648C99.7363 33.5647 100.319 33.5647 100.861 33.5647C105.108 33.648 109.356 33.7313 113.604 33.8145C116.977 33.8145 116.935 33.8145 116.935 30.5247C116.935 21.613 116.935 12.6596 116.935 3.74792C116.935 2.49861 116.768 1.24931 116.685 0C127.804 0 138.881 0 150 0V96.8212H149.958Z" fill="#FBFBFB"/>
<path d="M36.4782 158.244C36.3533 155.995 36.27 153.746 36.1451 151.539C36.1034 150.707 35.9785 149.915 35.9785 149.082C35.9785 138.921 35.9785 128.802 35.9785 118.641C35.9785 116.517 36.27 114.393 36.5199 112.311C36.5615 111.895 37.1862 111.312 37.561 111.27C39.5182 111.145 41.4755 111.145 43.3911 111.228C43.6826 111.228 44.0574 111.77 44.2239 112.145C44.3905 112.519 44.2656 113.019 44.2656 113.436C44.2656 125.012 44.2656 136.589 44.2656 148.166C44.2656 149.999 44.4322 150.207 46.2645 150.207C48.8047 150.207 51.3866 150.207 53.9269 150.207C55.5093 150.207 55.7175 149.915 55.5093 148.333C55.426 147.791 55.426 147.208 55.426 146.625C55.426 135.548 55.426 124.513 55.426 113.436C55.426 111.228 55.5093 111.145 57.7997 111.104C59.0074 111.104 60.2151 111.104 61.4227 111.104C63.1301 111.104 63.2134 111.187 63.2134 112.853C63.2134 115.809 63.1717 118.766 63.2134 121.681C63.2134 123.18 63.5049 124.679 63.6298 126.178C63.6715 126.761 63.6298 127.386 63.6298 128.011C63.5049 130.01 63.2134 131.967 63.2134 133.966C63.1301 141.462 63.1717 148.957 63.1717 156.453C63.1717 157.036 63.38 157.661 63.4632 158.244H36.3949H36.4782Z" fill="#FBFBFB"/>
<path d="M0.0410156 111.395C2.37305 111.312 4.70509 111.145 7.03713 111.104C7.32863 111.104 7.87 111.562 7.87 111.811C7.91164 115.518 7.95329 119.266 7.87 122.972C7.87 124.679 8.36972 125.387 10.0771 125.387C10.91 125.387 11.7429 125.387 12.5341 125.387C13.5752 125.304 14.1582 124.763 13.95 123.68C13.7417 122.639 14.0749 122.389 15.0743 122.514C16.282 122.68 17.0316 121.972 17.1565 120.848C17.2398 119.89 17.5313 119.432 18.5307 119.432C19.4469 119.432 19.7384 118.849 19.7384 117.975C19.7384 116.184 19.7801 114.352 19.7801 112.561C19.7801 111.687 20.2381 111.27 21.0294 111.228C22.9033 111.187 24.7356 111.187 26.6096 111.228C27.4425 111.228 27.5674 111.811 27.5674 112.478C27.5674 115.226 27.609 117.933 27.5674 120.682C27.5674 120.931 27.151 121.389 26.8595 121.431C24.9022 121.723 24.6107 121.931 24.4441 123.805C24.3608 124.721 24.0277 125.054 23.1115 124.721C22.0704 124.346 21.4874 124.721 21.4458 125.804C21.3625 127.469 21.3209 129.177 21.3209 130.843C21.3209 132.633 21.8622 133.258 23.6113 133.758C23.9444 133.841 24.3192 134.341 24.4025 134.715C24.5691 135.756 25.0688 136.298 26.1515 136.215C27.2342 136.131 27.5674 136.631 27.5674 137.672C27.4841 144.252 27.4841 150.831 27.4425 157.453C27.4425 157.744 27.5258 158.036 27.5674 158.369H19.7384C19.5302 154.371 19.2803 150.373 19.0721 146.334C18.9888 144.46 18.614 142.544 19.6968 140.754C20.2381 139.879 19.6968 139.255 18.9472 138.713C18.2392 138.172 17.448 137.63 16.9899 136.881C16.4902 136.09 15.9488 135.673 15.0327 135.715C14.1165 135.756 13.6168 135.507 13.8667 134.424C14.0332 133.674 13.7001 133.05 12.8672 132.883C8.57794 131.925 7.45357 133.175 7.82836 137.589C8.16151 141.712 7.91164 145.918 7.91164 150.04C7.91164 152.789 7.95329 155.579 7.99493 158.327H0.0410156C0.0410156 142.628 0.0410156 127.011 0.0410156 111.395Z" fill="#FBFBFB"/>
<path d="M125.22 158.244C125.22 156.287 125.22 154.288 125.22 152.331C125.22 150.415 125.47 150.207 127.427 150.165C131.55 150.165 135.673 150.165 139.796 150.165C141.711 150.165 141.878 149.999 141.878 148.125C141.878 144.627 141.878 141.087 141.878 137.589C141.878 135.715 141.753 135.632 139.879 135.632C135.631 135.632 131.384 135.632 127.136 135.632C126.012 135.632 125.47 135.382 125.47 134.133C125.47 126.762 125.47 119.391 125.387 112.062C125.387 110.979 126.137 111.187 126.72 111.187C131.384 111.187 136.089 111.187 140.753 111.187C142.627 111.187 144.501 111.27 146.334 111.187C147.541 111.104 148.749 110.687 149.957 110.438V119.016C149.665 119.016 149.374 119.141 149.04 119.141C144.418 119.141 139.796 119.058 135.132 119.058C133.216 119.058 132.799 119.474 132.758 121.431C132.758 122.847 132.758 124.305 132.758 125.721C132.758 127.47 133.174 127.886 134.882 127.886C138.713 127.886 142.502 127.969 146.292 127.886C147.5 127.886 148.707 127.386 149.915 127.137V158.369H125.179L125.22 158.244Z" fill="#FBFBFB"/>
<path d="M94.7819 158.243C94.7403 156.12 94.6986 154.037 94.6153 151.914C94.5737 150.664 94.2822 149.415 94.2822 148.166C94.2822 137.963 94.2405 127.802 94.2822 117.599C94.2822 115.684 94.657 113.768 94.9485 111.852C94.9485 111.603 95.4066 111.353 95.6981 111.269C96.2394 111.145 96.8224 111.145 97.3638 111.145C104.068 111.145 110.815 111.145 117.519 111.145C118.685 111.145 119.393 111.269 119.268 112.727C119.143 114.434 119.185 116.183 119.185 117.891C119.185 118.974 118.394 118.974 117.644 118.974C113.105 118.974 108.524 118.974 103.985 118.974C102.902 118.974 102.528 119.223 102.528 120.306C102.528 129.718 102.528 139.129 102.528 148.54C102.528 149.956 102.777 150.206 104.36 150.206C108.816 150.206 113.313 150.206 117.769 150.206C119.393 150.206 119.435 150.331 119.31 151.914C119.185 154.037 119.227 156.161 119.185 158.285H94.6986L94.7819 158.243Z" fill="#FBFBFB"/>
<path d="M69.7939 158.246C69.8772 156.122 70.0438 153.998 70.0022 151.916C70.0022 150.875 70.2937 150.459 71.2515 150.375C72.0427 150.292 72.7923 150.25 73.5835 150.209C74.9161 150.125 75.4158 149.667 75.4158 148.376C75.4158 139.173 75.3325 130.012 75.3325 120.808C75.3325 119.642 74.8328 119.143 73.7501 119.059C72.9589 119.018 72.2093 118.976 71.418 118.976C70.5852 118.976 70.1271 118.601 70.1271 117.727C70.1271 115.853 70.0438 113.979 70.1271 112.147C70.1271 111.813 70.7101 111.314 71.0849 111.272C71.8761 111.106 72.709 111.189 73.5419 111.189C77.9144 111.189 82.287 111.189 86.6596 111.189C87.8672 111.189 88.4086 111.605 88.367 112.855C88.2837 114.354 88.3253 115.895 88.367 117.394C88.367 118.56 87.9922 119.101 86.7845 119.018C86.1182 118.976 85.4936 119.018 84.8273 119.018C83.4947 119.018 82.9949 119.517 82.9533 120.808C82.9533 124.265 82.87 127.721 82.9117 131.178C82.9117 134.009 83.1199 136.8 83.1199 139.631C83.1199 142.088 82.9533 144.545 82.9117 147.002C82.9117 147.502 82.9117 148.043 82.9949 148.543C83.1199 149.709 83.7445 150.292 84.9938 150.25C85.9933 150.25 86.9927 150.334 87.9505 150.542C88.242 150.584 88.5752 151.125 88.5752 151.458C88.6168 153.748 88.5752 156.039 88.5752 158.288H69.8356L69.7939 158.246Z" fill="#FBFBFB"/>
<path d="M72.4174 96.5701C63.0476 96.5701 53.6778 96.5701 44.308 96.5701C42.2258 96.5701 42.1842 96.4868 42.1842 94.4463C42.1842 89.6573 42.1842 84.9099 42.1842 80.1209C42.1842 75.1237 42.1009 70.0848 42.0176 65.0876C42.0176 64.2547 42.4757 64.0465 43.142 64.0465C44.5995 64.0465 46.0986 64.0465 47.5562 64.0465C52.6367 64.0465 57.7172 64.1298 62.7561 64.1714C63.8804 64.1714 64.0054 63.5051 63.9637 62.6306C63.8804 60.8399 63.8388 59.0909 63.7555 57.3002C63.7139 56.3424 63.8804 55.7594 65.1297 55.8844C66.4623 56.0093 67.087 55.3846 67.087 53.9271C67.087 53.0526 67.4201 52.8027 68.2114 52.8027C71.0015 52.8027 73.75 52.8027 76.5401 52.8027C77.4146 52.8027 77.8727 53.0109 77.4979 54.052C77.1231 55.1348 77.7894 55.7178 78.7472 55.8844C79.7883 56.0926 80.1214 56.5507 79.9548 57.675C79.7466 59.1326 79.8299 60.6317 79.8716 62.0892C79.9132 63.6301 80.3296 63.9632 81.8704 63.9632C87.534 63.9632 93.2391 63.9632 98.9026 63.9632C99.9021 63.9632 100.902 63.9632 101.859 64.0881C102.151 64.0881 102.567 64.5879 102.567 64.8794C102.651 68.6273 102.734 72.4168 102.692 76.1648C102.692 81.6201 102.526 87.0754 102.442 92.5307C102.442 93.2386 102.442 93.9049 102.442 94.6128C102.442 96.4035 102.401 96.4452 100.652 96.4868C97.7783 96.4868 94.9465 96.4868 92.0731 96.4868C85.4934 96.4868 78.8721 96.4868 72.2924 96.4868L72.4174 96.5701ZM72.0426 86.1592C77.956 86.1592 83.8277 86.1592 89.7411 86.1592C91.7816 86.1592 92.1148 85.9093 92.1148 83.8688C92.1148 81.3702 91.9898 78.8299 91.9065 76.3313C91.8649 74.7072 91.5734 74.4574 89.9493 74.4574C78.1225 74.4574 66.2541 74.4574 54.4274 74.4574C52.7616 74.4574 52.6367 74.6239 52.595 76.373C52.595 79.1215 52.72 81.8283 52.5534 84.5767C52.4701 85.951 52.8865 86.2009 54.0942 86.2009C60.0909 86.2009 66.0459 86.2009 72.0426 86.2009V86.1592Z" fill="#FBFBFB"/>
</svg>
