<svg width="134" height="39" viewBox="0 0 134 39" fill="none" xmlns="http://www.w3.org/2000/svg">
<path d="M39.7262 36.3635V30.8036H22.9569V21.567H16.6796V30.8036H-2.08545e-05V36.3635H39.7262ZM19.4596 13.0478C18.6226 14.5723 17.6212 15.8278 16.4554 16.8142C15.2897 17.8006 13.8997 18.7273 12.2855 19.5941C11.5083 20.0126 10.6265 20.3863 9.6401 20.7151C8.68356 21.014 7.68218 21.2681 6.63597 21.4773C5.61965 21.6866 4.60332 21.851 3.587 21.9705C2.60057 22.0602 1.70381 22.1051 0.896734 22.1051V16.7245C1.88317 16.6946 2.92938 16.5751 4.03538 16.3658C5.14138 16.1566 6.21748 15.8876 7.2637 15.5587C8.3398 15.2 9.32623 14.7965 10.223 14.3481C11.1496 13.8699 11.9268 13.3467 12.5546 12.7788C13.81 11.6429 14.7665 10.2529 15.4242 8.60889C16.1117 6.93495 16.4554 5.02187 16.4554 2.86966V3.82498e-05H22.4637V2.86966C22.4637 5.02187 22.7925 6.92 23.4501 8.56405C24.1376 10.2081 25.139 11.613 26.4543 12.7788C27.2016 13.4364 28.0684 14.0193 29.0548 14.5275C30.0413 15.0057 31.0725 15.4093 32.1487 15.7381C33.2547 16.0669 34.3905 16.321 35.5563 16.5003C36.7221 16.6498 37.843 16.7245 38.9192 16.7245V22.1051C38.0822 22.1051 37.1107 22.0453 36.0047 21.9257C34.8987 21.8061 33.7778 21.6417 32.6419 21.4325C31.506 21.2232 30.4 20.9692 29.3239 20.6702C28.2777 20.3414 27.3809 19.9827 26.6336 19.5941C24.9597 18.7273 23.5398 17.8006 22.374 16.8142C21.2381 15.8278 20.2666 14.5723 19.4596 13.0478ZM70.3178 25.7818C70.3178 27.1269 70.0189 28.3823 69.4211 29.5481C68.8531 30.684 68.0461 31.6704 66.9998 32.5074C65.9536 33.3444 64.6832 34.002 63.1886 34.4803C61.7239 34.9585 60.0799 35.1977 58.2565 35.1977C56.463 35.1977 54.8189 34.9585 53.3243 34.4803C51.8596 34.002 50.5892 33.3444 49.5131 32.5074C48.4669 31.6704 47.6449 30.684 47.047 29.5481C46.4791 28.3823 46.1951 27.1269 46.1951 25.7818V9.37113C46.1951 8.026 46.4791 6.78549 47.047 5.6496C47.6449 4.48382 48.4669 3.49738 49.5131 2.6903C50.5892 1.85333 51.8596 1.19571 53.3243 0.717444C54.8189 0.239173 56.463 3.82498e-05 58.2565 3.82498e-05C60.0799 3.82498e-05 61.7239 0.239173 63.1886 0.717444C64.6832 1.19571 65.9536 1.85333 66.9998 2.6903C68.0461 3.49738 68.8531 4.48382 69.4211 5.6496C70.0189 6.78549 70.3178 8.026 70.3178 9.37113V25.7818ZM77.5816 3.82498e-05H83.814V12.2407H87.8046V17.711H83.814V38.8744H77.5816V3.82498e-05ZM52.4276 25.423C52.4276 25.991 52.5471 26.544 52.7863 27.082C53.0553 27.5902 53.429 28.0386 53.9072 28.4272C54.4154 28.8158 55.0282 29.1296 55.7456 29.3688C56.463 29.6079 57.2999 29.7275 58.2565 29.7275C59.1831 29.7275 60.0052 29.6079 60.7226 29.3688C61.4699 29.1296 62.0826 28.8158 62.5609 28.4272C63.0691 28.0386 63.4427 27.5902 63.6819 27.082C63.9509 26.544 64.0854 25.991 64.0854 25.423V9.64016C64.0854 8.47438 63.5772 7.473 62.5609 6.63603C61.5745 5.79906 60.1397 5.38057 58.2565 5.38057C56.3733 5.38057 54.9235 5.79906 53.9072 6.63603C52.9208 7.473 52.4276 8.47438 52.4276 9.64016V25.423ZM123.777 27.0372V26.275C123.777 25.707 123.672 25.3334 123.463 25.154C123.283 24.9747 122.985 24.885 122.566 24.885H94.1838V19.8632H125.436C127.05 19.8632 128.216 20.2966 128.933 21.1635C129.65 22.0004 130.009 23.226 130.009 24.8402V31.6555H100.416V32.4626C100.416 33.0305 100.506 33.4042 100.685 33.5835C100.895 33.7629 101.208 33.8525 101.627 33.8525H130.009V38.8744H98.7572C97.1431 38.8744 95.9773 38.4409 95.2599 37.5741C94.5425 36.7371 94.1838 35.5115 94.1838 33.8974V27.0372H123.777ZM118.441 12.0614V17.3523H97.6811C96.9637 17.3523 96.3211 17.2177 95.7531 16.9487C95.2151 16.6797 94.7517 16.321 94.3631 15.8726C94.0044 15.3943 93.7354 14.8712 93.5561 14.3033C93.3767 13.7054 93.287 13.0927 93.287 12.4649V3.82498e-05H117.993V5.2909H99.5195V11.0301C99.5195 11.7176 99.8483 12.0614 100.506 12.0614H118.441ZM123.777 3.82498e-05H130.009V5.60476H134V11.075H130.009V17.8903H123.777V3.82498e-05Z" fill="#FBFBFB"/>
</svg>
